<svg width="56" height="38" viewBox="0 0 56 38" fill="none" xmlns="http://www.w3.org/2000/svg">
<path d="M32.3283 35.1054H53.8203C54.2892 35.1054 54.7013 34.766 54.7805 34.3039C57.7134 17.191 30.2527 13.2833 31.3476 34.1732C31.3747 34.6901 31.8107 35.1054 32.3283 35.1054Z" stroke="white" stroke-width="1.5"/>
<path d="M2.0126 35.1054H23.5046C23.9735 35.1054 24.3856 34.766 24.4648 34.3039C27.3977 17.191 -0.062935 13.2833 1.03191 34.1732C1.059 34.6901 1.495 35.1054 2.0126 35.1054Z" stroke="white" stroke-width="1.5"/>
<path d="M15.1805 36.5265H40.9271C41.3991 36.5265 41.8127 36.1805 41.8933 35.7153C45.5875 14.3926 12.7065 9.50295 14.1956 35.5879C14.2252 36.106 14.6615 36.5265 15.1805 36.5265Z" fill="#E02618" stroke="white" stroke-width="1.5"/>
<path d="M43.158 5.73682C47.0821 5.73682 50.2633 8.91795 50.2633 12.8421C50.2633 16.7662 47.0821 19.9473 43.158 19.9473C39.2339 19.9473 36.0527 16.7662 36.0527 12.8421C36.0527 8.91795 39.2339 5.73682 43.158 5.73682Z" stroke="white" stroke-width="1.5"/>
<path d="M12.8421 5.73682C16.7662 5.73682 19.9473 8.91795 19.9473 12.8421C19.9473 16.7662 16.7662 19.9473 12.8421 19.9473C8.91795 19.9473 5.73682 16.7662 5.73682 12.8421C5.73682 8.91795 8.91795 5.73682 12.8421 5.73682Z" stroke="white" stroke-width="1.5"/>
<path d="M27.5263 1C32.2353 1 36.0526 4.81736 36.0526 9.52632C36.0526 14.2353 32.2353 18.0526 27.5263 18.0526C22.8174 18.0526 19 14.2353 19 9.52632C19 4.81736 22.8174 1 27.5263 1Z" fill="#E02618" stroke="white" stroke-width="1.5"/>
</svg>
