<svg width="50" height="50" viewBox="0 0 50 50" fill="none" xmlns="http://www.w3.org/2000/svg">
<path d="M43.1194 28.8992V24.7249C43.1194 21.9634 40.8808 19.7249 38.1194 19.7249H6.83496C4.07353 19.7249 1.83496 21.9634 1.83496 24.7249V43.1652C1.83496 45.9266 4.07354 48.1652 6.83496 48.1652H38.1194C40.8808 48.1652 43.1194 45.9266 43.1194 43.1652V38.5322" stroke="white" stroke-width="1.5"/>
<path d="M41.7431 29.3579H36.6973C34.1638 29.3579 32.1101 31.4116 32.1101 33.9451C32.1101 36.4785 34.1638 38.5322 36.6973 38.5322H41.7431C44.2766 38.5322 46.3303 36.4785 46.3303 33.9451C46.3303 31.4116 44.2766 29.3579 41.7431 29.3579Z" stroke="white" stroke-width="1.5"/>
<path d="M6.88062 19.7248L23.6662 3.32064C24.9326 2.08301 27.0641 2.98027 27.0641 4.75102V11.5899C27.0641 12.3569 26.6256 13.0562 25.9352 13.3903L12.8439 19.7248L31.0504 10.6215C32.3802 9.95662 33.9448 10.9236 33.9448 12.4104V19.7248" stroke="white" stroke-width="1.5"/>
<path d="M40.3669 3.21094L49.0825 12.844" stroke="white" stroke-width="1.5"/>
<path d="M49.0825 3.21094L40.3669 12.844" stroke="white" stroke-width="1.5"/>
</svg>
