<svg width="42" height="47" viewBox="0 0 42 47" fill="none" xmlns="http://www.w3.org/2000/svg">
<path d="M19.9326 12.8909L17.3929 17.9703C17.2434 18.2694 16.9543 18.4739 16.6225 18.5154L11.8355 19.1138C11.0098 19.217 10.664 20.2247 11.2524 20.8131L14.9487 24.5094C15.1794 24.7401 15.2831 25.0689 15.2264 25.3903L14.3204 30.5242C14.1714 31.3685 15.0844 31.9966 15.8197 31.5555L20.3126 28.8597C20.6292 28.6697 21.0249 28.6697 21.3415 28.8597L25.8344 31.5555C26.5696 31.9966 27.4827 31.3685 27.3337 30.5242L26.4277 25.3903C26.371 25.0689 26.4747 24.7401 26.7054 24.5094L30.4017 20.8131C30.9901 20.2247 30.6443 19.217 29.8186 19.1138L25.0316 18.5154C24.6998 18.4739 24.4107 18.2694 24.2612 17.9703L21.7215 12.8909C21.353 12.1539 20.3011 12.1539 19.9326 12.8909Z" stroke="white" stroke-width="1.5"/>
<path d="M20.3453 1.27806C17.4465 2.92619 10.5241 6.44432 2.10929 9.51837C1.76061 9.64575 1.50894 9.94783 1.46104 10.3159C0.40699 18.4151 -0.658913 39.4895 20.4639 45.8921C20.6929 45.9615 20.9467 45.9455 21.1645 45.8464C31.5527 41.1188 41.4163 36.1687 40.5979 10.4655C40.5841 10.0318 40.2898 9.64704 39.8756 9.51752C35.911 8.27769 28.5271 5.04571 21.3207 1.26051C21.0134 1.09912 20.647 1.10652 20.3453 1.27806Z" stroke="white" stroke-width="1.5"/>
</svg>
