<svg width="49" height="45" viewBox="0 0 49 45" fill="none" xmlns="http://www.w3.org/2000/svg">
<path d="M2.84766 43.9333V14.2666C2.84766 13.7143 3.29537 13.2666 3.84766 13.2666H8.20004C8.75232 13.2666 9.20004 13.7143 9.20004 14.2666V43.9333" stroke="white" stroke-width="1.5"/>
<path d="M14.8953 43.9332V20.3999C14.8953 19.8476 15.343 19.3999 15.8953 19.3999H20.0286C20.5809 19.3999 21.0286 19.8476 21.0286 20.3999V43.9332" stroke="white" stroke-width="1.5"/>
<path d="M26.7239 43.9332V27.4094C26.7239 26.8571 27.1716 26.4094 27.7239 26.4094H31.8572C32.4095 26.4094 32.8572 26.8571 32.8572 27.4094V43.9332" stroke="white" stroke-width="1.5"/>
<path d="M38.5525 43.9332V33.5427C38.5525 32.9904 39.0002 32.5427 39.5525 32.5427H43.6858C44.2381 32.5427 44.6858 32.9904 44.6858 33.5427V43.9332" stroke="white" stroke-width="1.5"/>
<path d="M0 44.1526H48.1905" stroke="white" stroke-width="1.5"/>
<path d="M39.3786 21.7208C30.1113 20.6156 15.6993 12.6518 13.5808 1C15.8682 4.50256 24.5936 15.7002 40.3735 16.5145C40.9338 16.5434 41.3999 16.0908 41.3999 15.5297V15.3034C41.3999 14.436 42.4286 13.98 43.0714 14.5624L47.4825 18.56C47.9576 18.9905 47.9105 19.7506 47.3859 20.1192L41.8796 23.9885C41.217 24.4541 40.3046 23.9802 40.3046 23.1703V22.7406C40.3046 22.216 39.8996 21.7829 39.3786 21.7208Z" stroke="white" stroke-width="1.5"/>
</svg>
