<svg width="24" height="17" viewBox="0 0 24 17" fill="none" xmlns="http://www.w3.org/2000/svg">
<path fill-rule="evenodd" clip-rule="evenodd" d="M0.270363 0.191507C0.630847 -0.0638357 1.21531 -0.0638357 1.57579 0.191507L12 7.57532L22.4242 0.191507C22.7847 -0.0638357 23.3692 -0.0638357 23.7296 0.191507C24.0901 0.44685 24.0901 0.860842 23.7296 1.11619L13.3054 8.5L23.7296 15.8838C24.0901 16.1392 24.0901 16.5532 23.7296 16.8085C23.3692 17.0638 22.7847 17.0638 22.4242 16.8085L12 9.42468L1.57579 16.8085C1.21531 17.0638 0.630847 17.0638 0.270363 16.8085C-0.090121 16.5532 -0.090121 16.1392 0.270363 15.8838L10.6946 8.5L0.270363 1.11619C-0.090121 0.860842 -0.090121 0.44685 0.270363 0.191507Z" fill="#282828"/>
</svg>
