<svg width="131" height="42" viewBox="0 0 131 42" fill="none" xmlns="http://www.w3.org/2000/svg">
<path d="M36.8652 5.20435H4.85181V37.1504H36.8652V5.20435Z" fill="#ED1A3A"/>
<path d="M31.6949 8.38677C30.9592 8.38677 30.402 8.87383 30.1245 9.45915L26.0936 16.0814C25.8141 16.6938 25.6101 17.3819 25.6101 17.8373C25.6101 18.2443 25.666 18.6039 25.8154 18.9353L30.1758 29.3301H13.2436C12.634 29.3301 12.131 28.7191 12.131 28.1551V10.2495C12.0029 7.80169 8.4773 7.80301 8.39966 10.3264L8.47668 29.3301C8.47668 31.3961 10.0773 33.0513 12.131 33.0513H35.2166L29.5896 18.6832C29.4343 18.1483 29.3651 17.6632 29.7436 17.0256L33.4664 10.9844C33.5188 10.8584 33.5948 10.3257 33.5948 10.1726C33.521 9.07566 32.6596 8.33832 31.6949 8.38677ZM22.5548 8.39532C21.6493 8.40138 20.7448 9.02562 20.7448 10.2495V23.0625C20.7448 24.923 18.2372 24.7699 18.2372 23.0625V10.2495C18.2372 7.80169 14.6086 7.80169 14.6086 10.2495V23.165C14.6086 26.1187 16.8187 28.0825 19.4568 28.0825C22.1666 28.0825 24.3691 26.1187 24.3691 23.165V10.2495C24.3691 9.00139 23.4603 8.38926 22.5548 8.39532Z" fill="white"/>
<path d="M43.137 8.95837V17.4105C43.137 19.5231 42.9216 20.6976 41.1978 20.6976C40.8756 20.6976 40.6601 20.6976 40.3379 20.5813V24.2191C40.9824 24.4556 41.4133 24.4556 41.9529 24.4556C46.798 24.4556 47.0135 20.8158 47.0135 18.7013V12.5982H49.8126V24.2191H53.6871V8.95837H43.137Z" fill="black"/>
<path d="M54.98 8.95837L60.256 19.994L58.3187 24.2191H62.5174L68.7621 8.95837H64.5634L62.302 15.4142L59.6096 8.95837H54.98Z" fill="black"/>
<path d="M69.946 24.2191H73.8225V17.645L77.8057 24.2191H82.7576L77.268 16.3542L82.6508 8.95837H78.0212L73.8225 15.4142V8.95837H69.946V24.2191Z" fill="black"/>
<path d="M89.1111 24.6902C94.2785 24.6902 96.6467 20.6976 96.6467 16.5888C96.6467 12.5982 94.2785 8.60571 89.1111 8.60571C84.0506 8.60571 81.6824 12.5982 81.6824 16.5888C81.6824 20.6976 84.0506 24.6902 89.1111 24.6902ZM89.1111 21.0504C87.3874 21.0504 85.6656 19.5231 85.6656 16.5888C85.6656 13.6545 87.3874 12.2455 89.1111 12.2455C90.9416 12.2455 92.6634 13.6545 92.6634 16.5888C92.6634 19.5231 90.9416 21.0504 89.1111 21.0504Z" fill="black"/>
<path d="M98.5857 8.95842V24.2192H102.353L107.736 15.0635V24.2192H111.506V8.95842H107.736L102.353 18.116V8.95842H98.5857ZM105.153 8.13666C106.768 8.13666 108.383 7.54941 109.138 5.78766L106.876 4.84961C106.552 6.02411 105.584 6.1404 105.153 6.1404C104.83 6.1404 103.753 6.02411 103.538 4.84961L101.278 5.78766C101.923 7.54941 103.646 8.13666 105.153 8.13666Z" fill="black"/>
<path d="M115.598 8.95837V17.4105C115.598 19.5231 115.381 20.6976 113.659 20.6976C113.337 20.6976 113.121 20.6976 112.797 20.5813V24.2191C113.443 24.4556 113.874 24.4556 114.412 24.4556C119.257 24.4556 119.472 20.8158 119.472 18.7013V12.5982H122.272V24.2191H126.148V8.95837H115.598Z" fill="black"/>
<path d="M40.3689 32.7837H40.9144V29.9521H44.0998V32.7837H44.6452V27.2329H44.0998V29.5063H40.9144V27.2329H40.3689V32.7837Z" fill="black"/>
<path d="M46.0332 32.7837H49.0206V32.3379H46.5787V29.8978H48.9236V29.4521H46.5787V27.6806H49.0206V27.2329H46.0332V32.7837Z" fill="black"/>
<path d="M52.6157 32.7837H53.1554V32.0201H53.3825C55.18 32.0201 55.9234 30.958 55.9234 29.8455C55.9234 28.5431 54.9587 27.6806 53.3825 27.6806H53.1554V27.0139H52.6157V27.6806H52.3964C50.8105 27.6806 49.8477 28.5431 49.8477 29.8455C49.8477 30.958 50.5911 32.0201 52.3964 32.0201H52.6157V32.7837ZM53.1554 28.1264C54.9587 28.1497 55.3547 28.9908 55.3547 29.8455C55.3547 31.1789 54.4676 31.5259 53.1554 31.5724V28.1264ZM52.6157 31.5724C51.3035 31.5259 50.4164 31.1789 50.4164 29.8455C50.4164 28.9908 50.8105 28.1497 52.6157 28.1264V31.5724Z" fill="black"/>
<path d="M57.8935 32.7837H58.4176V27.6806H59.8967V27.2329H56.4163V27.6806H57.8935V32.7837Z" fill="black"/>
<path d="M60.5414 32.7837H61.1548L62.6339 30.3455H63.1037V32.7837H63.6511V27.2329H62.368C60.685 27.2329 60.4424 28.3473 60.4424 28.8396C60.4424 29.7777 61.1781 30.3455 62.0438 30.3145L60.5414 32.7837ZM63.1037 29.8978H62.3156C61.8691 29.8978 60.982 29.8455 60.982 28.7853C60.982 27.7562 61.9215 27.6806 62.368 27.6806H63.1037V29.8978Z" fill="black"/>
<path d="M65.0466 32.7837H65.5921V29.9521H68.7775V32.7837H69.323V27.2329H68.7775V29.5063H65.5921V27.2329H65.0466V32.7837Z" fill="black"/>
<path d="M70.1189 32.7837H70.6663L71.4311 30.9812H73.7741L74.5408 32.7837H75.0863L72.5919 27.0895L70.1189 32.7837ZM71.6291 30.5432L72.5919 28.2717L73.578 30.5432H71.6291Z" fill="black"/>
<path d="M75.7172 32.7837H76.3306L77.8097 30.3455H78.2795V32.7837H78.8249V27.2329H77.5438C75.8608 27.2329 75.6182 28.3473 75.6182 28.8396C75.6182 29.7777 76.3539 30.3455 77.2177 30.3145L75.7172 32.7837ZM78.2795 29.8978H77.4914C77.043 29.8978 76.1559 29.8455 76.1559 28.7853C76.1559 27.7562 77.0973 27.6806 77.5438 27.6806H78.2795V29.8978Z" fill="black"/>
<path d="M82.0647 32.7837H82.6102V30.0955L85.1045 32.7837H85.8169L83.1246 29.9211L85.7723 27.2329H85.1045L82.6102 29.8222V27.2329H82.0647V32.7837Z" fill="black"/>
<path d="M89.3363 32.9581C90.9902 32.9581 92.347 31.77 92.347 30.0199C92.347 28.2717 90.9902 27.0895 89.3363 27.0895C87.7057 27.0895 86.3489 28.2717 86.3489 30.0199C86.3489 31.77 87.7057 32.9581 89.3363 32.9581ZM89.3363 32.4891C87.9794 32.4891 86.9176 31.4735 86.9176 30.0199C86.9176 28.5663 87.9794 27.5294 89.3363 27.5294C90.6951 27.5294 91.7783 28.5663 91.7783 30.0199C91.7783 31.4735 90.6951 32.4891 89.3363 32.4891Z" fill="black"/>
<path d="M93.0981 32.7837H93.6223L94.1367 28.6865L96.1846 33.0337L98.2092 28.6865L98.7566 32.7837H99.2477L98.4829 27.0139L96.1846 31.9736L93.863 27.0139L93.0981 32.7837Z" fill="black"/>
<path d="M100.273 27.2329V32.7837H100.818V27.6806H104.004V32.7837H104.549V27.2329H100.273Z" fill="black"/>
<path d="M105.347 32.7837H105.892L106.657 30.9812H109.002L109.767 32.7837H110.312L107.818 27.0895L105.347 32.7837ZM106.855 30.5432L107.818 28.2717L108.804 30.5432H106.855Z" fill="black"/>
<path d="M111.087 32.7837H111.632V29.9521H114.818V32.7837H115.365V27.2329H114.818V29.5063H111.632V27.2329H111.087V32.7837Z" fill="black"/>
<path d="M116.751 27.2329V33.0337L120.56 28.3919V32.7837H121.097V27.0139L117.298 31.6247V27.2329H116.751Z" fill="black"/>
<path d="M122.326 32.7837H122.939L124.419 30.3455H124.888V32.7837H125.436V27.2329H124.155C122.47 27.2329 122.227 28.3473 122.227 28.8396C122.227 29.7777 122.963 30.3455 123.828 30.3145L122.326 32.7837ZM124.888 29.8978H124.1C123.654 29.8978 122.767 29.8455 122.767 28.7853C122.767 27.7562 123.706 27.6806 124.155 27.6806H124.888V29.8978Z" fill="black"/>
</svg>
