<svg width="113" height="53" viewBox="0 0 113 53" fill="none" xmlns="http://www.w3.org/2000/svg">
<g clip-path="url(#clip0_202_109)">
<path d="M50.8681 12.2881C50.8681 11.2605 51.2872 10.5519 52.1254 10.1621C52.9985 9.77237 53.9415 9.55977 54.9543 9.52434C56.7704 9.4535 58.2023 9.86098 59.2501 10.7468C60.3328 11.6326 60.8741 12.0755 60.8741 12.0755H60.9266V10.5873C60.9266 10.5873 60.2979 10.3747 59.0406 9.94953C57.8183 9.48891 56.4561 9.25861 54.9543 9.25861C54.0463 9.25861 52.9637 9.50663 51.7064 10.0027C50.484 10.4987 49.8728 11.5263 49.8728 13.0853C49.8728 14.6443 50.4141 15.6365 51.4968 16.0616C52.5795 16.4514 53.7669 16.6994 55.0592 16.8057C56.3863 16.8766 57.6086 16.9829 58.7262 17.1246C59.8089 17.2663 60.3503 17.8687 60.3503 18.9317C60.3503 20.1009 59.7741 20.845 58.6215 21.1639C57.5039 21.4474 56.718 21.6068 56.264 21.6423C54.1685 21.6423 52.6493 21.1816 51.7064 20.2604C50.7983 19.3391 50.3442 18.8785 50.3442 18.8785C50.3093 18.8785 50.2744 18.8785 50.2395 18.8785C50.2395 18.8785 50.222 18.8785 50.1871 18.8785L50.2918 20.7919C50.2918 20.7919 50.9729 20.9867 52.3349 21.3765C53.697 21.7308 54.9543 21.908 56.1068 21.908C58.377 21.908 59.8788 21.3588 60.6122 20.2604C61.3456 19.162 61.7123 18.4002 61.7123 17.975C61.6774 16.3451 61.1011 15.3176 59.9835 14.8924C58.8659 14.4672 57.6261 14.2192 56.264 14.1483C54.9019 14.0774 53.6621 13.9889 52.5445 13.8825C51.4269 13.7762 50.8681 13.2448 50.8681 12.2881ZM47.2533 7.34526L44.2673 6.28228C43.9529 6.14055 43.6211 6.12282 43.2719 6.22908C42.9576 6.33537 42.7131 6.54797 42.5385 6.86687L46.5199 8.24872C46.6247 8.07156 46.7295 7.91211 46.8342 7.77038C46.9739 7.62865 47.1136 7.48699 47.2533 7.34526ZM43.4814 15.6365L41.805 15.0518L39.9191 14.3609C39.9191 14.5735 40.0762 14.8392 40.3906 15.1581C40.7398 15.477 40.9145 15.6365 40.9145 15.6365C40.9145 15.6365 40.7398 15.7959 40.3906 16.1148C40.0762 16.4337 39.9191 16.6994 39.9191 16.912L41.805 16.2211L43.4814 15.6365ZM50.2394 5.16616L46.6247 3.89059C46.2755 3.78429 45.9087 3.76656 45.5246 3.83739C45.1753 3.90823 44.861 4.06768 44.5816 4.31574L48.9821 5.85705C49.1917 5.75075 49.4012 5.64445 49.6108 5.53815C49.8203 5.39642 50.0299 5.27245 50.2394 5.16616ZM45.4198 9.89639L42.5909 8.88656C42.2765 8.78026 41.9797 8.79799 41.7003 8.93976C41.4209 9.04606 41.2113 9.24094 41.0716 9.5244L44.8959 10.9063C44.9657 10.7291 45.0356 10.5519 45.1055 10.3748C45.2102 10.1976 45.315 10.0381 45.4198 9.89639ZM44.2673 12.7133L41.4907 11.7566C41.1764 11.6503 40.897 11.6857 40.6525 11.8629C40.408 12.0046 40.2509 12.2172 40.181 12.5007L44.0053 13.8294C44.0751 13.6522 44.1101 13.475 44.1101 13.2979C44.1451 13.0853 44.1974 12.8904 44.2673 12.7133ZM55.5306 3.83743C55.9497 3.83743 56.3513 3.87285 56.7355 3.9437C57.1546 3.97916 57.5562 4.03231 57.9404 4.10314L63.703 2.03034C63.3189 1.78231 62.8998 1.64058 62.4457 1.60515C61.9917 1.56969 61.5552 1.64055 61.1361 1.81775L55.5306 3.78424L49.9775 1.87089C49.5584 1.69373 49.1218 1.64058 48.6678 1.71144C48.2138 1.74691 47.7947 1.88864 47.4105 2.13663L53.1208 4.15629C53.5049 4.04999 53.8891 3.97913 54.2733 3.9437C54.6924 3.87285 55.1115 3.83743 55.5306 3.83743ZM66.1653 10.8531L70.0419 9.47121C69.9022 9.18775 69.6752 8.99286 69.3609 8.88656C69.0815 8.74483 68.8021 8.72709 68.5227 8.83336L65.6938 9.84319C65.7636 10.0204 65.8335 10.1975 65.9033 10.3747C66.0081 10.5164 66.0954 10.6759 66.1653 10.8531ZM64.5412 8.19564L68.5227 6.81376C68.3481 6.5303 68.0861 6.33542 67.7369 6.22913C67.4226 6.12283 67.1082 6.12283 66.7939 6.22913L63.7554 7.29211C63.8951 7.43384 64.0348 7.59329 64.1745 7.77045C64.3142 7.91218 64.4365 8.05391 64.5412 8.19564ZM62.079 5.85709L66.532 4.31578C66.2526 4.06775 65.9208 3.9083 65.5366 3.83743C65.1874 3.76659 64.8381 3.78432 64.4889 3.89063L60.8217 5.1662C61.0313 5.23704 61.2408 5.34333 61.4504 5.48508C61.6599 5.59138 61.8695 5.71536 62.079 5.85709ZM59.5644 0.276476C59.4946 0.276476 59.4073 0.258742 59.3025 0.223276C59.1977 0.187809 59.1104 0.170075 59.0406 0.170075C58.5516 0.0283451 58.0452 -0.0248013 57.5213 0.0106289C56.9974 0.0460954 56.5085 0.152388 56.0545 0.329521L55.5306 0.542116L55.0067 0.38267C54.4828 0.20551 53.9415 0.0992182 53.3827 0.063788C52.8588 0.0283215 52.3175 0.0814666 51.7587 0.223224C51.7237 0.25869 51.6713 0.294104 51.6015 0.32948C51.5666 0.32948 51.5142 0.32948 51.4444 0.32948L55.4782 1.76451L59.5644 0.276476ZM67.0559 13.7762L70.8801 12.3944C70.8103 12.1109 70.6532 11.8983 70.4087 11.7566C70.1642 11.5794 69.8848 11.544 69.5705 11.6503L66.7939 12.6602C66.8637 12.8373 66.9161 13.0322 66.9511 13.2448C66.986 13.422 67.021 13.5991 67.0559 13.7762ZM46.4675 23.0773L42.4861 24.5123C42.6607 24.7957 42.9052 24.9906 43.2195 25.0969C43.5688 25.1678 43.9005 25.1678 44.2149 25.0969L47.201 23.9808C47.0613 23.8391 46.9216 23.6973 46.7819 23.5556C46.6771 23.4139 46.5723 23.2544 46.4675 23.0773ZM65.6938 21.4828L68.5227 22.4926C68.8021 22.5989 69.0815 22.5989 69.3609 22.4926C69.6752 22.3509 69.9022 22.1383 70.0419 21.8548L66.2177 20.5261C66.1478 20.6679 66.0605 20.8273 65.9557 21.0045C65.8859 21.1816 65.7986 21.3411 65.6938 21.4828ZM60.8741 26.2662L64.4889 27.4886C64.8381 27.6303 65.1874 27.6658 65.5366 27.5949C65.9208 27.524 66.2526 27.3469 66.532 27.0634L62.1314 25.5221C61.9219 25.6284 61.7123 25.7524 61.5028 25.8942C61.2932 26.0005 61.0837 26.1245 60.8741 26.2662ZM63.8602 24.0339L66.8463 25.0969C67.1606 25.2386 67.475 25.2564 67.7893 25.1501C68.1385 25.0438 68.4005 24.8489 68.5751 24.5654L64.5936 23.1304C64.4889 23.3076 64.3666 23.467 64.2269 23.6088C64.0872 23.7505 63.965 23.8922 63.8602 24.0339ZM70.0419 15.6365C70.0419 15.6365 70.234 15.477 70.6182 15.1581C71.0024 14.8038 71.1945 14.538 71.1945 14.3609L69.099 15.0518L67.4226 15.6365L69.099 16.2211L71.1945 16.9652C71.1945 16.7526 71.0024 16.4868 70.6182 16.1679C70.234 15.8136 70.0419 15.6365 70.0419 15.6365ZM66.8463 18.6659L69.6228 19.6226C69.9372 19.7289 70.2166 19.7112 70.461 19.5694C70.7055 19.4277 70.8627 19.1974 70.9325 18.8785L67.1082 17.5498C67.0384 17.7269 66.986 17.9218 66.9511 18.1344C66.9511 18.3116 66.9161 18.4888 66.8463 18.6659ZM44.0053 17.4967L40.181 18.8785C40.216 19.162 40.3557 19.3746 40.6001 19.5163C40.8795 19.658 41.1764 19.6758 41.4907 19.5695L44.2673 18.6128C44.1974 18.4357 44.145 18.2585 44.1101 18.0813C44.0751 17.8687 44.0402 17.6738 44.0053 17.4967ZM48.8774 25.4158L44.4768 27.0103C44.7562 27.2937 45.0705 27.4709 45.4198 27.5418C45.804 27.6126 46.1881 27.5772 46.5723 27.4355L50.1347 26.213C49.9251 26.0713 49.7156 25.9473 49.506 25.841C49.3314 25.6993 49.1218 25.5575 48.8774 25.4158ZM44.8959 20.4198L41.0716 21.7485C41.2113 22.0674 41.4209 22.2978 41.7003 22.4395C41.9797 22.5458 42.2765 22.5458 42.5909 22.4395L45.4198 21.4828C45.2801 21.3056 45.1753 21.1285 45.1055 20.9513C45.0356 20.7742 44.9658 20.597 44.8959 20.4198ZM55.5306 27.5418C55.0766 27.5418 54.64 27.5241 54.2209 27.4886C53.8018 27.4178 53.3827 27.3469 52.9636 27.276L47.3057 29.2425C47.6899 29.4906 48.0915 29.65 48.5107 29.7209C48.9647 29.7563 49.4187 29.7031 49.8727 29.5614L55.4782 27.5418L61.1361 29.5614C61.5552 29.7032 61.9917 29.7563 62.4457 29.7209C62.8998 29.6854 63.3189 29.5437 63.703 29.2957L58.0452 27.276C57.6261 27.3469 57.207 27.4178 56.7879 27.4886C56.4037 27.5241 55.9846 27.5418 55.5306 27.5418ZM51.3396 30.9964C51.9682 31.1736 52.5794 31.2622 53.1731 31.2622C53.8018 31.2267 54.413 31.1027 55.0067 30.8901L55.4782 30.7838L55.8973 30.8901C56.491 31.1027 57.1022 31.2267 57.7309 31.2622C58.3944 31.2976 59.0405 31.2267 59.6692 31.0496L55.4782 29.5614L51.3396 30.9964ZM113 39.5002V53L102.837 42.3703V52.6811H101.422V39.2345L111.585 49.8642V39.5002H113ZM90.2635 39.2876C88.2728 39.2876 86.6139 39.9431 85.2867 41.2541C83.9945 42.5651 83.3484 44.1773 83.3484 46.0907C83.3484 48.0395 83.9945 49.6693 85.2867 50.9803C86.6139 52.2913 88.2728 52.9468 90.2635 52.9468C92.2543 52.9468 93.9132 52.2913 95.2404 50.9803C96.5675 49.6693 97.2311 48.0395 97.2311 46.0907C97.2311 44.1773 96.5675 42.5651 95.2404 41.2541C93.9132 39.9431 92.2543 39.2876 90.2635 39.2876ZM90.2635 51.7776C88.657 51.7776 87.3124 51.2284 86.2297 50.13C85.147 49.067 84.6057 47.7206 84.6057 46.0907C84.6057 44.4962 85.147 43.1498 86.2297 42.0514C87.3124 40.953 88.657 40.4038 90.2635 40.4038C91.8701 40.4038 93.2147 40.953 94.2974 42.0514C95.3801 43.1498 95.9214 44.4962 95.9214 46.0907C95.9214 47.7206 95.3801 49.067 94.2974 50.13C93.2147 51.2284 91.8701 51.7776 90.2635 51.7776ZM71.1945 39.5002H80.5195V40.6695H76.5904V52.7343H75.1759V40.6695H71.2469V39.5002H71.1945ZM9.21997 49.439C9.21997 50.502 8.81833 51.3524 8.01505 51.9902C7.24671 52.628 6.18149 52.9468 4.81941 52.9468C3.66689 52.9468 2.67152 52.6811 1.83332 52.1496C0.99512 51.6181 0.383934 50.8741 -0.000244141 49.9174L1.20467 49.439C1.51899 50.1831 1.99049 50.75 2.61913 51.1398C3.28271 51.565 4.0336 51.7776 4.8718 51.7776C5.81478 51.7776 6.5482 51.565 7.07208 51.1398C7.63088 50.7146 7.91028 50.1477 7.91028 49.439C7.91028 48.5887 7.61342 47.9686 7.01969 47.5788C6.46089 47.1891 5.67507 46.7816 4.66225 46.3564C3.54465 45.8958 2.6366 45.4174 1.9381 44.9214C1.2396 44.3899 0.890345 43.6104 0.890345 42.5828C0.890345 41.5907 1.25706 40.7935 1.99048 40.1912C2.75884 39.5888 3.71928 39.2876 4.8718 39.2876C5.71 39.2876 6.44342 39.4648 7.07208 39.8191C7.70073 40.138 8.22461 40.6341 8.64371 41.3073L7.49118 41.8919C7.21178 41.3959 6.84507 41.0238 6.39104 40.7758C5.97194 40.5278 5.44806 40.4038 4.81941 40.4038C4.12091 40.4038 3.50973 40.6163 2.98585 41.0415C2.4969 41.4313 2.25242 41.9273 2.25242 42.5297C2.25242 43.2383 2.54929 43.7876 3.14301 44.1773C3.73673 44.5316 4.43524 44.8682 5.23851 45.1871C6.60059 45.7895 7.59596 46.3741 8.22461 46.941C8.88818 47.508 9.21997 48.3406 9.21997 49.439ZM23.7837 39.5002H25.1982V52.7343H23.7837V47.4194H15.5065V52.7343H14.1444V39.5002H15.5065V46.197H23.7313L23.7837 39.5002ZM32.3229 51.565H39.0285V52.7343H30.9608V39.5002H38.9237V40.6695H32.3229V46.197H38.1903V47.3662H32.3229V51.565ZM50.3442 47.2068L53.8018 52.7343H52.1778L48.9821 47.4725L48.9297 47.4194H46.6246L47.0437 46.2501H48.825C49.6632 46.2501 50.3617 45.9844 50.9205 45.4529C51.5142 44.9214 51.8111 44.2482 51.8111 43.4332C51.8111 42.6537 51.5317 42.0159 50.9729 41.5199C50.449 40.9884 49.7679 40.7227 48.9297 40.7227H45.5769V52.7874H44.2149V39.5002H49.0345C50.222 39.5002 51.2173 39.8723 52.0206 40.6164C52.8588 41.3604 53.2779 42.2817 53.2779 43.3801C53.2779 44.2305 53.0334 44.9923 52.5445 45.6655C52.0555 46.3387 51.392 46.817 50.5538 47.1005L50.3442 47.2068ZM63.2316 39.2345L56.8403 52.7343H58.3071L60.1407 48.7481H66.2177L67.9988 52.5217L68.1036 52.6811H69.6228L63.2316 39.2345ZM60.717 47.5788L63.2316 42.1577L65.6938 47.5788H60.717Z" fill="#6E6260"/>
</g>
<defs>
<clipPath id="clip0_202_109">
<rect width="113" height="53" fill="white"/>
</clipPath>
</defs>
</svg>
