<svg width="123" height="37" viewBox="0 0 123 37" fill="none" xmlns="http://www.w3.org/2000/svg">
<g clip-path="url(#clip0_202_157)">
<path d="M13.0136 15.6269C14.5534 15.6269 16.037 15.6841 17.4454 15.7795C17.2388 8.48603 15.9618 4.6725 15.0229 4.6725C14.4032 4.6725 13.3892 6.52206 12.8352 10.612C12.8186 10.7581 12.7465 10.8917 12.6342 10.9842C12.5219 11.0769 12.3783 11.1213 12.2343 11.1079C12.1557 11.1023 12.0791 11.0802 12.0095 11.0427C11.9399 11.0053 11.8788 10.9535 11.8302 10.8906C11.7815 10.8277 11.7463 10.7552 11.727 10.6776C11.7077 10.6001 11.7045 10.5193 11.7179 10.4404C11.9715 8.35931 12.5484 6.33209 13.4268 4.43415L13.5018 4.29114C13.2202 4.29114 12.9291 4.29114 12.638 4.29114C9.29594 4.29111 6.08992 5.63525 3.72144 8.02947C1.35297 10.4236 0.0148978 13.673 0 17.0665C0 17.1809 0 17.2953 0 17.4097L0.140839 17.343C2.71351 16.3038 7.70863 15.6269 13.0136 15.6269Z" fill="#A02030"/>
<path d="M17.126 22.787C17.0926 22.7482 17.0503 22.7183 17.0028 22.6999C16.9553 22.6817 16.9042 22.6755 16.8538 22.6821C15.605 22.7584 14.3092 22.7965 13.0136 22.7965C8.94245 22.8988 4.87751 22.4173 0.938895 21.3664L0.760498 21.3187C1.8133 24.3999 3.98352 26.9575 6.82894 28.4702C9.67437 29.983 12.9808 30.3373 16.0744 29.4606C16.6554 27.3862 17.0389 25.2599 17.2199 23.1111C17.2332 23.0534 17.2315 22.9933 17.215 22.9365C17.1986 22.8797 17.1679 22.8282 17.126 22.787Z" fill="#A02030"/>
<path d="M13.192 16.7042C5.44583 16.7042 1.38965 18.0198 1.38965 18.7444C1.38965 19.469 5.44583 20.7752 13.192 20.7752C14.4032 20.7752 15.605 20.7752 16.7787 20.6607C16.95 20.6491 17.111 20.5734 17.2306 20.4485C17.3502 20.3235 17.42 20.158 17.4265 19.9838C17.4265 19.202 17.4736 18.4012 17.4736 17.5813V16.8663C16.1027 16.7614 14.6661 16.7042 13.192 16.7042Z" fill="#A02030"/>
<path d="M24.5343 21.4047C23.1589 21.8812 21.7451 22.2353 20.3091 22.4629C20.1581 22.4819 20.018 22.5528 19.912 22.6637C19.8062 22.7747 19.7408 22.9192 19.727 23.0731C19.5967 24.8182 19.3107 26.5478 18.8726 28.2404C21.504 26.7225 23.5127 24.2973 24.5343 21.4047Z" fill="#A02030"/>
<path d="M19.9055 19.9267C19.9032 19.9756 19.9123 20.0243 19.9318 20.069C19.9514 20.1137 19.9809 20.1532 20.0181 20.1842C20.0539 20.219 20.097 20.2447 20.1443 20.2596C20.1916 20.2746 20.2416 20.2781 20.2904 20.27C21.9351 20.0957 23.5527 19.7179 25.1072 19.145C25.2194 18.4579 25.279 17.7631 25.2856 17.0666C25.2856 16.6948 25.2856 16.3325 25.2292 15.9797C25.2292 15.8749 25.2292 15.7796 25.2292 15.6842C25.2292 15.3315 25.1353 14.9787 25.0696 14.6259C25.0696 14.4734 25.0038 14.3113 24.9663 14.1588C24.8118 13.4644 24.5982 12.7849 24.3278 12.1281C24.3278 12.1281 24.3278 12.0804 24.3278 12.0613C23.121 9.20319 20.9412 6.88161 18.1873 5.52112C19.3702 8.48615 19.9242 13.2531 19.9242 18.2202C19.9242 18.8018 19.9149 19.3738 19.9055 19.9267Z" fill="#A02030"/>
<path d="M40.1486 8.9724C38.4022 8.9724 37.4915 9.78281 37.1723 10.7362H33.9798C34.4305 8.25736 36.5807 6.15991 40.2613 6.15991C43.9419 6.15991 46.3925 8.17156 46.3925 11.7277V21.8336H43.2659V20.0507C42.6944 20.7428 41.9737 21.292 41.1596 21.6558C40.3455 22.0195 39.4598 22.188 38.5712 22.1482C35.6605 22.1482 33.3601 20.3463 33.3601 17.3812C33.3601 14.4162 35.6793 12.5381 39.4351 12.5381H43.0969V11.6705C43.0969 9.86856 41.8293 8.9724 40.1486 8.9724ZM43.0969 16.037V15.1598H39.6698C37.9609 15.1598 36.7873 15.9035 36.7873 17.2859C36.7873 18.6684 37.8483 19.412 39.3505 19.412C41.3129 19.3643 43.0969 18.1058 43.0969 16.037Z" fill="#3B3B3B"/>
<path d="M49.6694 19.1259L57.4532 9.51572H49.6694V6.52209H61.6971V9.18203L53.9134 18.7922H61.6971V21.8335H49.6694V19.1259Z" fill="#3B3B3B"/>
<path d="M68.8612 1.97454C68.8257 2.51009 68.5912 3.01195 68.2051 3.37856C67.8189 3.74515 67.3101 3.94908 66.7814 3.94908C66.2528 3.94908 65.7439 3.74515 65.3578 3.37856C64.9717 3.01195 64.7371 2.51009 64.7017 1.97454C64.7371 1.43899 64.9717 0.937123 65.3578 0.570533C65.7439 0.203938 66.2528 0 66.7814 0C67.3101 0 67.8189 0.203938 68.2051 0.570533C68.5912 0.937123 68.8257 1.43899 68.8612 1.97454ZM68.448 21.8336H65.0866V6.57938H68.448V21.8336Z" fill="#3B3B3B"/>
<path d="M94.6253 11.966V21.8334H91.264V12.5666C91.264 10.2307 89.9401 9.24877 88.3721 9.24877C87.9438 9.24182 87.519 9.3262 87.1249 9.49644C86.7308 9.66667 86.3763 9.91906 86.0842 10.2371C85.7922 10.5552 85.5691 10.932 85.4295 11.3431C85.2899 11.7542 85.2367 12.1905 85.2736 12.6238V21.8334H81.9216V12.5666C81.9216 10.2307 80.5883 9.24877 79.0297 9.24877C78.6004 9.24221 78.1744 9.3266 77.779 9.49657C77.3836 9.66657 77.0273 9.91838 76.7332 10.2359C76.439 10.5535 76.2132 10.9299 76.0702 11.341C75.9273 11.7522 75.8704 12.189 75.9031 12.6238V21.8334H72.5417V6.5793H75.7904V8.31446C76.2711 7.63109 76.9091 7.07749 77.6489 6.70193C78.3885 6.32637 79.2076 6.14026 80.0344 6.15981C80.9148 6.13553 81.7857 6.35079 82.5567 6.78329C83.3277 7.21578 83.9707 7.84977 84.4192 8.61954C84.988 7.84691 85.7282 7.22146 86.5798 6.79406C87.4315 6.36666 88.3704 6.14935 89.3204 6.15981C91.9401 6.15981 94.6253 7.83776 94.6253 11.966Z" fill="#3B3B3B"/>
<path d="M108.418 21.8335V20.022C107.895 20.7083 107.219 21.2589 106.445 21.6285C105.671 21.9981 104.822 22.1761 103.968 22.1481C101.076 22.1481 98.4561 20.4129 98.4561 16.1894V6.52209H101.817V15.5602C101.817 17.9532 103.085 19.0591 104.879 19.0591C105.351 19.0791 105.822 18.996 106.26 18.8153C106.699 18.6347 107.093 18.3606 107.418 18.0118C107.742 17.663 107.99 17.2474 108.143 16.7933C108.296 16.3391 108.352 15.8568 108.306 15.379V6.52209H111.667V21.8335H108.418Z" fill="#3B3B3B"/>
<path d="M122.061 18.8209H123V21.8336H121.498C118.174 21.8336 116.549 20.3654 116.549 16.8378V9.43961H114.174V6.57947H116.587V2.53711H119.948V6.52226H123V9.38241H119.911V16.571C119.948 18.43 120.859 18.8209 122.061 18.8209Z" fill="#3B3B3B"/>
<path d="M37.8559 30.8907H38.8024V36.897H37.8559V34.2371H34.9997V36.897H34.0532V30.8907H34.9997V33.4477H37.8559V30.8907Z" fill="#3B3B3B"/>
<path d="M40.5565 36.1505C40.089 35.5842 39.8552 34.832 39.8552 33.8938C39.8552 32.9558 40.089 32.2036 40.5565 31.6372C41.0297 31.0709 41.7002 30.7877 42.5677 30.7877C43.4353 30.7877 44.1029 31.0709 44.5705 31.6372C45.0438 32.2036 45.2803 32.9558 45.2803 33.8938C45.2803 34.832 45.0438 35.5842 44.5705 36.1505C44.1029 36.7169 43.4353 37 42.5677 37C41.7002 37 41.0297 36.7169 40.5565 36.1505ZM41.2664 32.2207C40.9565 32.6497 40.8016 33.2075 40.8016 33.8938C40.8016 34.5803 40.9565 35.1409 41.2664 35.5757C41.5762 36.0047 42.01 36.2192 42.5677 36.2192C43.1255 36.2192 43.5592 36.0047 43.8691 35.5757C44.1789 35.1409 44.3339 34.5803 44.3339 33.8938C44.3339 33.2075 44.1789 32.6497 43.8691 32.2207C43.5592 31.786 43.1255 31.5686 42.5677 31.5686C42.01 31.5686 41.5762 31.786 41.2664 32.2207Z" fill="#3B3B3B"/>
<path d="M45.6113 31.6801V30.8907H50.2422V31.6801H48.4V36.897H47.4535V31.6801H45.6113Z" fill="#3B3B3B"/>
<path d="M51.1355 36.897V30.8907H55.234V31.6458H52.0819V33.482H54.5664V34.2028H52.0819V36.142H55.3522V36.897H51.1355Z" fill="#3B3B3B"/>
<path d="M56.4004 36.897V30.8907H57.3468V36.1076H60.1861V36.897H56.4004Z" fill="#3B3B3B"/>
<path d="M60.6238 35.0094L61.5111 34.975C61.5505 35.8216 62.052 36.245 63.0153 36.245C63.3927 36.245 63.7054 36.1734 63.9533 36.0304C64.2012 35.8875 64.3251 35.6614 64.3251 35.3526C64.3251 35.1352 64.2491 34.9578 64.0969 34.8206C63.9448 34.6775 63.6885 34.546 63.3279 34.4258L62.1026 34.0226C61.2576 33.748 60.8351 33.2218 60.8351 32.4438C60.8351 31.8947 61.0266 31.4828 61.4097 31.2082C61.7984 30.9279 62.2857 30.7877 62.8716 30.7877C63.5026 30.7877 64.0181 30.9479 64.418 31.2683C64.8237 31.5829 65.0462 32.0233 65.0856 32.5896L64.2068 32.6497C64.1843 32.3123 64.0575 32.0433 63.8265 31.8432C63.6012 31.643 63.28 31.5428 62.8632 31.5428C62.5195 31.5428 62.2519 31.6172 62.0603 31.766C61.8744 31.909 61.7815 32.112 61.7815 32.3752C61.7815 32.7813 62.0717 33.0787 62.6519 33.2675L63.8773 33.6623C64.3448 33.8109 64.6941 34.014 64.9251 34.2715C65.1561 34.5289 65.2715 34.8664 65.2715 35.2839C65.2715 35.856 65.0687 36.285 64.6631 36.571C64.2575 36.8571 63.7054 37 63.0069 37C62.2576 37 61.6801 36.8313 61.2745 36.4937C60.8689 36.1506 60.6519 35.6558 60.6238 35.0094Z" fill="#3B3B3B"/>
</g>
<defs>
<clipPath id="clip0_202_157">
<rect width="123" height="37" fill="white"/>
</clipPath>
</defs>
</svg>
