<svg width="115" height="62" viewBox="0 0 115 62" fill="none" xmlns="http://www.w3.org/2000/svg">
<g clip-path="url(#clip0_202_373)">
<path d="M4.82031 13.7232L8.46388 0.226807H14.4985C16.2444 0.226807 17.4969 0.642659 18.256 1.51217C19.053 2.38168 19.2428 3.51583 18.8632 4.91463C18.4457 6.42682 17.5728 7.59878 16.2444 8.43048C14.916 9.26219 13.3599 9.67804 11.652 9.67804H9.185L8.08434 13.7232H4.82031ZM9.86817 7.06947H12.449C13.2461 7.06947 13.9292 6.88045 14.4985 6.5024C15.0678 6.12435 15.4094 5.63288 15.5992 4.9902C15.789 4.34752 15.6751 3.81825 15.2956 3.47802C14.916 3.13777 14.3467 2.94875 13.5117 2.94875H11.0068L9.86817 7.06947Z" fill="#00833E"/>
<path d="M31.6916 11.9463C29.8318 13.3073 27.7823 13.9878 25.5431 13.9878C23.3038 13.9878 21.6338 13.3073 20.4952 11.9463C19.3945 10.5854 19.0909 8.95976 19.6223 6.9939C20.1536 5.06585 21.3302 3.40244 23.1899 2.04146C25.0497 0.680484 27.0992 0 29.3384 0C31.5777 0 33.2477 0.680484 34.3863 2.04146C35.487 3.40244 35.7906 5.02805 35.2592 6.9939C34.7279 8.92195 33.5513 10.5854 31.6916 11.9463ZM23.4556 10.0183C24.0629 10.85 25.0117 11.2659 26.3401 11.2659C27.6305 11.2659 28.8071 10.85 29.8318 10.0561C30.8945 9.22439 31.5777 8.24146 31.8813 7.03171C32.185 5.85976 32.0332 4.83903 31.4259 4.00732C30.8186 3.17561 29.8318 2.75975 28.5414 2.75975C27.251 2.75975 26.0744 3.17561 25.0497 3.96951C23.987 4.80122 23.3038 5.78415 23.0002 6.9939C22.6586 8.16585 22.8104 9.18659 23.4556 10.0183Z" fill="#00833E"/>
<path d="M35.373 13.7232L39.0165 0.226807H42.0149L46.6832 8.5439L48.9225 0.226807H52.1106L48.467 13.7232H45.6964L40.8763 5.14146L38.5611 13.7232H35.373Z" fill="#00833E"/>
<path d="M55.6024 13.7232L57.0446 8.39264L53.5908 0.226807H57.3862L59.4357 5.63292L64.4836 0.226807H68.1651L60.3086 8.35487L58.8664 13.7232H55.6024Z" fill="#00833E"/>
<path d="M0 31.7183L3.64357 18.2219H14.764L14.0429 20.8683H6.11056L5.38944 23.5903H12.335L11.6139 26.2366H4.66832L3.90924 29.072H11.9175L11.1964 31.7183H0Z" fill="#00833E"/>
<path d="M12.373 31.7183L19.3565 24.8378L16.2064 18.2219H20.0018L21.8994 22.6073L26.1882 18.2219H29.8697L23.1519 24.8L26.4159 31.7183H22.6206L20.5711 27.1061L16.0166 31.7183H12.373Z" fill="#00833E"/>
<path d="M28.2375 31.7183L31.8811 18.2219H37.9157C39.6617 18.2219 40.9142 18.6378 41.7112 19.5073C42.5082 20.3768 42.698 21.511 42.3184 22.9098C41.901 24.422 41.028 25.5939 39.6996 26.4256C38.3712 27.2573 36.8151 27.6731 35.1072 27.6731H32.6402L31.5395 31.7183H28.2375ZM33.2854 25.0268H35.8663C36.6633 25.0268 37.3465 24.8378 37.9157 24.4597C38.4851 24.0817 38.8267 23.5902 39.0165 22.9475C39.2062 22.3049 39.0924 21.7756 38.7128 21.4353C38.3333 21.0951 37.7639 20.9061 36.929 20.9061H34.424L33.2854 25.0268Z" fill="#00833E"/>
<path d="M41.6733 31.7183L45.3169 18.2219H52.0347C53.8945 18.2219 55.2228 18.6756 55.944 19.5829C56.5892 20.339 56.703 21.3976 56.3615 22.7207C55.7922 24.8 54.3879 26.1988 52.0727 26.917L54.3879 31.7183H50.5925L48.543 27.4085H46.038L44.8615 31.7183H41.6733ZM46.7591 24.8H50.0611C50.8582 24.8 51.5034 24.6109 52.0347 24.2707C52.5661 23.9305 52.9077 23.439 53.0595 22.872C53.2113 22.2293 53.1354 21.7756 52.7558 21.4353C52.3763 21.0951 51.807 20.9439 51.01 20.9439H47.7839L46.7591 24.8Z" fill="#00833E"/>
<path d="M56.2854 31.7183L59.929 18.2219H71.0494L70.3283 20.8683H62.4339L61.7128 23.5903H68.6583L67.9372 26.2366H60.9917L60.2326 29.072H68.2408L67.5197 31.7183H56.2854Z" fill="#00833E"/>
<path d="M74.9588 31.9072C72.5298 31.9072 70.67 31.1889 69.3037 29.7524L71.7707 27.6353C72.9093 28.7316 74.2377 29.2609 75.7179 29.2609C76.3631 29.2609 76.9324 29.1475 77.3879 28.9207C77.8433 28.6938 78.109 28.3536 78.2229 27.9377C78.3367 27.5597 78.2228 27.2572 77.8813 26.9926C77.5397 26.7658 76.8186 26.5011 75.7179 26.1987C74.9209 26.0097 74.3136 25.8207 73.8202 25.6316C73.3648 25.4426 72.9093 25.2158 72.5298 24.8755C72.1502 24.5731 71.8846 24.195 71.8087 23.7036C71.7328 23.2499 71.7707 22.6828 71.9225 22.0024C72.2641 20.7926 72.9852 19.8097 74.1618 19.0536C75.3384 18.2975 76.6667 17.9194 78.1849 17.9194C80.2724 17.9194 81.9423 18.4865 83.1948 19.6207L80.9176 21.8511C79.779 20.9816 78.6024 20.528 77.4638 20.528C76.8565 20.528 76.3631 20.6414 75.9836 20.8682C75.604 21.095 75.3384 21.3975 75.2625 21.7377C75.1486 22.1914 75.2625 22.4938 75.604 22.7207C75.9456 22.9475 76.7427 23.2121 77.9572 23.5146C79.4374 23.8926 80.5001 24.3841 81.1073 24.9889C81.7146 25.5938 81.8664 26.4633 81.5628 27.5975C81.2212 28.9207 80.4242 29.9414 79.2476 30.6597C77.9951 31.567 76.5908 31.9072 74.9588 31.9072Z" fill="#00833E"/>
<path d="M87.5973 31.9072C85.1682 31.9072 83.3085 31.1889 81.9421 29.7524L84.4091 27.6353C85.5477 28.7316 86.8761 29.2609 88.3563 29.2609C89.0015 29.2609 89.5709 29.1475 90.0263 28.9207C90.4817 28.6938 90.7474 28.3536 90.8613 27.9377C90.9751 27.5597 90.8613 27.2572 90.5197 26.9926C90.1781 26.7658 89.457 26.5011 88.3563 26.1987C87.5593 26.0097 86.952 25.8207 86.4586 25.6316C86.0032 25.4426 85.5477 25.2158 85.1682 24.8755C84.7887 24.5731 84.523 24.195 84.4471 23.7036C84.3712 23.2499 84.4091 22.6828 84.561 22.0024C84.9025 20.7926 85.6237 19.8097 86.8002 19.0536C87.9768 18.2975 89.3052 17.9194 90.8233 17.9194C92.9108 17.9194 94.5808 18.4865 95.8332 19.6207L93.556 21.8511C92.4174 20.9816 91.2408 20.528 90.1022 20.528C89.4949 20.528 89.0015 20.6414 88.622 20.8682C88.2425 21.095 87.9768 21.3975 87.9009 21.7377C87.787 22.1914 87.9009 22.4938 88.2425 22.7207C88.5841 22.9475 89.3811 23.2121 90.5956 23.5146C92.0758 23.8926 93.1385 24.3841 93.7458 24.9889C94.353 25.5938 94.5048 26.4633 94.2012 27.5975C93.8596 28.9207 93.0626 29.9414 91.886 30.6597C90.6336 31.567 89.2293 31.9072 87.5973 31.9072Z" fill="#00833E"/>
<path d="M68.203 41.0939L66.3433 48.0122H98.0347L89.0776 56.9341L93.9736 61.8109L114.734 41.0939H68.203Z" fill="#76BC21"/>
</g>
<defs>
<clipPath id="clip0_202_373">
<rect width="115" height="62" fill="white"/>
</clipPath>
</defs>
</svg>
