<svg width="148" height="27" viewBox="0 0 148 27" fill="none" xmlns="http://www.w3.org/2000/svg">
<path d="M14.7514 0.343628V13.9909C14.7514 14.6291 14.2646 15.0709 13.6804 15.0709H12.0738C11.9764 15.0709 11.9277 15.1691 11.9277 15.2182V26.6564C12.3172 26.6564 12.7067 26.7545 13.1448 26.7545C20.3988 26.7545 26.2896 20.8145 26.2896 13.5C26.2896 6.77454 21.2751 1.12908 14.7514 0.343628ZM14.4593 20.7654C13.5343 20.7654 12.8527 19.98 12.8527 19.1454C12.8527 18.2127 13.6317 17.5254 14.4593 17.5254C15.3843 17.5254 16.0659 18.3109 16.0659 19.1454C16.1633 20.0291 15.3843 20.7654 14.4593 20.7654ZM18.3054 20.7654C17.3804 20.7654 16.6988 19.98 16.6988 19.1454C16.6988 18.2127 17.4777 17.5254 18.3054 17.5254C19.2304 17.5254 19.9119 18.3109 19.9119 19.1454C19.9119 19.98 19.279 20.7654 18.3054 20.7654ZM22.2001 20.7654C21.2751 20.7654 20.5935 19.98 20.5935 19.1454C20.5935 18.2127 21.3725 17.5254 22.2001 17.5254C23.1251 17.5254 23.8067 18.3109 23.8067 19.1454C23.8067 19.98 23.1251 20.7654 22.2001 20.7654Z" fill="#00B956"/>
<path d="M13.1447 0.294556C5.89079 0.294556 0 6.23456 0 13.5491C0 19.98 4.43026 25.2327 10.3697 26.46V14.5309C10.3697 13.9909 10.8566 13.5491 11.3434 13.4509H12.95C13.0474 13.4509 13.0961 13.3527 13.0961 13.3036L13.1447 0.294556ZM10.6132 11.1927C9.68816 11.1927 9.00658 10.4073 9.00658 9.57274C9.00658 8.64001 9.78553 7.95274 10.6132 7.95274C11.5382 7.95274 12.2197 8.73819 12.2197 9.57274C12.2197 10.4073 11.4895 11.1927 10.6132 11.1927Z" fill="#00B956"/>
<path d="M144.738 7.51092V12.5182H138.117V7.51092H134.758V20.7655H138.117V15.4146H144.738V20.7655H148V7.51092H144.738ZM90.0172 9.03274C89.4817 7.85456 88.4106 7.21638 87.3396 7.21638C86.2685 7.21638 85.1488 7.85456 84.662 9.03274L79.3554 20.8146H82.8606L84.0291 18.0164H90.8449L92.0133 20.8146H95.5185L90.0172 9.03274ZM84.9541 15.3655L86.9501 10.5055C87.0475 10.3582 87.0962 10.3582 87.1935 10.3582C87.2909 10.3582 87.437 10.3582 87.437 10.5055L89.433 15.3655H84.9541ZM50.8751 5.15456C49.3172 5.15456 48.3435 5.98911 47.6133 7.6582L43.3777 17.6237L39.0935 7.60911C38.412 5.98911 37.3896 5.10547 35.8317 5.10547C34.3712 5.10547 32.9106 6.08729 32.9106 8.39456V20.7164H36.1725V8.83638L40.5054 18.7037C41.0409 20.1273 42.0633 20.9618 43.3777 20.9618C44.7896 20.9618 45.7146 20.1273 46.2501 18.7037L50.583 8.83638V20.8637H53.8449V8.54183C53.7962 6.23456 52.3356 5.15456 50.8751 5.15456ZM59.5896 17.9673C59.4435 17.9673 59.2488 17.82 59.2488 17.6237V15.2673H67.4277V12.5673H59.2488V10.5546C59.2488 10.4073 59.3949 10.2109 59.5896 10.2109H67.7199V7.41274H57.983C56.8146 7.41274 56.0356 8.34547 56.0356 9.37638V18.6546C56.0356 19.6364 56.8633 20.6182 57.983 20.6182H67.7199V17.82H59.5896V17.9673ZM73.2212 20.7655V10.6527C73.2212 10.5055 73.3672 10.3091 73.562 10.3091H81.6922V7.51092H71.9554C70.787 7.51092 70.008 8.44365 70.008 9.47456V20.7164L73.2212 20.7655ZM132.616 14.1873C132.616 9.57274 130.62 7.41274 125.654 7.41274H124.486C119.52 7.41274 117.524 9.62183 117.524 14.1873C117.524 18.7037 119.52 20.9618 124.486 20.9618H125.557C130.62 20.8637 132.616 18.7037 132.616 14.1873ZM125.557 18.1637H124.486C121.808 18.1637 120.688 16.9364 120.688 14.1873C120.688 11.5364 121.613 10.2109 124.486 10.2109H125.557C128.332 10.2109 129.354 11.5364 129.354 14.1873C129.354 16.8873 128.332 18.1637 125.557 18.1637ZM108.42 5.44911H101.896C97.0278 5.44911 95.0804 7.95274 95.0804 12.2237C95.0804 12.9109 95.1777 13.5491 95.2264 14.0891C95.762 17.1327 97.5633 18.9982 102.091 18.9982H103.551V20.7164H106.813V18.9982H108.225C112.801 18.9982 114.603 17.1327 115.09 14.0891C115.187 13.5491 115.236 12.9109 115.236 12.2237C115.187 7.95274 113.191 5.44911 108.42 5.44911ZM103.454 16.2491H101.994C99.7541 16.2491 98.9751 15.4146 98.4883 14.04C98.3422 13.5491 98.3422 12.8618 98.3422 12.1746C98.3422 9.37638 99.6567 8.1982 101.507 8.1982H103.503V16.2491H103.454ZM111.828 14.1873C111.341 15.5127 110.513 16.3964 108.322 16.3964H106.862V8.29638H108.858C110.708 8.29638 112.022 9.47456 112.022 12.2727C111.974 13.0091 111.974 13.5982 111.828 14.1873Z" fill="#00B956"/>
</svg>
