<svg width="150" height="36" viewBox="0 0 150 36" fill="none" xmlns="http://www.w3.org/2000/svg">
<g clip-path="url(#clip0_202_342)">
<path fill-rule="evenodd" clip-rule="evenodd" d="M0 1.24345C0 0.612179 0.513179 0.0963669 1.1407 0.0963669H35.0739C35.7015 0.0963669 36.2147 0.612179 36.2147 1.24345V34.8535C36.2147 35.4839 35.7015 36 35.0739 36H1.1407C0.513179 36 0 35.4839 0 34.8535V1.24345Z" fill="#13366D"/>
<path d="M15.5015 7.09497C15.6188 7.09497 15.6735 7.00928 15.6229 6.90421L15.3631 6.36368C15.3129 6.2586 15.1761 6.17291 15.0587 6.17291H5.48126C5.36414 6.17291 5.30933 6.2586 5.35992 6.36368L5.6196 6.90421C5.67022 7.00928 5.80726 7.09497 5.92423 7.09497H15.5015Z" fill="white"/>
<path d="M16.2443 8.19798C16.1943 8.09353 16.0572 8.00736 15.9399 8.00736H6.36252C6.24551 8.00736 6.19062 8.09353 6.24132 8.19798L6.50089 8.73902C6.55136 8.84361 6.68829 8.92944 6.80541 8.92944H16.3828C16.5001 8.92944 16.5547 8.84361 16.5044 8.73902L16.2443 8.19798Z" fill="white"/>
<path d="M17.1304 10.0415C17.0796 9.93662 16.9427 9.85102 16.8257 9.85102H7.24829C7.13108 9.85102 7.07673 9.93662 7.12675 10.0415L7.38677 10.5825C7.43693 10.6873 7.57375 10.7731 7.69106 10.7731H17.2688C17.3857 10.7731 17.4405 10.6873 17.3898 10.5825L17.1304 10.0415Z" fill="white"/>
<path d="M18.0155 11.8849C17.9655 11.7801 17.8285 11.6945 17.7111 11.6945H8.13341C8.01661 11.6945 7.96194 11.7801 8.01196 11.8849L8.27255 12.4262C8.32268 12.5311 8.45972 12.6167 8.5765 12.6167H18.1541C18.2713 12.6167 18.3262 12.5311 18.2755 12.4262L18.0155 11.8849Z" fill="white"/>
<path d="M18.9016 13.7288C18.8513 13.624 18.7141 13.5381 18.5972 13.5381H9.01947C8.90269 13.5381 8.84791 13.624 8.89793 13.7288L9.15818 14.2696C9.20842 14.3747 9.34512 14.4603 9.46258 14.4603H19.0401C19.1569 14.4603 19.2116 14.3747 19.1616 14.2696L18.9016 13.7288Z" fill="white"/>
<path d="M19.7873 15.5733C19.7366 15.4682 19.6 15.3826 19.4827 15.3826H9.90516C9.78815 15.3826 9.73369 15.4682 9.78373 15.5733L10.0438 16.1141C10.0945 16.2191 10.2312 16.3047 10.3482 16.3047H19.9259C20.0432 16.3047 20.0973 16.2191 20.0472 16.1141L19.7873 15.5733Z" fill="white"/>
<path d="M20.6728 17.416C20.6226 17.3115 20.4854 17.2254 20.3684 17.2254H10.7909C10.6736 17.2254 10.6191 17.3115 10.6693 17.416L10.9293 17.9574C10.9798 18.0623 11.1169 18.1478 11.2337 18.1478H20.8112C20.9286 18.1478 20.983 18.0623 20.9329 17.9574L20.6728 17.416Z" fill="white"/>
<path fill-rule="evenodd" clip-rule="evenodd" d="M30.3868 18.1482C31.6696 18.1482 32.711 17.1153 32.711 15.8427C32.711 14.5706 31.6696 13.5382 30.3868 13.5382C29.1019 13.5382 28.062 14.5706 28.062 15.8427C28.062 17.1153 29.1019 18.1482 30.3868 18.1482Z" fill="#ED1834"/>
<path d="M17.9324 5.25C18.0492 5.25 18.1449 5.15504 18.1449 5.03901V4.53922C18.1449 4.42319 18.0492 4.32823 17.9324 4.32823H3.07225C2.95513 4.32823 2.85938 4.42319 2.85938 4.53922V5.03901C2.85938 5.15504 2.95513 5.25 3.07225 5.25H17.9324Z" fill="white"/>
<path d="M11.5896 19.0691C11.4728 19.0691 11.4186 19.1545 11.4691 19.2593L17.5215 31.6905C17.5726 31.7954 17.6951 31.7957 17.7457 31.6905L23.2745 20.183C23.3246 20.078 23.4615 19.9924 23.5789 19.9924H32.4982C32.6152 19.9924 32.711 19.8974 32.711 19.7813V19.2801C32.711 19.164 32.6152 19.0691 32.4982 19.0691H11.5896Z" fill="white"/>
<path d="M32.4981 4.32705L24.8373 4.32733C24.72 4.32733 24.6244 4.42257 24.6244 4.5386V5.0384C24.6244 5.15443 24.72 5.24967 24.8373 5.24967H25.973C26.2553 5.26652 27.8865 5.27439 27.265 7.16289L22.173 17.9574C22.1233 18.0628 22.1787 18.1489 22.296 18.1489H24.0372C24.1541 18.1489 24.2916 18.0631 24.3416 17.9583L29.8403 6.55942C30.092 6.04586 30.3946 5.69749 30.7469 5.51881C31.0997 5.34069 31.5599 5.24854 32.1589 5.24854H32.4981C32.6155 5.24883 32.711 5.15387 32.711 5.03756V4.53804C32.711 4.42201 32.6155 4.32705 32.4981 4.32705Z" fill="white"/>
<path d="M70.0829 11.5816H68.5696C68.5005 11.5868 68.4455 11.6415 68.4404 11.7103V15.0639H64.0013V11.7082C63.9948 11.6405 63.9404 11.5868 63.8721 11.5816H62.3583C62.288 11.5868 62.2325 11.6427 62.2285 11.7129V19.8604C62.2325 19.9317 62.29 19.9882 62.3623 19.9921H63.8679C63.9384 19.9888 63.9945 19.9339 64.0013 19.8648V16.4258H68.4404V19.8631C68.4455 19.9333 68.5025 19.9888 68.5733 19.9921H70.0789C70.1512 19.9882 70.2093 19.9309 70.2127 19.8591V11.7141C70.2093 11.6438 70.1537 11.5868 70.0829 11.5816Z" fill="#13366D"/>
<path d="M48.4523 18.4105C48.2194 18.6311 47.9196 18.6311 47.6294 18.6311L44.9387 18.6313C44.7625 18.6318 44.4961 18.6324 44.3961 18.5013C44.3833 18.4824 44.3454 18.4288 44.3454 18.0742L44.3451 16.4258H47.6291C47.9213 16.4258 48.2248 16.4419 48.4407 16.6357C48.6768 16.8486 48.6969 17.1636 48.6969 17.4933V17.5245C48.6975 17.7734 48.6983 18.1781 48.4523 18.4105ZM50.0554 15.7024C49.6998 15.2727 49.1767 15.0642 48.4557 15.0642H44.3451V13.3939C44.3451 13.2957 44.3451 13.1132 44.4496 13.0243C44.5463 12.9531 44.7274 12.9436 44.8739 12.9436H49.0863C49.1599 12.9401 49.2192 12.8808 49.2211 12.8065V11.7191C49.2192 11.6444 49.1591 11.5841 49.0834 11.5818H43.8222C43.3363 11.5818 43.0478 11.7584 42.8919 11.9058C42.6057 12.1895 42.5723 12.5799 42.5723 12.8493V18.8316C42.5723 19.0772 42.6012 19.3913 42.8256 19.6409C43.0396 19.8745 43.3493 19.9927 43.7469 19.9927H48.4807C49.3688 19.9927 49.831 19.6393 50.0274 19.4286C50.3538 19.0736 50.519 18.4341 50.519 17.5285C50.519 16.6782 50.3674 16.0884 50.0554 15.7024Z" fill="#13366D"/>
<path d="M54.5289 16.4259L55.8945 13.1348C55.8945 13.1348 55.9979 12.8484 56.1291 12.8484C56.2657 12.8484 56.3663 13.1353 56.3663 13.1353L57.7299 16.4259H54.5289ZM60.8677 19.802L60.8632 19.7918L57.7166 12.4586C57.3828 11.7414 56.943 11.4868 56.1291 11.4868C55.2946 11.4868 54.8871 11.7232 54.5442 12.4582L51.3962 19.7889L51.3888 19.8044C51.3828 19.8196 51.3792 19.8355 51.3792 19.8522C51.3792 19.9277 51.4412 19.9886 51.5194 19.9927H52.9533C53.0083 19.9899 53.0548 19.9587 53.0777 19.914C53.08 19.9093 53.082 19.9047 53.0839 19.8994L53.9627 17.7869H58.2953L59.1746 19.9032C59.1763 19.9058 59.1774 19.9085 59.1791 19.9115C59.2012 19.9576 59.2485 19.9899 59.3046 19.9927H60.7383C60.8159 19.9886 60.8785 19.9277 60.8785 19.8522C60.8785 19.8346 60.874 19.818 60.8677 19.802Z" fill="#13366D"/>
<path d="M80.0345 19.7584L76.0434 16.3935C75.8544 16.2323 75.5007 15.9317 75.5007 15.6807C75.5007 15.5098 75.7144 15.2933 75.9448 15.0845L79.5834 11.8134C79.6049 11.7886 79.6191 11.7568 79.6191 11.7212C79.6191 11.6471 79.5615 11.5874 79.4881 11.5816H77.6663C77.638 11.5839 77.6122 11.594 77.5904 11.6105L74.1584 14.7015C74.0113 14.8408 73.907 14.977 73.8331 15.1036V11.7088C73.8271 11.641 73.7727 11.5872 73.7039 11.5816H72.1903C72.1201 11.5874 72.0651 11.6433 72.0605 11.7135V19.8607C72.0651 19.931 72.1201 19.9864 72.1903 19.9925H73.7039C73.7727 19.9866 73.8271 19.9332 73.8331 19.8654V16.2568C73.9266 16.42 74.0688 16.6016 74.2851 16.7909L78.0052 19.9656C78.0268 19.9811 78.0526 19.9908 78.0806 19.9927H79.939C80.0127 19.988 80.0719 19.9274 80.0719 19.8525C80.0719 19.8163 80.0577 19.7836 80.0345 19.7584Z" fill="#13366D"/>
<path d="M141.213 1.64829C141.213 1.47327 141.213 1.06478 141.03 0.718656C140.81 0.30567 140.401 0.0960855 139.814 0.0960855C139.15 0.0960855 138.753 0.345282 138.299 1.04736L134.761 6.49259C134.713 6.56928 134.662 6.65891 134.614 6.65891C134.583 6.65891 134.57 6.64964 134.563 6.64233C134.522 6.60244 134.523 6.48275 134.523 6.3774L134.527 0.223353C134.52 0.155646 134.466 0.101985 134.397 0.0960855H132.883C132.813 0.101985 132.758 0.157891 132.753 0.227846L132.754 7.02582C132.754 7.46887 132.754 8.50647 134.103 8.50647C135.02 8.50647 135.295 8.08045 135.539 7.70401C135.544 7.69755 139.164 2.18742 139.164 2.18742C139.237 2.07392 139.327 1.93261 139.377 1.93261C139.407 1.93261 139.443 1.95677 139.443 2.14556L139.44 8.37476C139.445 8.445 139.5 8.50088 139.57 8.50647H141.084C141.153 8.50088 141.207 8.44753 141.213 8.37948L141.213 1.64829Z" fill="#13366D"/>
<path d="M48.4481 6.869C48.2052 7.14488 47.7487 7.14488 47.5291 7.14488L44.8968 7.14516C44.7718 7.14573 44.5395 7.14713 44.4284 7.03306C44.3737 6.97041 44.3451 6.82039 44.3451 6.58833C44.3451 6.58833 44.3451 5.05045 44.3451 4.94004C44.4601 4.94004 47.6416 4.94004 47.6416 4.94004C48.1596 4.94004 48.3914 5.14064 48.4832 5.26004C48.598 5.41849 48.6589 5.69859 48.6589 6.06691C48.6589 6.32341 48.6227 6.67121 48.4481 6.869ZM44.3451 3.57859C44.3451 3.4679 44.3451 1.86063 44.3451 1.86063C44.3451 1.71426 44.3788 1.60104 44.442 1.53389C44.5148 1.45607 44.6174 1.45692 44.7359 1.45804H47.4789C47.7507 1.45804 48.0318 1.45804 48.2531 1.65582C48.4909 1.87046 48.5212 2.2208 48.5212 2.5009C48.5212 3.02795 48.4127 3.2291 48.3481 3.30299C48.1378 3.5786 47.8091 3.57859 47.4911 3.57859C47.4911 3.57859 44.4601 3.57859 44.3451 3.57859ZM50.0517 4.65152C49.8536 4.44249 49.572 4.29809 49.2608 4.23179C49.5116 4.17363 49.7168 4.04524 49.9157 3.81936C50.3113 3.37295 50.3436 2.9077 50.3436 2.4301C50.3436 1.88591 50.2847 1.10574 49.7746 0.610715C49.3053 0.155025 48.6558 0.0965919 48.1423 0.0965919H43.8347C43.404 0.0965919 43.0775 0.218801 42.8627 0.459849C42.6811 0.666342 42.5723 0.999821 42.5723 1.35184V7.27496C42.5723 7.74385 42.7709 8.02836 42.8891 8.15599C43.2221 8.51627 43.6001 8.50675 43.9917 8.50675L48.3177 8.50684C48.8723 8.50684 49.4459 8.50684 49.9644 7.95495C50.4816 7.40504 50.4816 6.72234 50.4816 6.17338C50.4816 5.71825 50.4816 5.09541 50.0517 4.65152Z" fill="#13366D"/>
<path d="M54.116 2.04159C54.6947 1.36367 55.6219 1.36367 56.2997 1.36367C57.1246 1.36367 57.9739 1.41593 58.495 2.04131C58.862 2.47789 59.0326 3.19654 59.0326 4.30149C59.0326 5.38059 58.8569 6.1161 58.495 6.55016C57.9297 7.23987 56.9486 7.23987 56.2997 7.23987C55.2492 7.23987 54.5904 7.12974 54.1169 6.55072L54.1166 6.55016C53.736 6.0911 53.5665 5.39773 53.5665 4.30149C53.5665 3.17322 53.7309 2.49728 54.116 2.04159ZM59.847 0.894496L59.8467 0.894218C58.8776 0.00166321 57.3338 0.00166321 56.3119 0.00166321C55.2402 0.00166321 53.772 0.00166321 52.7779 0.893656C51.8241 1.74856 51.7441 3.10102 51.7441 4.30149C51.7441 5.22411 51.7441 6.76789 52.7779 7.70961C53.759 8.60168 55.2954 8.60168 56.3119 8.60168C57.3389 8.60168 58.8906 8.60168 59.847 7.70904C60.8553 6.76789 60.8553 5.03953 60.8553 4.30149C60.8553 3.153 60.7408 1.72777 59.847 0.894496Z" fill="#13366D"/>
<path d="M82.7681 2.04159C83.346 1.36367 84.274 1.36367 84.9513 1.36367C85.7762 1.36367 86.6252 1.41593 87.1466 2.04131C87.5136 2.47789 87.6845 3.19654 87.6845 4.30149C87.6845 5.38059 87.5088 6.1161 87.1466 6.55016C86.5818 7.23987 85.6002 7.23987 84.9513 7.23987C83.9011 7.23987 83.242 7.12974 82.7687 6.55072V6.55016C82.3881 6.09138 82.2184 5.39773 82.2184 4.30149C82.2184 3.17322 82.3825 2.49728 82.7681 2.04159ZM88.4989 0.894496V0.894218C87.5297 0.00166321 85.9859 0.00166321 84.9635 0.00166321C83.8917 0.00166321 82.4238 0.00166321 81.4298 0.893656C80.4759 1.74856 80.396 3.10102 80.396 4.30149C80.396 5.22411 80.396 6.76789 81.4295 7.70961C82.4108 8.60168 83.947 8.60168 84.9635 8.60168C85.9904 8.60168 87.5422 8.60168 88.4989 7.70904C89.5071 6.76817 89.5071 5.03953 89.5071 4.30149C89.5071 3.153 89.3924 1.72777 88.4989 0.894496Z" fill="#13366D"/>
<path d="M121.243 7.14548H116.637C116.412 7.14548 116.203 7.13874 116.114 7.0553C116.051 7.00501 116.008 6.88982 116.008 6.77857V4.94008H120.257C120.331 4.93643 120.39 4.87715 120.392 4.80298V3.71602C120.39 3.64128 120.33 3.58088 120.254 3.57863H116.008V1.92023C116.008 1.80532 116.008 1.66289 116.125 1.56203C116.232 1.47072 116.386 1.45808 116.536 1.45808L121.195 1.45836C121.269 1.45471 121.328 1.39543 121.33 1.32126V0.233732C121.328 0.158721 121.268 0.0985985 121.193 0.0963507L115.647 0.096632C115.249 0.096632 114.841 0.137369 114.552 0.434325C114.356 0.644752 114.235 0.991154 114.235 1.34008V7.21572C114.235 7.58066 114.277 7.9562 114.58 8.23099C114.885 8.50699 115.243 8.50699 115.622 8.50699L121.245 8.50732C121.319 8.50359 121.378 8.44389 121.38 8.37014V7.28258C121.378 7.20757 121.318 7.14773 121.243 7.14548Z" fill="#13366D"/>
<path d="M149.864 7.14548H145.258C145.033 7.14548 144.824 7.13874 144.736 7.0553C144.672 7.00501 144.629 6.88982 144.629 6.77857V4.94008H148.878C148.952 4.93643 149.011 4.87715 149.013 4.80298V3.71602C149.011 3.64128 148.951 3.58088 148.875 3.57863H144.629V1.92023C144.629 1.80532 144.629 1.66289 144.746 1.56203C144.853 1.47072 145.007 1.45808 145.157 1.45808L149.816 1.45836C149.89 1.45471 149.949 1.39543 149.951 1.32126V0.233732C149.949 0.158721 149.889 0.0985985 149.814 0.0963507L144.269 0.096632C143.87 0.096632 143.463 0.137369 143.174 0.434325C142.977 0.644752 142.856 0.991154 142.856 1.34008V7.21572C142.856 7.58066 142.898 7.9562 143.201 8.23099C143.507 8.50699 143.864 8.50699 144.244 8.50699L149.866 8.50732C149.941 8.50359 150 8.44389 150.001 8.37014V7.28258C150 7.20757 149.939 7.14773 149.864 7.14548Z" fill="#13366D"/>
<path d="M130.901 0.0966482H129.388C129.319 0.101986 129.264 0.156487 129.259 0.225319V3.57865H124.819V0.223353C124.813 0.155646 124.759 0.101986 124.69 0.0966482H123.176C123.106 0.101986 123.051 0.157611 123.047 0.227846V8.37457C123.051 8.44598 123.108 8.50262 123.181 8.50647H124.686C124.757 8.50296 124.813 8.44829 124.819 8.37917V4.9401H129.259V8.3774C129.264 8.44753 129.32 8.50296 129.391 8.50647H130.897C130.969 8.50262 131.027 8.44534 131.031 8.37336V0.229252C131.027 0.158735 130.972 0.101986 130.901 0.0966482Z" fill="#13366D"/>
<path d="M76.9659 3.91887C76.6953 4.20796 76.2903 4.20796 75.9324 4.20796C75.9324 4.20796 72.9637 4.20796 72.8484 4.20796C72.8484 4.0953 72.8484 1.89665 72.8484 1.89665C72.8484 1.75758 72.8484 1.63762 72.9431 1.54828C73.0403 1.45613 73.1581 1.45697 73.2616 1.4581H75.9579C76.1855 1.4581 76.6598 1.4581 76.9429 1.72555C77.207 1.98683 77.2379 2.47651 77.2379 2.82095C77.2379 3.01958 77.2379 3.62444 76.9659 3.91887ZM78.3771 0.609368C77.8217 0.0960865 77.0546 0.0960855 76.5961 0.0960855H72.4259C71.9719 0.0960855 71.6347 0.205934 71.395 0.432373C71.0767 0.733825 71.0767 1.08725 71.0767 1.39882V6.35437H71.0762V8.37476C71.0804 8.445 71.1357 8.50088 71.206 8.50647H72.7198C72.7881 8.50119 72.8427 8.44753 72.849 8.37948V6.88113C72.849 6.88113 72.849 6.88113 72.8484 6.88113C72.8484 6.2403 72.8484 5.62251 72.8484 5.56941C72.9649 5.56941 76.8967 5.56941 76.8967 5.56941C77.4184 5.56941 77.9333 5.41405 78.2734 5.1539C78.803 4.744 79.0603 3.9849 79.0603 2.83275C79.0603 2.086 78.983 1.15805 78.3771 0.609368Z" fill="#13366D"/>
<path d="M102.27 8.27382L98.8337 4.91032C98.631 4.71815 98.3893 4.4344 98.3893 4.17144C98.3893 3.94781 98.5639 3.77025 98.7356 3.59579L101.837 0.320276C101.855 0.296677 101.866 0.267459 101.866 0.235431C101.866 0.163509 101.811 0.104513 101.74 0.0966473H99.9275C99.8975 0.0994568 99.8711 0.112098 99.8496 0.13064C99.8428 0.138506 97.107 3.19657 97.1068 3.19685C96.9832 3.33873 96.8852 3.4747 96.8112 3.60618V0.223352C96.805 0.155645 96.7503 0.101985 96.6817 0.0963659H95.1682C95.0979 0.101985 95.0426 0.158172 95.0384 0.227845V3.60674C94.9644 3.47498 94.8664 3.33901 94.7425 3.19685C94.7423 3.19657 92.0074 0.138506 91.9995 0.13064C91.9785 0.112098 91.9518 0.0994568 91.9221 0.0966473H90.1093C90.0385 0.104513 89.9832 0.163509 89.9832 0.235431C89.9832 0.267459 89.9946 0.296677 90.0127 0.320276L93.1137 3.59579C93.2854 3.77025 93.4608 3.94781 93.4608 4.17144C93.4608 4.4344 93.2185 4.71815 93.0156 4.91032L89.5797 8.27382C89.5573 8.29894 89.5437 8.3311 89.5437 8.36653C89.5437 8.44118 89.6024 8.50141 89.6755 8.50647H91.5667C91.5982 8.50417 91.6268 8.49231 91.6495 8.47279L91.6713 8.44961L94.6156 5.32555C94.8157 5.11428 94.9494 4.92408 95.0384 4.75917V8.37476C95.0426 8.445 95.0979 8.50088 95.1682 8.50647H96.6817C96.7503 8.50088 96.805 8.44753 96.8112 8.37948V4.75973C96.9002 4.92465 97.0339 5.11456 97.2337 5.32555L100.178 8.44961L100.2 8.47279C100.223 8.49231 100.251 8.50417 100.283 8.50647H102.174C102.247 8.50141 102.306 8.44118 102.306 8.36653C102.306 8.3311 102.292 8.29894 102.27 8.27382Z" fill="#13366D"/>
<path d="M107.872 1.64886C107.872 1.64886 107.973 1.36314 108.102 1.36314C108.236 1.36314 108.334 1.64942 108.334 1.64942L110.57 7.1455H105.633L107.872 1.64886ZM112.945 7.1455H112.255L109.658 0.972344C109.331 0.255378 108.9 0.00140762 108.102 0.00140762C107.284 0.00140762 106.884 0.237117 106.548 0.972344L103.95 7.14522L103.26 7.1455C103.183 7.14775 103.121 7.20871 103.12 7.28288V8.36951C103.121 8.44359 103.182 8.50296 103.257 8.50647H112.948C113.023 8.50296 113.083 8.44359 113.085 8.36951V7.2826C113.083 7.20815 113.022 7.14775 112.945 7.1455Z" fill="#13366D"/>
<path d="M68.9962 4.65157C68.7981 4.44255 68.5164 4.29814 68.2056 4.23184C68.4561 4.17369 68.6612 4.0453 68.8605 3.81942C69.2558 3.373 69.2881 2.90776 69.2881 2.43016C69.2881 1.88597 69.2294 1.10579 68.7191 0.610771C68.2498 0.155082 67.6003 0.0966482 67.0868 0.0966482H62.2929C62.2175 0.098896 62.1577 0.159299 62.1555 0.233748V1.321C62.1577 1.3946 62.2167 1.45416 62.2904 1.4581H66.4234C66.6952 1.4581 66.9763 1.4581 67.1976 1.65588C67.4354 1.87052 67.4657 2.22085 67.4657 2.50095C67.4657 3.028 67.3571 3.22916 67.2925 3.30277C67.0823 3.57865 66.7535 3.57865 66.4356 3.57865H63.2317C63.1566 3.58118 63.0963 3.6413 63.0946 3.71631V4.803C63.0963 4.87717 63.1552 4.93645 63.2295 4.94038L66.5861 4.94066C67.1044 4.94066 67.3359 5.14097 67.4277 5.26037C67.5425 5.41911 67.6034 5.69836 67.6034 6.0664C67.6034 6.32318 67.5671 6.67155 67.3926 6.86933C67.1497 7.14522 66.6932 7.14522 66.4736 7.14522L62.2433 7.1455C62.1679 7.14746 62.1073 7.20787 62.1064 7.28204V8.36951C62.1073 8.44359 62.1668 8.50296 62.2408 8.50647H67.2619C67.8168 8.50647 68.3903 8.50647 68.9089 7.95467C69.4261 7.40453 69.4261 6.7224 69.4261 6.17344C69.4261 5.71831 69.4261 5.09546 68.9962 4.65157Z" fill="#13366D"/>
</g>
<defs>
<clipPath id="clip0_202_342">
<rect width="150" height="36" fill="white"/>
</clipPath>
</defs>
</svg>
