<svg width="65" height="68" viewBox="0 0 65 68" fill="none" xmlns="http://www.w3.org/2000/svg">
<g clip-path="url(#clip0_202_183)">
<path fill-rule="evenodd" clip-rule="evenodd" d="M22.0064 65.3143C23.6188 65.1323 25.323 64.7677 27.0224 64.492L28.3634 64.6741L29.7965 64.8561L31.2296 64.9494L32.6627 65.0382L34.0858 64.9494L35.5189 64.8561L36.952 64.6741L38.293 64.492C40.3507 64.8565 42.5005 65.221 44.6504 65.4031C45.5461 65.5852 46.4418 65.6793 47.4245 65.7677C48.0487 65.7677 48.6786 65.7677 49.3028 65.861C49.7537 65.861 50.1986 65.861 50.7363 65.861C51.632 65.861 52.5278 65.7677 53.4235 65.6796C54.2271 65.5856 55.1232 65.4035 55.9265 65.221C56.2849 65.1323 56.6432 65.039 57.0016 64.8565C57.36 64.7677 57.6314 64.5853 57.9894 64.492L58.4347 64.2207L59.6888 63.3096L60.3131 62.6697L60.7639 61.9459L61.1223 60.9407C61.2092 60.5761 61.2092 60.2116 61.3013 59.8474C61.3013 59.6654 61.3013 59.4829 61.2092 59.212C61.1223 58.483 61.0298 57.7543 60.8504 56.9372L61.0294 56.8431L61.3882 56.5726L61.6593 56.114L62.0124 55.7495L62.1914 55.385L62.4625 54.9317L62.5494 54.385L62.7284 53.9325C62.7284 53.6563 62.7284 53.3859 62.7284 53.2034C62.7284 52.9273 62.7284 52.6568 62.6415 52.4743L62.5494 52.0158L62.3704 51.4691C62.1914 50.9278 61.9252 50.2875 61.6589 49.7401L61.5668 49.2876L61.3878 48.923L61.3009 48.4644C61.3009 47.8294 61.3009 47.2828 61.3009 46.6474L61.2088 45.643L61.1219 45.1896L61.0294 44.8251C61.3009 44.096 61.5672 43.3673 61.7462 42.5495C61.9252 42.0916 62.0124 41.545 62.1914 41.0917C62.3704 40.2693 62.4625 39.4519 62.6419 38.5407C62.7288 37.9053 62.7288 37.265 62.8209 36.5363C62.8209 35.9009 62.9078 35.2659 62.9078 34.5372C62.9078 34.0786 62.9078 33.532 62.9078 32.9854C62.8209 32.1679 62.7288 31.3557 62.6415 30.533C62.6415 29.9864 62.5494 29.5334 62.4625 29.0752C62.6415 28.6223 62.6415 28.1693 62.7288 27.7111V26.5287C62.6419 26.253 62.5498 25.9821 62.4625 25.7064C62.3704 25.4355 62.2835 25.071 62.1042 24.8001L61.9252 24.5243L61.6589 24.0714C61.4799 23.7956 61.2084 23.5248 60.9422 23.2487C60.7632 22.7957 60.5834 22.3375 60.4048 21.8846C60.0461 21.1555 59.7753 20.4268 59.3301 19.6977C59.4166 19.4269 59.5087 19.0627 59.5087 18.6978V18.1512L59.3301 17.4221L59.2376 17.0576L59.0586 16.693L58.7923 16.3285L58.434 15.5994L57.9887 14.964C57.3592 14.235 56.8219 13.5063 56.1972 12.8712C55.6595 12.231 55.1225 11.684 54.5851 11.0489L53.1517 9.77325C52.7064 9.40872 52.2559 9.04418 51.7186 8.67965C51.1812 8.2267 50.5566 7.76849 49.8402 7.31555C49.3949 7.0398 48.9445 6.76894 48.4067 6.4044C47.8694 6.13354 47.4241 5.85779 46.8867 5.58692C46.3494 5.31079 45.9041 5.12872 45.3667 4.85785C44.8294 4.6754 44.292 4.39964 43.8412 4.21719C42.9506 3.94633 42.0549 3.58217 41.2461 3.39971L40.1713 3.03517C39.0093 2.76431 37.8477 2.58186 36.6805 2.40015C36.0562 2.3061 35.3395 2.2177 34.6231 2.2177C33.8247 2.12402 33.1079 2.12402 32.3043 2.12402C31.4955 2.12402 30.6918 2.2177 29.9751 2.2177C29.1663 2.3061 28.363 2.40015 27.6463 2.58223C26.8426 2.67101 26.1263 2.85309 25.3223 3.03555C24.6055 3.21763 23.7971 3.40009 23.0803 3.67057C21.56 4.12878 20.0396 4.85785 18.5144 5.58655C17.9822 5.85741 17.3524 6.22157 16.815 6.4977C15.9193 7.03905 15.0232 7.58604 14.2199 8.22633L13.6837 8.68153C12.2506 9.68635 10.9965 10.8684 9.83448 12.1441C8.93875 13.0552 8.04302 14.0551 7.32629 15.1484C7.06001 15.5129 6.7941 15.9658 6.52264 16.3304L6.34328 16.6065L6.16428 17.0595L6.07737 17.424L5.98491 17.7885L5.898 18.1531V18.5176V18.8821V19.2463L5.98491 19.7933C5.719 20.3399 5.44755 20.8865 5.18127 21.4331C4.91018 21.9745 4.6439 22.6151 4.46453 23.1618L4.28591 23.4326L4.01445 23.7084L3.74817 23.9792L3.48189 24.3438L3.3029 24.7083L3.03181 25.3482L2.85281 25.8012L2.76553 26.2541C2.67344 26.8007 2.58653 27.3473 2.67344 27.894C2.76553 28.2585 2.76553 28.623 2.85281 28.9876C2.76553 29.6226 2.67344 30.2632 2.58653 30.9923C2.58653 31.6273 2.49445 32.3511 2.49445 33.0802C2.40754 34.6264 2.49445 36.1782 2.67344 37.8132C2.76553 38.4531 2.85281 39.0888 2.94453 39.7295C3.03144 40.3645 3.21081 40.9999 3.38981 41.7286C3.48189 42.1865 3.56917 42.6398 3.74817 43.0976C3.92717 43.733 4.10617 44.28 4.28591 44.8266C4.19345 45.1911 4.19345 45.5557 4.19345 45.8258C4.10654 46.7377 4.10654 47.5597 4.01445 48.3775C4.01445 48.648 3.92754 48.8301 3.92754 49.1066C3.74854 49.5599 3.56917 50.0178 3.38981 50.3823C3.21081 50.8349 3.1239 51.2002 2.94453 51.5639L2.85244 51.9292L2.67307 52.3818V52.7463V53.1109V53.4754V53.8399L2.76516 54.2045V54.4806L2.94416 54.8451L3.03107 55.1164L3.21044 55.4802L3.38944 55.7514L3.5688 56.0268L3.7478 56.298C4.01408 56.5741 4.28554 56.8446 4.55145 57.0271C4.46417 57.6677 4.28554 58.3028 4.19308 58.8494L4.10617 59.2139V59.943L4.19308 60.7608L4.46417 61.672L4.90981 62.4898L5.98454 63.5831L6.97236 64.223L7.776 64.6763C8.13437 64.8584 8.57964 64.9517 8.93801 65.1341C9.38846 65.2229 9.74683 65.3162 10.1921 65.4054C10.6426 65.4987 10.9957 65.4987 11.4462 65.5875C11.9836 65.6815 12.5209 65.7695 13.0583 65.7695C14.5787 65.9516 16.0118 65.8628 17.4449 65.7695C18.966 65.6796 20.4863 65.4968 22.0064 65.3143Z" fill="black"/>
<path fill-rule="evenodd" clip-rule="evenodd" d="M17.8092 65.3042C20.8548 65.1221 23.8952 64.5751 26.9407 64.0285C30.7026 64.6692 34.4546 64.6692 38.2169 64.0285C43.0487 64.9397 48.0595 65.7575 52.9838 65.3042C53.7875 65.2109 54.5963 65.1221 55.313 64.9397C56.2957 64.6692 57.1914 64.3046 58.0871 63.8464L59.2495 63.0286L59.7869 62.3887L60.2373 61.7533L60.5905 60.8421C60.6826 60.2955 60.6826 59.8429 60.6826 59.2963C60.5905 58.4732 60.3242 57.6565 60.2373 56.7446C61.3073 56.0155 61.9367 55.1047 62.1157 53.8343C62.203 53.2877 62.203 52.7411 62.0236 52.1945C61.6652 51.0072 60.9489 49.9188 60.7695 48.6435C60.5901 47.3682 60.7695 46.0925 60.5032 44.8168C62.2947 39.8081 62.74 34.4398 61.9363 29.1602C62.0232 28.6133 62.1153 28.2491 62.203 27.7077L62.1157 26.7029C61.9367 25.9739 61.7573 25.4272 61.4862 24.7918C61.1279 24.3389 60.862 23.9744 60.4115 23.6098C59.9662 22.3341 59.4289 21.0585 58.8039 19.8764C58.9829 19.0537 58.9829 18.5071 58.8039 17.6896C58.4455 16.69 57.8164 15.8673 57.2787 15.0498C56.296 13.7741 55.3134 12.6809 54.1462 11.4989L52.7183 10.2232C50.3891 8.31212 47.8813 6.67227 45.1068 5.39659C42.4192 4.21457 39.7372 3.4855 36.8707 3.02767C36.2464 2.93926 35.6169 2.84559 34.9923 2.75681C30.7899 2.48105 26.7617 3.02767 22.8256 4.30298C21.3001 4.8496 19.78 5.49026 18.3466 6.21407C17.0925 6.94314 15.8436 7.67183 14.6767 8.49458C13.1567 9.67659 11.7233 10.8586 10.3823 12.2276C9.48654 13.1387 8.6829 14.045 7.96617 15.0494C7.51571 15.6848 7.07044 16.3251 6.71207 16.9605C6.26162 17.8717 6.17471 18.6008 6.3537 19.6003L6.44098 19.8761C5.81634 21.0581 5.19206 22.3338 4.74161 23.6094C4.02488 24.2445 3.5796 24.9735 3.22124 25.9731C3.12915 26.6138 3.04224 27.0663 3.04224 27.707C3.12915 28.1599 3.12915 28.5245 3.30852 28.9774C2.86324 31.7993 2.77115 34.4394 2.95015 37.2617C3.30852 39.9011 3.84625 42.4528 4.74198 44.9105L4.65507 45.0918C4.38361 46.6384 4.65507 48.1853 4.20462 49.5539C3.84662 50.5539 3.30889 51.465 3.12989 52.5582C2.77152 54.3753 3.58034 55.833 5.01344 56.8382C4.92135 57.6561 4.65507 58.4732 4.47607 59.3844V60.025L4.56298 60.7541L4.83407 61.4832L5.19243 62.207L6.17544 63.2122L7.07118 63.8472C9.12854 64.9404 11.1863 65.305 13.423 65.487C14.9482 65.4863 16.3813 65.4863 17.8092 65.3042Z" fill="white"/>
<path fill-rule="evenodd" clip-rule="evenodd" d="M27.6626 27.5192C28.579 28.8107 30.8413 28.7953 32.6224 26.8424C33.5899 26.5663 34.4756 26.3635 35.1665 26.4832C35.9801 26.6235 36.0677 26.6494 36.5589 26.7954L36.0363 24.6296C35.3196 22.901 33.4926 23.6143 31.5732 24.7026C30.3498 26.8635 28.0979 27.5455 26.849 26.7642C26.7617 26.7123 27.6626 27.5192 27.6626 27.5192Z" fill="#FDB827"/>
<path fill-rule="evenodd" clip-rule="evenodd" d="M33.7331 47.2421C32.3056 47.3463 30.8876 47.8094 30.662 48.3561L27.4016 47.1797L27.7803 48.7725L27.4833 51.2927C28.7016 51.0684 29.9864 50.5166 30.7031 49.5174C31.7164 50.403 33.0319 51.0478 34.634 51.0745C34.6954 49.9967 34.3422 49.2258 34.0253 49.017L33.7331 47.2421Z" fill="#FDB827"/>
<path fill-rule="evenodd" clip-rule="evenodd" d="M39.9317 15.3515C39.2205 14.2473 37.5159 13.2741 35.3099 14.0551C32.6072 11.3893 29.0039 12.3938 26.9717 14.8466C24.6632 15.1329 23.5371 15.4764 21.6583 17.3355C19.355 18.887 17.3742 20.9019 15.9156 23.2294C15.9156 23.2294 15.8031 23.4066 15.7466 23.495L14.6563 22.7975C14.4259 23.167 14.1903 23.5575 14.0061 23.9325C11.1248 23.7192 8.69315 24.1876 7.22936 25.1352C7.88951 23.2242 8.75972 21.4071 9.79894 19.7202L9.62993 19.6108C9.13362 19.3087 9.026 18.5224 9.27674 18.1372C14.1186 10.5406 23.327 5.50562 32.6685 5.50562C42.0046 5.50562 51.2133 10.5403 56.0604 18.1372C56.3007 18.5224 56.1987 19.3087 55.702 19.6108L55.5278 19.7202C56.5774 21.4229 57.442 23.2347 58.1026 25.151C56.746 24.3336 54.581 23.5891 51.3716 24.0055C51.1719 23.615 50.9471 23.2347 50.7267 22.8653L49.6312 23.5631C49.6109 23.542 49.5953 23.5161 49.5854 23.4954C47.3283 19.8342 43.9399 16.9496 39.9317 15.3515ZM59.0649 28.6854C59.4388 30.487 59.6277 32.3458 59.6277 34.2362C59.6277 40.1196 57.6932 45.6124 54.6065 50.0542C52.0218 49.5076 49.4933 49.5648 47.42 49.7781C50.4707 46.7738 52.6561 42.8323 53.5111 38.412C53.936 37.5735 55.1439 33.7204 56.111 32.1532C56.9868 30.7579 58.6555 29.6537 59.0649 28.6854ZM47.113 57.3592C42.793 60.1292 37.9253 61.6445 32.6685 61.6701C30.9078 61.6753 29.4695 61.4981 27.7291 61.1389C28.8652 60.7796 42.8444 57.609 47.113 57.3592ZM15.2295 55.1254C9.39398 50.0952 5.70898 42.5976 5.70898 34.2362C5.70898 32.3093 5.90869 30.414 6.29258 28.5711C6.62543 29.2636 8.52931 29.8625 9.35367 31.4241C10.239 32.4967 11.3397 35.7094 11.5035 36.0634C12.1585 44.1125 17.2311 51.0327 24.2486 54.0679C22.8765 54.3699 18.9711 55.011 15.2295 55.1254Z" fill="#007AC2"/>
<path fill-rule="evenodd" clip-rule="evenodd" d="M47.2976 49.7413C50.1793 46.9198 52.2781 43.2857 53.2145 39.2085C52.1653 41.2027 50.9878 42.978 48.997 43.9572C47.8043 44.6965 45.1833 45.1235 43.3718 45.0035C42.8648 44.9719 41.4369 44.6596 40.7867 44.259C41.7745 45.9093 42.9776 48.2158 43.2694 50.2672C44.7025 50.0381 46.1866 49.8718 47.2976 49.7413ZM39.8551 15.3982C41.2013 17.4496 40.9964 19.5375 38.719 21.4016C38.8932 23.6719 37.685 25.27 36.3184 25.5202C36.4926 26.2075 36.6664 26.7748 36.8199 27.3425C39.5226 24.6767 42.6292 26.405 44.7077 26.0927C47.4918 25.6917 47.825 24.5827 51.1978 24.0624C51.0188 23.6719 50.7984 23.2814 50.6246 22.9011L49.5292 23.5937C49.514 23.5726 49.4985 23.5466 49.4829 23.5259C47.2362 19.8708 43.8578 16.9967 39.8551 15.3982ZM21.9198 17.2047C19.7237 18.673 17.4308 20.8546 15.9208 23.26C15.9001 23.2859 15.8132 23.4372 15.7518 23.5256L14.6615 22.8334C14.4108 23.2446 14.1652 23.6715 13.9348 24.1034C16.6734 24.1659 18.1268 25.2696 20.1383 25.8738C21.7201 26.3787 22.8566 26.1029 23.3477 25.8738C21.4231 25.2279 20.4919 23.6715 20.287 22.3488C19.9231 19.9592 21.162 17.6215 21.9198 17.2047ZM11.5697 36.293C12.235 44.379 17.3997 50.7679 24.0693 53.9434C24.2841 53.1989 24.9395 51.845 25.7224 51.0956C23.5471 50.2676 22.2367 47.2843 22.7227 45.2852C21.0389 45.6182 18.4896 44.9937 17.328 44.2853C15.5517 43.2861 13.7399 41.1038 12.9669 39.3706C12.3327 38.2868 11.5438 36.2459 11.5697 36.293Z" fill="#ED1C2E"/>
<path fill-rule="evenodd" clip-rule="evenodd" d="M8.92886 47.4664C8.07381 46.9721 7.75132 46.6486 7.35745 46.2532C7.31122 47.1327 7.35745 48.3877 7.11151 49.5957C6.83007 50.9809 5.99055 52.3607 5.84743 53.0639C5.69395 53.8132 6.37999 54.5055 7.63371 55.0005C7.47505 53.7662 7.09635 52.6361 7.29088 52.1106C7.67513 50.9598 9.52281 50.3868 10.5772 50.1216C10.055 49.3245 9.49174 48.5074 8.92886 47.4664Z" fill="#FDB827"/>
<path fill-rule="evenodd" clip-rule="evenodd" d="M58.1386 49.5957C57.8982 48.3877 57.9389 47.1327 57.8982 46.2532C57.4529 46.7321 57.0587 47.0966 56.2295 47.4818C55.7536 48.3674 55.2158 49.2263 54.6426 50.049C55.7635 50.356 57.4992 50.9756 57.9289 51.9387C58.1693 52.6831 57.8575 53.8129 57.6168 55.0005C58.8709 54.5055 59.5565 53.8132 59.403 53.0639C59.2595 52.3607 58.42 50.9809 58.1386 49.5957Z" fill="#FDB827"/>
<path fill-rule="evenodd" clip-rule="evenodd" d="M10.6637 50.1577H10.6533C8.63661 50.6471 7.30078 51.4853 7.30078 52.4386C7.30078 53.9536 10.6637 55.183 14.8098 55.183C14.943 55.183 15.0709 55.183 15.2092 55.1769C13.4995 53.6985 11.9688 52.0169 10.6637 50.1577Z" fill="#ED1C2E"/>
<path fill-rule="evenodd" clip-rule="evenodd" d="M50.4354 57.1249C49.4268 57.1249 48.3625 57.1821 47.2563 57.2754C45.1272 58.7903 42.8287 59.9257 38.606 61.0975C42.7828 61.9301 46.8214 62.6125 50.435 62.6125C54.5756 62.6125 57.9385 61.3831 57.9385 59.8681C57.9385 58.3532 54.576 57.1249 50.4354 57.1249Z" fill="#ED1C2E"/>
<path fill-rule="evenodd" clip-rule="evenodd" d="M28.4101 47.3934C28.3128 47.3565 27.4223 47.0495 27.3043 46.9871C27.2991 47.1172 27.3709 47.2685 27.4119 47.5337C27.1815 47.5645 26.9411 47.5961 26.7773 47.5807C25.9836 47.513 25.5746 46.5702 25.7125 46.0033C25.8508 45.4823 25.5794 45.0813 25.2417 45.0606C24.9603 45.0399 24.6737 45.1753 24.5354 45.4823C24.4381 45.2009 24.3508 44.9409 24.228 44.7532C24.7502 44.5087 25.1445 44.1964 25.3442 43.8782C25.9071 44.6174 26.7773 45.3469 28.3435 45.831C28.4611 46.4194 28.5532 46.7425 28.4101 47.3934Z" fill="#ED1C24"/>
<path fill-rule="evenodd" clip-rule="evenodd" d="M29.4489 36.9693C29.6435 36.9324 29.879 37.1668 29.9145 37.438C29.9452 37.7032 29.8121 37.906 29.5458 37.9376C29.2847 37.9737 29.0543 37.8075 29.0236 37.5415C28.9933 37.2665 29.1878 37.0005 29.4489 36.9693Z" fill="#FDB827"/>
<path fill-rule="evenodd" clip-rule="evenodd" d="M29.3824 38.3444C29.6128 38.2718 29.8125 38.4429 29.8484 38.6773C29.8791 38.8748 29.7408 39.0735 29.5156 39.1092C29.2851 39.1408 29.0906 39.0106 29.0547 38.7763C29.024 38.5419 29.1879 38.3752 29.3824 38.3444Z" fill="#FDB827"/>
<path fill-rule="evenodd" clip-rule="evenodd" d="M36.9377 37.938C37.1984 37.9064 37.4344 38.1047 37.5006 38.3751C37.5313 38.6411 37.3367 38.8439 37.0704 38.8747C36.8093 38.9116 36.5793 38.7446 36.5793 38.4794C36.5127 38.2032 36.6766 37.9737 36.9377 37.938Z" fill="#FDB827"/>
<path fill-rule="evenodd" clip-rule="evenodd" d="M31.8853 37.7036C32.1161 37.7036 32.3461 37.8387 32.3461 38.0373C32.3768 38.2401 32.2437 38.4797 32.0185 38.4797C31.8188 38.5106 31.6191 38.3755 31.5525 38.1359C31.5525 37.938 31.7215 37.7401 31.8853 37.7036Z" fill="#FDB827"/>
<path fill-rule="evenodd" clip-rule="evenodd" d="M33.0625 41.0511C33.257 41.015 33.4874 41.1869 33.5178 41.3897C33.5178 41.5872 33.3543 41.8215 33.1901 41.8215C32.9652 41.8531 32.7348 41.6865 32.7348 41.4886C32.7045 41.2915 32.8683 41.0511 33.0625 41.0511Z" fill="#FDB827"/>
<path fill-rule="evenodd" clip-rule="evenodd" d="M32.0799 39.9477C32.3769 39.9116 32.6687 40.1144 32.7349 40.4534C32.7655 40.7863 32.571 41.114 32.2433 41.1873C31.885 41.2234 31.6187 40.9838 31.5521 40.6193C31.5222 40.3172 31.7574 39.979 32.0799 39.9477Z" fill="#FDB827"/>
<path fill-rule="evenodd" clip-rule="evenodd" d="M32.4741 38.7447C32.7352 38.7085 32.9963 38.8748 33.0318 39.1408C33.0625 39.4169 32.8987 39.6821 32.6072 39.713C32.3461 39.7446 32.1157 39.5779 32.0799 39.3127C32.0492 39.0106 32.2437 38.7763 32.4741 38.7447Z" fill="#FDB827"/>
<path fill-rule="evenodd" clip-rule="evenodd" d="M28.3638 37.6043C28.5584 37.5735 28.7222 37.7401 28.7577 37.9064C28.8191 38.1355 28.6553 38.3443 28.43 38.3751C28.2662 38.3751 28.0717 38.2401 28.0362 38.0373C28.0058 37.8387 28.1334 37.6412 28.3638 37.6043Z" fill="#FDB827"/>
<path fill-rule="evenodd" clip-rule="evenodd" d="M34.7674 38.5418C34.9974 38.5102 35.2278 38.6769 35.2585 38.9112C35.3251 39.1403 35.0951 39.3484 34.8695 39.38C34.6391 39.4168 34.4756 39.2807 34.4342 39.0414C34.4035 38.807 34.5418 38.5779 34.7674 38.5418Z" fill="#FDB827"/>
<path fill-rule="evenodd" clip-rule="evenodd" d="M31.3223 39.1092C31.5527 39.0731 31.7573 39.2085 31.788 39.4478C31.8187 39.6821 31.6496 39.8488 31.4248 39.9112C31.1944 39.9473 31.0305 39.7446 30.9998 39.5775C30.9333 39.3488 31.0971 39.1092 31.3223 39.1092Z" fill="#FDB827"/>
<path fill-rule="evenodd" clip-rule="evenodd" d="M35.0282 40.3849C35.2586 40.354 35.4635 40.5158 35.4942 40.7186C35.53 40.9838 35.3969 41.1873 35.131 41.2234C34.9006 41.255 34.7368 41.0831 34.7064 40.8856C34.6391 40.6193 34.803 40.4165 35.0282 40.3849Z" fill="#FDB827"/>
<path fill-rule="evenodd" clip-rule="evenodd" d="M36.3488 39.8122C36.6458 39.7814 36.8762 39.9789 36.9069 40.2863C36.9734 40.5515 36.743 40.7858 36.4819 40.8852C36.2464 40.916 35.9856 40.6816 35.9549 40.3848C35.888 40.1143 36.0825 39.8491 36.3488 39.8122Z" fill="#FDB827"/>
<path fill-rule="evenodd" clip-rule="evenodd" d="M30.6977 37.3338C30.8667 37.3022 31.0609 37.4742 31.0972 37.7033C31.0972 37.8699 30.9999 38.0727 30.7695 38.1043C30.5646 38.1351 30.4008 37.9734 30.3701 37.7706C30.3039 37.5735 30.4673 37.4068 30.6977 37.3338Z" fill="#FDB827"/>
<path fill-rule="evenodd" clip-rule="evenodd" d="M30.5344 38.3443C30.7699 38.2717 30.9338 38.4428 31 38.6411C31.0307 38.8439 30.8668 39.0414 30.6619 39.0414C30.4674 39.073 30.2729 38.9112 30.2374 38.7446C30.2067 38.5102 30.3702 38.3443 30.5344 38.3443Z" fill="#FDB827"/>
<path fill-rule="evenodd" clip-rule="evenodd" d="M34.4035 41.2915C34.7359 41.2546 35.0277 41.5199 35.0947 41.8536C35.1305 42.1605 34.8694 42.4935 34.5418 42.5251C34.2093 42.5567 33.9175 42.3276 33.8868 41.9886C33.8509 41.6561 34.0762 41.3532 34.4035 41.2915Z" fill="#FDB827"/>
<path fill-rule="evenodd" clip-rule="evenodd" d="M37.1983 39.1407C37.4032 39.1091 37.5977 39.2811 37.5977 39.4786C37.6336 39.6821 37.5005 39.8487 37.3059 39.9112C37.0704 39.9112 36.9069 39.781 36.9069 39.5775C36.8762 39.3804 37.0042 39.1768 37.1983 39.1407Z" fill="#FDB827"/>
<path fill-rule="evenodd" clip-rule="evenodd" d="M35.8881 38.8439C36.1133 38.8439 36.313 38.974 36.313 39.1768C36.3489 39.3803 36.1799 39.5778 36.0157 39.6147C35.7908 39.6456 35.5911 39.4789 35.5911 39.3126C35.5604 39.073 35.7246 38.8747 35.8881 38.8439Z" fill="#FDB827"/>
<path fill-rule="evenodd" clip-rule="evenodd" d="M33.7893 39.3804C34.1732 39.3487 34.5419 39.6147 34.5726 40.0101C34.6392 40.4164 34.3733 40.8851 33.9531 40.916C33.5593 40.9837 33.1902 40.6508 33.0933 40.2497C33.0626 39.8122 33.3544 39.4477 33.7893 39.3804Z" fill="#FDB827"/>
<path fill-rule="evenodd" clip-rule="evenodd" d="M38.3248 37.938C38.7494 37.8703 39.1488 38.1724 39.215 38.5779C39.246 39.0105 38.9443 39.3803 38.519 39.448C38.1195 39.4789 37.7308 39.2084 37.6946 38.7765C37.6336 38.3751 37.9254 37.9737 38.3248 37.938Z" fill="#FDB827"/>
<path fill-rule="evenodd" clip-rule="evenodd" d="M14.0931 34.4597C13.832 34.4597 13.6016 34.6941 13.6016 34.9601C13.6016 35.1989 13.832 35.4333 14.0931 35.4333C14.3593 35.4333 14.5232 35.1989 14.5232 34.9601C14.5232 34.6941 14.3593 34.4597 14.0931 34.4597Z" fill="#FDB827"/>
<path fill-rule="evenodd" clip-rule="evenodd" d="M14.165 31.2944C13.8987 31.2944 13.7349 31.5284 13.7349 31.794C13.7349 32.0284 13.8983 32.2624 14.165 32.2624C14.4261 32.2624 14.6565 32.028 14.6565 31.794C14.6565 31.5284 14.4261 31.2944 14.165 31.2944Z" fill="#FDB827"/>
<path fill-rule="evenodd" clip-rule="evenodd" d="M9.85004 29.3885C9.58893 29.3885 9.41992 29.6229 9.41992 29.8516C9.41992 30.1225 9.58893 30.3257 9.85004 30.3257C10.1111 30.3257 10.3415 30.1225 10.3415 29.8516C10.3412 29.6229 10.1108 29.3885 9.85004 29.3885Z" fill="#FDB827"/>
<path fill-rule="evenodd" clip-rule="evenodd" d="M14.917 36.2715C14.6559 36.2715 14.4255 36.5006 14.4255 36.735C14.4255 37.0735 14.6559 37.2714 14.917 37.2714C15.1833 37.2714 15.4137 37.0739 15.4137 36.735C15.4137 36.5006 15.1833 36.2715 14.917 36.2715Z" fill="#FDB827"/>
<path fill-rule="evenodd" clip-rule="evenodd" d="M17.2566 38.0475C17.5177 38.146 17.6456 38.3443 17.5842 38.6095C17.5484 38.8807 17.2873 39.0467 17.0262 38.9481C16.8216 38.9165 16.6271 38.6411 16.663 38.4116C16.7906 38.1773 16.9955 38.0106 17.2566 38.0475Z" fill="#FDB827"/>
<path fill-rule="evenodd" clip-rule="evenodd" d="M15.4444 33.8665C15.6748 33.9289 15.8387 34.1629 15.7721 34.4289C15.7055 34.6941 15.4751 34.8292 15.2499 34.7618C15.0143 34.731 14.8505 34.4598 14.917 34.1945C14.9784 33.9651 15.1833 33.8296 15.4444 33.8665Z" fill="#FDB827"/>
<path fill-rule="evenodd" clip-rule="evenodd" d="M16.1201 39.9217C16.3354 39.968 16.4633 40.1715 16.4119 40.3844C16.3657 40.6034 16.1716 40.7384 15.9563 40.6914C15.7414 40.6342 15.6083 40.4363 15.6593 40.2182C15.7056 39.9996 15.9001 39.8645 16.1201 39.9217Z" fill="#FDB827"/>
<path fill-rule="evenodd" clip-rule="evenodd" d="M15.1989 39.2811C15.46 39.3488 15.6083 39.5993 15.5573 39.854C15.4907 40.1192 15.25 40.2705 14.9992 40.2185C14.7381 40.1501 14.5898 39.9003 14.6408 39.6456C14.7078 39.3804 14.9482 39.234 15.1989 39.2811Z" fill="#FDB827"/>
<path fill-rule="evenodd" clip-rule="evenodd" d="M18.3725 41.2915C18.6643 41.3224 18.8688 41.6609 18.7971 41.9939C18.7309 42.2907 18.4032 42.5303 18.1114 42.4258C17.7789 42.358 17.5844 42.0255 17.6458 41.7283C17.743 41.3897 18.0448 41.1869 18.3725 41.2915Z" fill="#FDB827"/>
<path fill-rule="evenodd" clip-rule="evenodd" d="M15.4137 40.5515C15.6082 40.6557 15.7414 40.8227 15.6748 41.0255C15.6393 41.1873 15.4444 41.3532 15.2809 41.2915C15.0864 41.2546 14.9788 41.0571 15.0147 40.8589C15.0502 40.6918 15.2499 40.5154 15.4137 40.5515Z" fill="#FDB827"/>
<path fill-rule="evenodd" clip-rule="evenodd" d="M15.9667 37.5419C16.2023 37.5735 16.2992 37.8079 16.2689 37.9798C16.2023 38.2082 16.0026 38.3127 15.8388 38.2766C15.6084 38.2082 15.4752 38.0107 15.5418 37.8448C15.5777 37.6044 15.7722 37.5058 15.9667 37.5419Z" fill="#FDB827"/>
<path fill-rule="evenodd" clip-rule="evenodd" d="M12.9775 31.3617C13.2437 31.4294 13.341 31.6273 13.3103 31.8304C13.2744 32.0283 13.0751 32.1637 12.8447 32.122C12.6143 32.0595 12.517 31.8617 12.5529 31.6638C12.6139 31.4294 12.8136 31.3305 12.9775 31.3617Z" fill="#FDB827"/>
<path fill-rule="evenodd" clip-rule="evenodd" d="M17.057 39.3804C17.2874 39.4173 17.4512 39.6148 17.4205 39.8544C17.3184 40.1197 17.1235 40.219 16.8883 40.1874C16.6272 40.1196 16.5299 39.9221 16.5606 39.7186C16.5961 39.4786 16.8572 39.3488 17.057 39.3804Z" fill="#FDB827"/>
<path fill-rule="evenodd" clip-rule="evenodd" d="M17.3538 42.3584C17.5843 42.2906 17.8091 42.4261 17.8454 42.6653C17.8812 42.8997 17.7788 43.1288 17.5177 43.1657C17.2873 43.2281 17.1238 43.0615 17.0262 42.8636C16.9955 42.6292 17.1593 42.3949 17.3538 42.3584Z" fill="#FDB827"/>
<path fill-rule="evenodd" clip-rule="evenodd" d="M16.1049 38.7814C16.2991 38.8175 16.3967 38.9481 16.366 39.146C16.3353 39.3487 16.1715 39.448 15.9666 39.4172C15.7721 39.3803 15.6748 39.1828 15.7055 38.9846C15.7721 38.8491 15.9359 38.6772 16.1049 38.7814Z" fill="#FDB827"/>
<path fill-rule="evenodd" clip-rule="evenodd" d="M19.0019 42.4257C19.263 42.5299 19.4269 42.7643 19.3603 43.0295C19.2937 43.2955 19.0326 43.5035 18.7667 43.394C18.5056 43.3316 18.3421 43.1288 18.4032 42.832C18.4697 42.5668 18.7308 42.3948 19.0019 42.4257Z" fill="#FDB827"/>
<path fill-rule="evenodd" clip-rule="evenodd" d="M16.5604 35.1986C16.924 35.2979 17.1595 35.6673 17.0567 35.9694C16.9953 36.3031 16.627 36.5375 16.2993 36.4382C15.9668 36.3704 15.7723 36.0371 15.8696 35.6989C15.9361 35.3656 16.269 35.1312 16.5604 35.1986Z" fill="#FDB827"/>
<path fill-rule="evenodd" clip-rule="evenodd" d="M7.57713 27.9462C7.74615 28.0143 7.87928 28.1805 7.84341 28.3837C7.81271 28.5504 7.60783 28.6854 7.4133 28.6493C7.24946 28.5868 7.1215 28.4202 7.18289 28.2121C7.21914 28.0451 7.38297 27.915 7.57713 27.9462Z" fill="#FDB827"/>
<path fill-rule="evenodd" clip-rule="evenodd" d="M17.4205 36.9069C17.5844 36.9437 17.7123 37.1096 17.6458 37.3079C17.6151 37.5054 17.4512 37.604 17.2567 37.5731C17.057 37.5415 16.9597 37.3387 16.9956 37.1721C17.0263 36.9746 17.2208 36.8343 17.4205 36.9069Z" fill="#FDB827"/>
<path fill-rule="evenodd" clip-rule="evenodd" d="M13.9963 35.6993C13.7966 35.6993 13.6021 35.8295 13.6021 36.0688C13.6021 36.2715 13.7966 36.4382 13.9963 36.4382C14.1956 36.4382 14.3595 36.2715 14.3595 36.0688C14.3595 35.8291 14.1956 35.6993 13.9963 35.6993Z" fill="#FDB827"/>
<path fill-rule="evenodd" clip-rule="evenodd" d="M14.7844 37.8079C14.554 37.8079 14.426 37.9429 14.426 38.1773C14.426 38.4117 14.554 38.5418 14.7844 38.5418C14.9786 38.5418 15.1527 38.4117 15.1527 38.1773C15.1527 37.9429 14.9786 37.8079 14.7844 37.8079Z" fill="#FDB827"/>
<path fill-rule="evenodd" clip-rule="evenodd" d="M10.6434 30.3934C10.4082 30.3934 10.2747 30.5913 10.2747 30.758C10.2747 30.9923 10.4078 31.1225 10.6434 31.1225C10.8072 31.1225 11.0017 30.9923 11.0017 30.758C11.0017 30.5913 10.8072 30.3934 10.6434 30.3934Z" fill="#FDB827"/>
<path fill-rule="evenodd" clip-rule="evenodd" d="M15.25 35.1986C15.0144 35.1986 14.8506 35.3969 14.8506 35.5996C14.8506 35.7979 15.0144 35.9691 15.25 35.9691C15.4445 35.9691 15.6084 35.7979 15.6084 35.5996C15.6084 35.3972 15.4445 35.1986 15.25 35.1986Z" fill="#FDB827"/>
<path fill-rule="evenodd" clip-rule="evenodd" d="M16.5604 40.89C16.1713 40.89 15.8389 41.2545 15.8389 41.6917C15.8389 42.0927 16.1713 42.4257 16.5604 42.4257C17.026 42.4257 17.3541 42.0927 17.3541 41.6917C17.3541 41.2545 17.0264 40.89 16.5604 40.89Z" fill="#FDB827"/>
<path fill-rule="evenodd" clip-rule="evenodd" d="M13.3101 32.4606C12.8749 32.4606 12.5527 32.7939 12.5527 33.2675C12.5527 33.6998 12.8752 34.0278 13.3101 34.0278C13.7351 34.0278 14.0576 33.6998 14.0576 33.2675C14.0572 32.7935 13.7351 32.4606 13.3101 32.4606Z" fill="#FDB827"/>
<path fill-rule="evenodd" clip-rule="evenodd" d="M8.83121 27.915C8.43179 27.915 8.10449 28.2483 8.10449 28.6855C8.10449 29.0813 8.43216 29.4563 8.83121 29.4563C9.22545 29.4563 9.58862 29.0813 9.58862 28.6855C9.58899 28.2483 9.22545 27.915 8.83121 27.915Z" fill="#FDB827"/>
<path fill-rule="evenodd" clip-rule="evenodd" d="M52.022 33.9285C52.2883 33.9285 52.5187 34.1628 52.5187 34.4284C52.5187 34.6937 52.2883 34.8919 52.022 34.8919C51.7916 34.8919 51.5974 34.6937 51.5974 34.4284C51.5974 34.1628 51.7916 33.9285 52.022 33.9285Z" fill="#FDB827"/>
<path fill-rule="evenodd" clip-rule="evenodd" d="M51.9554 30.7579C52.2217 30.7579 52.4214 30.9923 52.4214 31.2632C52.4214 31.5288 52.2217 31.7263 51.9554 31.7263C51.6943 31.7263 51.4998 31.5284 51.4998 31.2632C51.4998 30.9923 51.6943 30.7579 51.9554 30.7579Z" fill="#FDB827"/>
<path fill-rule="evenodd" clip-rule="evenodd" d="M55.9736 27.9463C56.2347 27.9463 56.4651 28.1807 56.4651 28.4515C56.4651 28.7171 56.2347 28.9515 55.9736 28.9515C55.7073 28.9515 55.5435 28.7171 55.5435 28.4515C55.5435 28.1807 55.7073 27.9463 55.9736 27.9463Z" fill="#FDB827"/>
<path fill-rule="evenodd" clip-rule="evenodd" d="M48.27 34.0275C48.5366 34.0275 48.7666 34.1941 48.7666 34.4593C48.7666 34.7306 48.5366 34.9597 48.27 34.9597C48.0092 34.9597 47.8147 34.7306 47.8147 34.4593C47.8143 34.1945 48.0089 34.0275 48.27 34.0275Z" fill="#FDB827"/>
<path fill-rule="evenodd" clip-rule="evenodd" d="M51.2286 35.7301C51.4997 35.7301 51.6946 35.9697 51.6946 36.2357C51.6946 36.5378 51.5001 36.7353 51.2286 36.7353C50.9368 36.7353 50.7068 36.5378 50.7068 36.2357C50.7064 35.9694 50.9365 35.7301 51.2286 35.7301Z" fill="#FDB827"/>
<path fill-rule="evenodd" clip-rule="evenodd" d="M47.4461 35.7666C47.7124 35.7666 47.9424 36.0062 47.9424 36.3031C47.9424 36.5683 47.7124 36.7665 47.4461 36.7665C47.185 36.7665 46.9546 36.5683 46.9546 36.3031C46.9546 36.0062 47.185 35.7666 47.4461 35.7666Z" fill="#FDB827"/>
<path fill-rule="evenodd" clip-rule="evenodd" d="M48.8638 37.5735C48.6027 37.6044 48.4644 37.8448 48.5362 38.11C48.572 38.3444 48.8331 38.5103 49.0942 38.4429C49.3243 38.4121 49.4574 38.1461 49.4267 37.9125C49.355 37.6412 49.1246 37.5058 48.8638 37.5735Z" fill="#FDB827"/>
<path fill-rule="evenodd" clip-rule="evenodd" d="M42.7417 42.999C42.481 43.0615 42.3172 43.2958 42.3834 43.5663C42.4141 43.8376 42.711 43.9674 42.9769 43.9C43.2073 43.8684 43.3353 43.6032 43.3046 43.332C43.2384 43.1292 43.008 42.9622 42.7417 42.999Z" fill="#FDB827"/>
<path fill-rule="evenodd" clip-rule="evenodd" d="M50 39.3804C49.7848 39.4327 49.6568 39.6355 49.703 39.8544C49.7544 40.0674 49.9486 40.2028 50.1635 40.1505C50.3787 40.099 50.5115 39.9007 50.4604 39.6825C50.4146 39.4685 50.2101 39.3334 50 39.3804Z" fill="#FDB827"/>
<path fill-rule="evenodd" clip-rule="evenodd" d="M50.9213 38.7815C50.655 38.8492 50.5119 39.0937 50.5581 39.3488C50.6247 39.6148 50.8703 39.7653 51.121 39.7182C51.3818 39.6456 51.5301 39.4007 51.4794 39.146C51.4128 38.8808 51.1673 38.7292 50.9213 38.7815Z" fill="#FDB827"/>
<path fill-rule="evenodd" clip-rule="evenodd" d="M48.4338 39.6148C48.2034 39.6825 48.1062 39.8853 48.1369 40.1196C48.1727 40.3171 48.4031 40.4533 48.6029 40.4165C48.797 40.354 48.9305 40.1505 48.8998 39.9221C48.8333 39.7182 48.6335 39.5779 48.4338 39.6148Z" fill="#FDB827"/>
<path fill-rule="evenodd" clip-rule="evenodd" d="M47.7785 40.755C47.4815 40.8228 47.2511 41.1245 47.3181 41.4525C47.3794 41.7595 47.7119 41.9939 48.0089 41.9265C48.3673 41.8272 48.5363 41.4894 48.4642 41.1873C48.4031 40.8585 48.1062 40.6918 47.7785 40.755Z" fill="#FDB827"/>
<path fill-rule="evenodd" clip-rule="evenodd" d="M44.7125 41.4213C44.4207 41.4521 44.2569 41.7282 44.2927 42.0251C44.39 42.2903 44.6511 42.4253 44.8863 42.3945C45.1777 42.3268 45.3416 42.0608 45.275 41.7956C45.214 41.489 44.9839 41.3532 44.7125 41.4213Z" fill="#FDB827"/>
<path fill-rule="evenodd" clip-rule="evenodd" d="M50.7064 40.0519C50.5119 40.0888 50.3788 40.3171 50.4453 40.4838C50.4812 40.7234 50.6754 40.8224 50.8699 40.7908C51.0337 40.7547 51.1669 40.4838 51.1003 40.3168C51.0648 40.1196 50.901 40.0203 50.7064 40.0519Z" fill="#FDB827"/>
<path fill-rule="evenodd" clip-rule="evenodd" d="M50.1436 37.0062C49.9184 37.0739 49.7848 37.2714 49.8211 37.4742C49.9184 37.6717 50.1129 37.8079 50.307 37.7402C50.5119 37.7033 50.6395 37.5058 50.6088 37.3083C50.5785 37.0739 50.3429 36.9746 50.1436 37.0062Z" fill="#FDB827"/>
<path fill-rule="evenodd" clip-rule="evenodd" d="M43.9962 42.4573C43.7913 42.5299 43.6633 42.7327 43.7299 42.9313C43.7913 43.1657 43.9651 43.2643 44.1596 43.2281C44.39 43.1657 44.4873 42.9622 44.4514 42.7647C44.4207 42.5668 44.1903 42.4257 43.9962 42.4573Z" fill="#FDB827"/>
<path fill-rule="evenodd" clip-rule="evenodd" d="M49.3857 33.5643C49.1608 33.5956 49.058 33.8299 49.0943 34.0274C49.1609 34.1941 49.355 34.3611 49.524 34.3295C49.7544 34.231 49.8517 34.0639 49.821 33.8664C49.7848 33.6317 49.5547 33.5331 49.3857 33.5643Z" fill="#FDB827"/>
<path fill-rule="evenodd" clip-rule="evenodd" d="M53.1788 30.7891C53.0098 30.893 52.8463 31.0596 52.9077 31.2628C52.9436 31.4971 53.1433 31.5957 53.3733 31.5645C53.5372 31.528 53.701 31.294 53.6344 31.0909C53.5679 30.8934 53.4037 30.7579 53.1788 30.7891Z" fill="#FDB827"/>
<path fill-rule="evenodd" clip-rule="evenodd" d="M49.058 38.8491C48.8332 38.9169 48.6997 39.146 48.7355 39.3803C48.7969 39.5778 49.0273 39.7182 49.2219 39.6824C49.4574 39.6147 49.5543 39.4172 49.5236 39.1828C49.4929 38.9485 49.2884 38.8175 49.058 38.8491Z" fill="#FDB827"/>
<path fill-rule="evenodd" clip-rule="evenodd" d="M50.0153 38.245C49.7849 38.2766 49.688 38.4794 49.7183 38.6411C49.7545 38.8176 49.9487 38.9165 50.1432 38.8808C50.3426 38.8492 50.445 38.6411 50.4143 38.5106C50.3429 38.3127 50.1795 38.2081 50.0153 38.245Z" fill="#FDB827"/>
<path fill-rule="evenodd" clip-rule="evenodd" d="M46.673 38.6773C46.4578 38.7296 46.3298 38.9271 46.3812 39.146C46.4271 39.3702 46.6216 39.5 46.8365 39.4481C47.0569 39.4011 47.1845 39.193 47.1383 38.9846C47.0876 38.7608 46.8931 38.6302 46.673 38.6773Z" fill="#FDB827"/>
<path fill-rule="evenodd" clip-rule="evenodd" d="M47.7785 38.8807C47.5432 38.9168 47.446 39.1459 47.4815 39.3487C47.5122 39.5154 47.7119 39.6824 47.9112 39.6147C48.1364 39.547 48.2393 39.3803 48.203 39.1828C48.1368 38.9481 47.9423 38.8491 47.7785 38.8807Z" fill="#FDB827"/>
<path fill-rule="evenodd" clip-rule="evenodd" d="M46.1357 40.8227C45.8081 40.8904 45.639 41.2915 45.7004 41.5928C45.7411 41.9265 46.0995 42.124 46.4272 42.0615C46.7596 41.9938 46.99 41.6613 46.9238 41.3223C46.8573 40.9894 46.5248 40.755 46.1357 40.8227Z" fill="#FDB827"/>
<path fill-rule="evenodd" clip-rule="evenodd" d="M49.5241 34.7306C49.1916 34.793 48.9967 35.1309 49.0581 35.4646C49.1247 35.7666 49.4575 36.0059 49.7848 35.9333C50.1436 35.8291 50.3429 35.5014 50.2763 35.1677C50.1794 34.8292 49.8211 34.6632 49.5241 34.7306Z" fill="#FDB827"/>
<path fill-rule="evenodd" clip-rule="evenodd" d="M46.1356 39.7182C45.9718 39.755 45.8386 39.9217 45.9052 40.1192C45.9359 40.3167 46.0994 40.3844 46.3298 40.3535C46.5243 40.3167 46.6216 40.1192 46.5602 39.9841C46.5247 39.7859 46.3605 39.682 46.1356 39.7182Z" fill="#FDB827"/>
<path fill-rule="evenodd" clip-rule="evenodd" d="M48.7357 36.3339C48.5363 36.4016 48.4339 36.6051 48.4646 36.7349C48.5056 36.9745 48.7002 37.0735 48.864 37.0419C49.0582 37.0058 49.161 36.7665 49.1247 36.6047C49.0944 36.4381 48.8999 36.303 48.7357 36.3339Z" fill="#FDB827"/>
<path fill-rule="evenodd" clip-rule="evenodd" d="M47.021 40.0202C46.893 40.0518 46.7599 40.1869 46.7909 40.3848C46.8575 40.5157 46.9903 40.6918 47.1848 40.656C47.3179 40.5518 47.4459 40.4164 47.3793 40.2189C47.3486 40.0887 47.1848 39.9217 47.021 40.0202Z" fill="#FDB827"/>
<path fill-rule="evenodd" clip-rule="evenodd" d="M41.6566 42.5302C41.4625 42.5671 41.3293 42.7646 41.3652 42.9621C41.4266 43.1656 41.6263 43.2642 41.7898 43.2281C41.9843 43.1965 42.0868 42.999 42.0561 42.8319C42.0254 42.5976 41.8516 42.4573 41.6566 42.5302Z" fill="#FDB827"/>
<path fill-rule="evenodd" clip-rule="evenodd" d="M45.0502 40.4529C44.8505 40.4838 44.7126 40.755 44.7791 40.9578C44.8198 41.1244 45.0147 41.2546 45.1782 41.1869C45.3727 41.1553 45.4755 40.9578 45.4393 40.755C45.4086 40.5154 45.2141 40.4164 45.0502 40.4529Z" fill="#FDB827"/>
<path fill-rule="evenodd" clip-rule="evenodd" d="M52.1499 35.1677C52.3241 35.1677 52.5186 35.3344 52.5186 35.5639C52.5186 35.7666 52.3241 35.9333 52.1499 35.9333C51.925 35.9333 51.7915 35.7666 51.7915 35.5639C51.7915 35.3348 51.9246 35.1677 52.1499 35.1677Z" fill="#FDB827"/>
<path fill-rule="evenodd" clip-rule="evenodd" d="M51.3361 37.2714C51.5614 37.2714 51.6945 37.4741 51.6945 37.6408C51.6945 37.8804 51.5617 38.0102 51.3361 38.0102C51.1671 38.0102 50.9678 37.8801 50.9678 37.6408C50.9674 37.4741 51.1671 37.2714 51.3361 37.2714Z" fill="#FDB827"/>
<path fill-rule="evenodd" clip-rule="evenodd" d="M55.2468 29.0188C55.4462 29.0188 55.61 29.149 55.61 29.4195C55.61 29.6538 55.4462 29.7893 55.2468 29.7893C55.0216 29.7893 54.8833 29.6538 54.8833 29.4195C54.8829 29.149 55.0212 29.0188 55.2468 29.0188Z" fill="#FDB827"/>
<path fill-rule="evenodd" clip-rule="evenodd" d="M50.901 34.7306C51.1007 34.7306 51.2646 34.8608 51.2646 35.1C51.2646 35.2975 51.1007 35.4646 50.901 35.4646C50.6758 35.4646 50.512 35.2979 50.512 35.1C50.512 34.8608 50.6754 34.7306 50.901 34.7306Z" fill="#FDB827"/>
<path fill-rule="evenodd" clip-rule="evenodd" d="M49.5241 40.3848C49.9487 40.3848 50.3071 40.7549 50.3071 41.1556C50.3071 41.5927 49.9487 41.9264 49.5241 41.9264C49.0944 41.9264 48.7664 41.5927 48.7664 41.1556C48.7664 40.7549 49.0944 40.3848 49.5241 40.3848Z" fill="#FDB827"/>
<path fill-rule="evenodd" clip-rule="evenodd" d="M52.8103 31.9606C53.2093 31.9606 53.537 32.2939 53.537 32.7258C53.537 33.1685 53.2093 33.4962 52.8103 33.4962C52.4212 33.4962 52.0884 33.1682 52.0884 32.7258C52.0884 32.2939 52.4212 31.9606 52.8103 31.9606Z" fill="#FDB827"/>
<path fill-rule="evenodd" clip-rule="evenodd" d="M56.9613 26.5769C57.4528 26.5769 57.7805 26.9102 57.7805 27.306C57.7805 27.7488 57.4528 28.0821 56.9613 28.0821C56.5623 28.0821 56.2346 27.7488 56.2346 27.306C56.2346 26.9102 56.5619 26.5769 56.9613 26.5769Z" fill="#FDB827"/>
<path fill-rule="evenodd" clip-rule="evenodd" d="M47.6146 36.9437C48.0754 36.9437 48.4031 37.2714 48.4031 37.672C48.4031 38.1099 48.0754 38.4429 47.6146 38.4429C47.2156 38.4429 46.8931 38.1099 46.8931 37.672C46.8931 37.2714 47.2156 36.9437 47.6146 36.9437Z" fill="#FDB827"/>
<path fill-rule="evenodd" clip-rule="evenodd" d="M55.1393 25.8376C55.0935 25.6657 54.9244 25.5668 54.7502 25.6085C52.964 25.9106 51.4795 26.9207 49.8774 27.7852C49.7083 27.8789 49.5856 28.0196 49.4728 28.1704C49.4779 28.1392 49.4779 28.0975 49.4779 28.061C49.4779 28.061 49.4831 27.9774 49.468 27.9048C49.4217 27.8477 49.3145 27.707 49.1199 27.6757C48.9768 27.7799 48.9768 27.7799 48.7361 27.9673C48.7361 27.9673 48.4136 28.2487 48.2756 28.6441C48.1835 28.7848 48.1321 28.863 48.0811 28.951C48.0759 28.9356 48.0759 28.9149 48.0659 28.8991C48.0097 28.6753 48.0097 28.6753 47.8255 28.4048C47.8255 28.4048 47.8048 28.3837 47.7893 28.3736C47.7741 28.363 47.6306 28.2588 47.4365 28.3006C47.3289 28.4466 47.3289 28.4466 47.1905 28.67C47.1905 28.67 47.0422 29.0763 46.9705 29.5086C46.9653 29.5138 46.9653 29.5244 46.9653 29.5345C46.9291 29.4096 46.8832 29.2377 46.7656 28.8055C46.7656 28.8055 46.7552 28.743 46.7142 28.6907C46.6683 28.6437 46.6683 28.6437 46.5452 28.5399C46.5452 28.5399 46.5145 28.5034 46.4786 28.4928C46.4479 28.4721 46.2844 28.4044 46.0999 28.4928C46.0333 28.6648 46.0333 28.6648 45.9313 28.9458C45.9313 28.9458 45.8543 29.2738 45.7722 29.6955C45.7519 29.5548 45.7212 29.3622 45.6801 29.0759C45.6801 29.0759 45.6702 29.0188 45.6395 28.977C45.5984 28.93 45.4653 28.8051 45.2707 28.8051C45.148 28.93 45.148 28.93 45.0814 29.003C45.0814 29.003 45.0355 29.0447 45.01 29.1019C44.9945 29.1644 44.9945 29.1644 44.9486 29.3935C44.9486 29.3935 44.9231 29.5029 44.8924 29.6692C44.8514 29.258 44.831 29.1433 44.7082 28.4247C44.7082 28.4247 44.6772 28.2792 44.5544 28.1855C44.4009 28.1855 44.4009 28.1855 44.2988 28.1855C44.2988 28.1855 44.1657 28.1802 44.0477 28.2581C44.0019 28.3834 44.0019 28.3834 43.8687 28.7581C43.8687 28.7581 43.7615 29.284 43.6487 29.9657C43.6128 28.8984 43.6024 28.8777 43.5004 27.9142C43.5004 27.9142 43.4952 27.7946 43.4083 27.6953C43.3058 27.6539 43.142 27.5858 42.9526 27.6641C42.8861 27.8413 42.8861 27.8413 42.7992 28.0911C42.7992 28.0911 42.6712 28.8826 42.487 29.8976C42.4153 28.5128 42.4153 28.5022 42.3949 27.9658C42.3949 27.9658 42.3742 27.8251 42.2773 27.7213C42.149 27.6953 41.9804 27.6535 41.8065 27.7577C41.7703 27.9402 41.7703 27.9402 41.7193 28.2784C41.7193 28.2784 41.4892 29.6218 41.305 31.262C41.2947 31.0694 41.2795 30.8712 41.2743 30.6789C41.3102 28.4191 41.3102 28.4191 41.2536 27.9507C41.2536 27.9507 41.2281 27.8413 41.1408 27.7529C41.1357 27.7476 41.1201 27.7476 41.1101 27.7371C41.1615 27.6799 41.1871 27.6174 41.2078 27.5444C41.1053 27.3989 40.9977 27.2529 40.8084 27.2164C40.6601 27.3153 40.6601 27.3153 40.6601 27.3153C40.143 27.6592 39.8564 28.2318 39.693 28.8254C39.1094 30.8975 39.2222 33.0012 39.5136 35.0729L39.5239 35.1515C39.5339 35.2603 39.5853 35.3543 39.6826 35.4115C39.8361 35.5003 40.0306 35.4378 40.1179 35.2866L40.1944 35.094C40.3172 33.5787 40.43 32.0532 40.6911 30.5536C40.7374 32.1833 40.855 33.8236 41.1209 35.4318L41.1571 35.5514C41.203 35.6711 41.3106 35.755 41.4434 35.7651C41.6179 35.7704 41.771 35.6301 41.771 35.4529L41.7762 35.1406C41.7818 33.7709 41.8535 32.3861 41.9915 31.0216C42.0628 31.7454 42.1553 32.4745 42.2526 33.1983L42.2932 33.3751C42.3188 33.5053 42.416 33.6042 42.5492 33.6253C42.7178 33.6565 42.8816 33.5422 42.9123 33.3702L42.9378 33.2036C42.9171 32.1935 42.9889 31.2045 43.1168 30.2098C43.2345 31.0115 43.3983 31.8083 43.5621 32.5945L43.7411 32.8232C43.7925 32.8597 43.8539 32.865 43.9201 32.865C44.0888 32.8597 44.2167 32.6984 44.2119 32.5212L44.1864 32.1672C44.1557 31.4332 44.2071 30.6989 44.304 29.9649C44.3806 30.5119 44.473 31.048 44.611 31.5893L44.6979 31.7248C44.7337 31.7872 44.79 31.8342 44.8514 31.8598C45.0204 31.9121 45.2045 31.8184 45.2508 31.6518L45.3377 31.3862C45.3429 31.2872 45.3477 31.183 45.358 31.0736C45.3835 31.209 45.4142 31.3391 45.4449 31.4693L45.4808 31.5995C45.5015 31.6879 45.5477 31.7609 45.6191 31.8079C45.7674 31.9068 45.9571 31.8598 46.0544 31.7138L46.1979 31.443C46.2848 30.9276 46.3259 30.4122 46.3972 29.8968C46.4535 30.1571 46.5149 30.4227 46.597 30.6778L46.7604 30.9223C46.8015 30.99 46.8784 31.042 46.955 31.063C47.1291 31.11 47.2982 31.0006 47.3337 30.8286L47.405 30.5318C47.4461 30.2038 47.5178 29.881 47.5996 29.5586L47.661 29.8084C47.6817 29.8919 47.7479 29.9698 47.8248 30.0115L47.8758 30.0375C48.0349 30.1259 48.219 30.0635 48.3004 29.8968L48.408 29.6937C48.5463 29.4488 48.6639 29.1884 48.7971 28.9439C48.7971 28.9597 48.7971 28.9751 48.7971 28.9962L48.7919 29.1211C48.7819 29.2983 48.9095 29.4491 49.0785 29.4593L49.1606 29.4646C49.2424 29.4747 49.3296 29.4386 49.3962 29.381L49.5497 29.2148C49.7901 28.8863 49.9436 28.4646 50.3171 28.2724C51.8327 27.4703 53.2092 26.502 54.9034 26.2311C55.0727 26.1864 55.1748 26.0144 55.1393 25.8376Z" fill="black"/>
<path fill-rule="evenodd" clip-rule="evenodd" d="M24.8422 31.7262C24.7756 30.7997 24.6787 29.8622 24.6273 28.8367C24.5863 28.1441 23.9465 28.3472 23.8337 28.9875C23.6647 29.9923 23.5164 30.9193 23.4036 31.8406C23.3266 31.1375 23.2604 30.44 23.2294 29.732L23.209 29.3885C23.209 29.3156 23.1732 29.2475 23.1269 29.1907L23.0404 29.0812C23.0045 29.05 22.9686 29.024 22.9228 29.0029C22.7641 28.9352 22.5799 29.0082 22.5082 29.1749L22.3651 29.5499C22.3089 29.7892 22.2678 30.0288 22.2371 30.2734C22.1961 30.013 22.1554 29.7632 22.1092 29.5082L22.0015 29.2373C21.935 29.0759 21.7659 28.9977 21.6073 29.0552L21.4642 29.1071C21.3872 29.1384 21.3155 29.1955 21.2796 29.2843L21.1054 29.7218C21.0851 29.8103 21.0696 29.8987 21.0592 29.9874C21.0492 29.852 21.0389 29.7271 21.0337 29.597L20.9213 29.2636C20.9057 29.2377 20.8957 29.2113 20.8802 29.1907C20.7778 29.05 20.5832 29.0187 20.4349 29.1229L20.2866 29.2271C20.2404 29.2636 20.1997 29.3156 20.1846 29.3626L20.0514 29.6959C20.0207 29.8727 19.9952 30.0604 19.9745 30.2478C19.9541 29.8938 19.949 29.5345 19.9386 29.1858L19.8772 28.9461C19.8413 28.8525 19.7696 28.7847 19.6879 28.7535C19.524 28.6911 19.3347 28.7795 19.2733 28.9461L19.2529 29.0191C19.1916 28.9254 19.0839 28.863 18.9715 28.8784L18.7973 28.8837C18.7208 28.8889 18.639 28.9254 18.5824 28.9879C18.5876 28.7588 18.5876 28.5244 18.5824 28.3006L18.47 27.9725C18.4648 27.962 18.4597 27.9413 18.4445 27.9255C18.3524 27.7747 18.1579 27.7276 18.0096 27.8266L17.7126 28.0609C17.6357 28.2069 17.5643 28.3525 17.4926 28.4985C17.5029 28.3318 17.5181 28.1651 17.5284 27.9936L17.5539 27.6761C17.5643 27.5929 17.544 27.5094 17.4977 27.447L17.3953 27.3168C17.3084 27.2025 17.1497 27.1554 17.0266 27.2179L16.7503 27.3687C16.6734 27.4628 16.5965 27.5617 16.5147 27.6603C16.5147 27.5042 16.4992 27.3375 16.4433 27.1603L16.3971 27.0302V27.0249C16.3357 26.8635 16.1512 26.7747 15.9877 26.8428L15.6038 27.0042C15.5528 27.0407 15.4962 27.0824 15.4503 27.1238L15.4707 27.0249C15.4914 26.9572 15.4862 26.8895 15.4607 26.8217L15.4145 26.7123C15.3682 26.5979 15.2558 26.5197 15.1378 26.5091C15.1378 26.4102 15.0816 26.306 14.9895 26.2435L14.8719 26.1758L14.8054 26.1235C14.7388 26.0874 14.6619 26.0716 14.5853 26.0874L14.1193 26.1657C13.1518 26.3116 12.1847 26.0874 11.2224 25.9678C11.0486 25.9418 10.89 26.0562 10.8641 26.2386C10.8386 26.4154 10.9562 26.5768 11.1304 26.5979C11.9495 26.7281 12.758 26.8582 13.5923 26.8635L14.3242 26.7698C14.2935 26.8217 14.268 26.8793 14.2373 26.9519C14.2373 26.9519 14.2066 27.1133 14.3139 27.2747C14.4725 27.3164 14.4725 27.3164 14.5187 27.3217C14.5187 27.3217 14.5905 27.3424 14.6722 27.3371C14.6926 27.3217 14.7081 27.3164 14.7336 27.3006C14.7181 27.3424 14.7081 27.3947 14.6822 27.4571C14.6463 27.5561 14.6463 27.5561 14.5391 28.0508C14.5391 28.0508 14.5287 28.0978 14.5443 28.155C14.565 28.2073 14.6415 28.3634 14.8257 28.4307C14.9895 28.3578 14.9895 28.3578 15.2813 28.1445C15.2813 28.1445 15.4196 28.0196 15.5524 27.8894C15.6497 27.7957 15.6804 27.7698 15.8956 27.6343C15.8701 27.7957 15.8187 28.0354 15.7059 28.2539C15.5831 28.6444 15.5831 28.6444 15.3989 29.1756C15.3989 29.1756 15.3734 29.2851 15.4193 29.3946C15.4962 29.4675 15.629 29.5819 15.8287 29.5766C15.9415 29.4514 15.9415 29.4514 16.1715 29.2121C16.1715 29.2121 16.453 28.8427 16.6782 28.4469C16.7651 28.3532 16.8217 28.2803 16.8779 28.228C16.8572 28.4469 16.8317 28.7592 16.8061 29.0767C16.7651 29.644 16.7651 29.644 16.7037 30.5969C16.7037 30.5969 16.7037 30.6646 16.7344 30.7323C16.7651 30.7842 16.8675 30.9404 17.0669 30.9716C17.2104 30.8779 17.2104 30.8779 17.2459 30.8467C17.2459 30.8467 17.3073 30.8049 17.3535 30.7477C17.3738 30.68 17.3738 30.68 17.4711 30.3783C17.4711 30.3783 17.5835 29.8419 17.8343 29.3577C17.8805 29.2226 17.9164 29.1233 17.9467 29.0454C17.9312 29.3682 17.9212 29.9254 17.916 30.4927C17.8291 31.3519 17.8291 31.3519 17.6808 32.5441C17.6808 32.5441 17.6446 32.7209 17.7729 32.8879C17.9467 32.9086 18.1105 32.9346 18.2796 32.8202C18.2947 32.7371 18.2999 32.6901 18.3051 32.643C18.3154 32.596 18.3206 32.5494 18.331 32.4609C18.331 32.4609 18.4486 31.6905 18.5458 30.9091C18.6383 30.4874 18.679 30.2948 18.7662 30.0864C18.7559 30.4144 18.7455 30.8467 18.6997 31.2684C18.7662 32.1641 18.7662 32.1641 18.848 32.9293C18.848 32.9293 18.8687 33.0388 18.9452 33.1377C19.0577 33.1795 19.2267 33.2314 19.4061 33.1377C19.4571 32.9869 19.4571 32.9711 19.5444 32.5595C19.6416 33.1114 19.6775 33.2675 19.8517 33.9029C19.8517 33.9029 19.8824 34.0225 19.9797 34.1113C20.1028 34.132 20.2818 34.1584 20.4353 34.0387C20.4712 33.8668 20.4712 33.8668 20.466 33.4345C20.466 33.4345 20.507 32.4974 20.4815 31.5705C20.4971 31.3986 20.5022 31.2579 20.5174 31.1382C20.5481 31.4922 20.5891 31.9038 20.635 32.3048C20.804 33.4191 20.804 33.4191 20.9882 34.4239C20.9882 34.4239 20.9882 34.4446 20.9934 34.4601C21.0089 34.4815 21.0599 34.6474 21.2493 34.7362C21.3928 34.6839 21.4131 34.6737 21.5563 34.2829L21.6128 34.3246L21.5921 34.1839C21.6077 34.158 21.6228 34.1215 21.6332 34.0903C21.6332 34.0903 21.5869 32.8977 21.5204 31.7003C21.5766 31.1589 21.6025 30.8568 21.638 30.6067C21.6942 31.0442 21.7711 31.6845 21.8377 32.3146C21.9912 33.4496 22.0015 33.4601 22.1909 34.746V34.7614H22.1961C22.1961 34.7674 22.1961 34.7723 22.1961 34.7828C22.1961 34.7828 22.2216 34.9548 22.3703 35.0687C22.5441 35.0533 22.7131 35.0326 22.841 34.8761C22.8207 34.6941 22.8207 34.6941 22.8311 34.3818C22.8311 34.3818 22.8821 33.0335 22.662 31.6743C22.6776 31.5705 22.6927 31.4715 22.7027 31.3775C22.7386 31.7157 22.7693 32.0855 22.8104 32.4553C23.0101 33.7833 23.0101 33.7833 23.1994 34.8765C23.1994 34.8765 23.2405 35.0229 23.3629 35.121C23.5064 35.121 23.6857 35.1271 23.8237 34.9755C23.8289 34.7934 23.8289 34.7934 23.8237 34.5436C23.8237 34.5436 23.8596 32.8977 24.1051 31.2789C24.1207 31.1642 24.1358 31.0653 24.1562 30.9716C24.2227 31.6743 24.3148 32.5283 24.4173 33.3875C24.2279 35.46 24.2279 35.46 24.2127 35.7098C24.2127 35.7098 24.1972 35.8764 24.3152 36.0322C24.4739 36.0585 24.6477 36.0845 24.8115 35.9645C24.8422 35.7926 24.8422 35.7926 24.8833 35.5642C24.8833 35.5642 25.482 33.424 25.3134 31.1175C25.262 30.6067 24.8677 30.5442 24.8422 31.7262Z" fill="black"/>
<path fill-rule="evenodd" clip-rule="evenodd" d="M33.2829 29.123C31.2659 29.4612 31.1072 33.2728 31.2918 36.2508C32.5865 37.5836 34.5422 37.8079 36.0263 37.0525C36.1132 33.1739 35.4738 28.7584 33.2829 29.123Z" fill="#007AC2"/>
<path fill-rule="evenodd" clip-rule="evenodd" d="M33.2211 37.3598C32.7092 34.4913 33.2673 31.6431 34.5063 31.6431C35.6017 31.6431 35.9956 33.9548 35.9956 36.99C35.095 37.4222 34.4907 37.6043 33.2211 37.3598Z" fill="black"/>
<path fill-rule="evenodd" clip-rule="evenodd" d="M35.6784 36.9694C35.7808 35.4853 35.4535 33.8556 34.9154 33.8556C34.3629 33.8556 33.9531 35.2667 34.0659 37.2346C34.5315 37.2666 35.1458 37.2143 35.6784 36.9694Z" fill="white"/>
<path fill-rule="evenodd" clip-rule="evenodd" d="M31.6143 36.0943C31.3787 32.0231 31.993 29.6591 33.344 29.4353C35.0589 29.1384 35.7908 32.7469 35.7194 36.8396C34.3784 37.4223 32.7045 37.1673 31.6143 36.0943ZM37.0911 36.2775C36.9735 36.1417 36.7786 36.1263 36.6458 36.2459C36.5589 36.3291 36.4561 36.407 36.3592 36.475C36.3744 33.5174 35.9502 30.3727 34.7009 29.2325C34.2763 28.8473 33.7844 28.7013 33.2423 28.7953C31.466 29.0918 30.6986 31.6067 30.9904 36.2614C30.9904 36.3392 31.021 36.4126 31.0721 36.4702C32.3058 37.7458 34.1435 38.1153 35.6994 37.5525C35.6994 37.6258 35.6942 37.6883 35.6942 37.7613C35.6891 37.9433 35.817 38.0942 35.996 38.1051C36.1702 38.1104 36.3237 37.9742 36.3289 37.7981C36.3337 37.6161 36.3389 37.4336 36.3492 37.2515C36.6 37.1052 36.8455 36.9333 37.0659 36.7256C37.1983 36.6052 37.2087 36.4066 37.0911 36.2775Z" fill="black"/>
<path fill-rule="evenodd" clip-rule="evenodd" d="M29.9919 35.7873C30.1147 32.4659 29.7408 29.7997 28.4153 29.5812C26.6442 29.2949 26.2296 34.2671 26.3887 37.376L29.9919 35.7873Z" fill="#007AC2"/>
<path fill-rule="evenodd" clip-rule="evenodd" d="M27.3553 36.9901C27.0229 34.3345 27.5806 31.8877 28.7426 31.8877C29.6128 31.8877 30.0425 33.3504 30.1808 35.48L27.3553 36.9901Z" fill="black"/>
<path fill-rule="evenodd" clip-rule="evenodd" d="M29.6898 34.8085C29.6128 34.3868 29.3621 34.0952 29.142 34.0952C28.7326 34.0952 28.3691 34.9387 28.2874 36.214C28.7426 36.0112 29.6846 35.5789 29.6846 35.5789L29.6898 34.8085Z" fill="white"/>
<path fill-rule="evenodd" clip-rule="evenodd" d="M34.4602 45.2326C36.0778 44.2797 37.0298 42.7903 37.0298 41.6038C37.782 44.0874 36.7224 46.711 35.4532 46.711C34.9154 46.711 34.2194 46.2791 34.4602 45.2326Z" fill="#ED1C2E"/>
<path fill-rule="evenodd" clip-rule="evenodd" d="M15.8897 20.0062C16.038 19.6676 16.1301 19.0845 15.4496 18.5326C14.9119 18.1004 14.3901 18.1474 14.0572 18.3765L14.0317 18.3555C14.1086 18.1369 14.18 17.6945 13.6578 17.2728C13.3301 17.0019 12.8797 16.7939 12.4551 17.0226C12.0867 17.4755 11.7232 17.939 11.3804 18.4179L14.9071 21.2868C15.2192 20.8493 15.5469 20.4276 15.8897 20.0062ZM13.4226 18.6369L13.315 18.7824L12.6086 18.2046L12.7162 18.0639C12.8745 17.8713 13.0945 17.939 13.2843 18.0899C13.6223 18.366 13.4636 18.5846 13.4226 18.6369ZM14.17 19.194C14.2418 19.1003 14.4108 18.8919 14.7688 19.1887C15.163 19.5062 14.9685 19.7406 14.9119 19.8031L14.7791 19.975L14.0317 19.3712L14.17 19.194Z" fill="white"/>
<path fill-rule="evenodd" clip-rule="evenodd" d="M17.1849 18.5063L16.1202 16.0802L17.8248 17.8867C18.0448 17.6786 18.2752 17.4755 18.5056 17.2776L15.3731 13.9611C15.1376 14.1695 14.9024 14.3775 14.6719 14.6017L15.7263 16.9917L14.0473 15.2112C13.8321 15.4248 13.6224 15.6487 13.4175 15.8673L16.5451 19.1838C16.75 18.9596 16.9701 18.7358 17.1849 18.5063Z" fill="white"/>
<path fill-rule="evenodd" clip-rule="evenodd" d="M18.9203 16.9236C19.0841 16.7882 19.2531 16.6527 19.4273 16.5279L18.3215 14.6589L19.816 16.2261C20.0005 16.0956 20.1847 15.9605 20.3637 15.8353L19.4273 13.8723L20.7783 15.5648C20.9525 15.4448 21.1418 15.3251 21.326 15.2108L21.5309 15.0652L21.5205 15.0705L21.5105 15.0392L18.6137 11.5195C18.3474 11.6862 18.0811 11.8686 17.82 12.0455L18.8844 14.2891L17.185 12.5033C16.9239 12.6906 16.6732 12.8832 16.4172 13.0811L18.7054 17.0797L18.9203 16.9236Z" fill="white"/>
<path fill-rule="evenodd" clip-rule="evenodd" d="M21.5305 15.0648L21.7454 14.9553C21.9348 14.8459 22.1241 14.7364 22.3187 14.6374L21.515 12.6173L22.7484 14.4083C22.9533 14.2989 23.1478 14.2052 23.3523 14.1063L22.7329 12.0135L23.8028 13.8982C23.9921 13.8147 24.1815 13.7365 24.376 13.648L24.6268 13.5284L22.2876 9.56104C22.001 9.68593 21.7092 9.82136 21.4226 9.95679L22.1289 12.3362L20.7265 10.3059C20.4347 10.4519 20.1636 10.6027 19.8818 10.7588L21.5095 15.0389L21.5305 15.0648Z" fill="white"/>
<path fill-rule="evenodd" clip-rule="evenodd" d="M27.6575 12.5345C28.0465 12.3261 28.3997 11.8942 28.1538 10.9413C27.842 9.70211 27.079 9.76456 26.5724 9.88946L26.3727 9.94175L26.2037 9.25971L27.4167 8.93693L27.1608 7.94226C26.4492 8.09312 25.7428 8.28046 25.052 8.49414L26.1778 12.9457C26.6593 12.7896 27.156 12.6541 27.6575 12.5345ZM26.7924 10.8059C26.8997 10.7799 27.1353 10.7276 27.2532 11.1964C27.376 11.6753 27.1456 11.743 27.0328 11.7689L26.8486 11.816L26.6079 10.8578L26.7924 10.8059Z" fill="white"/>
<path fill-rule="evenodd" clip-rule="evenodd" d="M29.7307 12.2065L30.3395 9.61897L30.6109 12.1075C30.9127 12.0816 31.2149 12.0556 31.5119 12.0398L31.0104 7.47351C30.6982 7.4942 30.3909 7.51489 30.0788 7.54612L29.48 10.0975L29.2137 7.64506C28.9119 7.68644 28.615 7.73346 28.3184 7.78049L28.8199 12.3468C29.1216 12.2949 29.4286 12.2482 29.7307 12.2065Z" fill="white"/>
<path fill-rule="evenodd" clip-rule="evenodd" d="M31.9929 10.9413C31.9315 10.9413 31.8291 10.9255 31.7573 10.8943L31.7214 11.9981C31.747 12.0139 31.7677 12.0188 31.788 12.0346C32.0543 12.0188 32.3257 12.0139 32.5916 12.0139C33.1856 11.743 33.2266 10.8785 33.247 10.3424L33.298 8.48364L33.6819 8.49944L33.5798 12.0349C33.8868 12.0455 34.1886 12.0662 34.4959 12.0921L34.6342 7.49988C33.9637 7.44796 33.2984 7.42163 32.6227 7.42163C32.5513 7.42163 32.4796 7.4269 32.4078 7.4269L32.3365 9.92636C32.3102 10.7694 32.2078 10.9515 31.9929 10.9413Z" fill="white"/>
<path fill-rule="evenodd" clip-rule="evenodd" d="M35.1152 11.0763C35.0589 11.0605 34.9565 11.0293 34.8951 10.9981L34.7109 12.0864C34.7361 12.1022 34.7568 12.1071 34.7775 12.1177C35.0438 12.1436 35.3049 12.1801 35.5656 12.2113C36.2006 12.0345 36.3593 11.1753 36.441 10.6494L36.748 8.81652L37.1267 8.88423L36.5486 12.3727C36.8556 12.4299 37.1625 12.4923 37.4595 12.5653L38.2069 8.025C37.4799 7.87414 36.748 7.73871 36.0057 7.63977L35.5911 10.1129C35.4532 10.9413 35.33 11.1076 35.1152 11.0763Z" fill="white"/>
<path fill-rule="evenodd" clip-rule="evenodd" d="M39.5223 13.1071C40.3769 13.1748 40.6584 12.3935 40.7612 12.0346C40.884 11.6336 41.1347 10.6494 39.9627 10.2849L39.773 10.2172L40.2849 8.53556C39.9934 8.44716 39.6916 8.36364 39.3891 8.28577L38.0581 12.6696C38.5548 12.8054 39.0411 12.951 39.5223 13.1071ZM39.6757 11.1757C39.8806 11.2434 40.0034 11.3529 39.8806 11.7588C39.7578 12.1651 39.5837 12.1858 39.3891 12.1234L39.2149 12.0662L39.5016 11.1238L39.6757 11.1757Z" fill="white"/>
<path fill-rule="evenodd" clip-rule="evenodd" d="M47.5226 12.0553L44.436 14.9347L44.7485 14.3358L44.4619 14.1744L46.0739 11.1024C45.4548 10.7326 44.815 10.3786 44.1597 10.0558L43.2433 11.7893C43.1819 11.9142 43.1053 12.0496 43.0336 12.1745C42.7876 12.591 42.3682 13.0804 42.0557 12.872L41.2007 14.4806L41.9429 14.835L42.2658 14.2256C42.6904 14.4389 43.1053 14.6683 43.5143 14.9076L43.1919 15.5118L43.8982 15.9489L44.2207 15.3293C44.4611 15.4858 44.6867 15.6363 44.9171 15.8033L45.4796 15.2563L46.1043 15.7093L45.7818 16.4278C46.0066 16.6103 46.237 16.7875 46.4571 16.9748L46.5595 17.0474L48.4379 12.7211C48.1369 12.4875 47.8399 12.269 47.5226 12.0553ZM43.6375 13.732L43.0288 13.3987C43.4585 13.258 43.6789 12.8261 43.9193 12.3675L44.436 11.3834L44.774 11.5658L43.6375 13.732ZM46.5196 14.9087L46.0895 14.6225L47.3539 13.279L46.5196 14.9087Z" fill="white"/>
<path fill-rule="evenodd" clip-rule="evenodd" d="M47.3743 17.8505L48.7001 16.4398L49.2582 16.9811L47.9324 18.387C48.1524 18.6056 48.3677 18.8347 48.5774 19.0638L51.6947 15.7318C51.4798 15.4974 51.2649 15.2785 51.0397 15.0599L49.8777 16.2991L49.3244 15.7626L50.4812 14.5182C50.256 14.3049 50.0208 14.0965 49.7849 13.8884L46.6731 17.2309C46.9087 17.4288 47.1439 17.6369 47.3743 17.8505Z" fill="white"/>
<path fill-rule="evenodd" clip-rule="evenodd" d="M49.4679 20.0894L50.8858 18.9386L51.367 19.5529L49.949 20.7037C50.1332 20.9539 50.3174 21.2089 50.4967 21.464L54.0334 18.5951C53.8493 18.34 53.6699 18.0902 53.4754 17.8348L52.2364 18.8449L51.7605 18.2358L52.9994 17.2257C52.8049 16.9861 52.6 16.7468 52.3955 16.5072L48.8584 19.3761C49.0685 19.6105 49.2682 19.8497 49.4679 20.0894Z" fill="white"/>
<path fill-rule="evenodd" clip-rule="evenodd" d="M53.2608 21.5629C53.5677 21.3598 53.6547 20.938 53.4501 20.6258C53.2508 20.3132 52.8362 20.23 52.5289 20.4279C52.2219 20.6363 52.1398 21.058 52.3395 21.3703C52.5437 21.6825 52.9535 21.7713 53.2608 21.5629Z" fill="white"/>
<path fill-rule="evenodd" clip-rule="evenodd" d="M23.916 11.4149C23.8035 11.0557 23.9929 10.6757 24.3405 10.5561C24.6937 10.4466 25.0624 10.6392 25.18 10.988C25.2925 11.3472 25.1031 11.7272 24.7499 11.8472C24.4023 11.9616 24.0236 11.7689 23.916 11.4149Z" fill="white"/>
<path fill-rule="evenodd" clip-rule="evenodd" d="M11.8107 21.0581C11.703 20.6935 11.8928 20.3079 12.2352 20.1883C12.5832 20.0683 12.9571 20.2714 13.0644 20.6258C13.182 20.9952 12.993 21.3808 12.6498 21.5005C12.3022 21.6201 11.9231 21.417 11.8107 21.0581Z" fill="white"/>
<path fill-rule="evenodd" clip-rule="evenodd" d="M41.3292 11.4202C41.4827 11.0764 41.8766 10.9308 42.215 11.082C42.5475 11.2381 42.6961 11.6388 42.5475 11.983C42.3884 12.3212 41.9946 12.4724 41.6617 12.311C41.3292 12.1594 41.1809 11.7584 41.3292 11.4202Z" fill="white"/>
<path fill-rule="evenodd" clip-rule="evenodd" d="M59.2699 51.6888C58.9833 51.038 58.6305 50.2412 58.4611 49.4549C58.2921 48.5901 58.2766 47.7259 58.2614 46.9551C58.2514 46.3983 58.2359 45.9036 58.1593 45.5342C58.1186 45.3051 58.031 45.0809 57.8317 44.8258C59.2034 41.4938 59.9097 37.8902 59.9097 34.1678C59.9097 32.3191 59.7256 30.5021 59.3875 28.7321C59.608 28.3104 59.7563 27.8311 59.7563 27.2691C59.7563 26.3786 59.2699 25.6081 58.3945 24.9987C57.7651 23.1659 56.9459 21.3959 55.9529 19.7349C56.2136 19.5318 56.4082 19.2402 56.4747 18.9069C56.5668 18.5529 56.5003 18.1779 56.3006 17.8709C53.8334 14.0596 50.3167 10.842 46.1354 8.58219C41.9278 6.30694 37.2594 5.10913 32.6528 5.10913C28.0259 5.10913 23.3627 6.30694 19.1503 8.58219C14.9683 10.842 11.4571 14.0596 8.98476 17.8709C8.7906 18.1782 8.72366 18.5529 8.81575 18.9069C8.88232 19.2402 9.07685 19.5318 9.33795 19.7349C8.34495 21.3959 7.52097 23.1504 6.89115 24.9727C6.05681 25.5559 5.54497 26.3161 5.54497 27.2585C5.54497 27.7893 5.69364 28.2163 5.91369 28.5496C5.54496 30.3825 5.36597 32.2672 5.36597 34.1678C5.36597 37.8906 6.0827 41.504 7.44405 44.8413C7.28539 45.0655 7.15225 45.3879 7.12673 45.5342C7.04981 45.9036 7.03982 46.3983 7.03982 46.9551C7.00913 47.7259 6.99877 48.5901 6.82976 49.4549C6.65594 50.2412 6.30756 51.0376 6.01576 51.6888C5.80607 52.1677 5.6267 52.5947 5.5605 52.9224C5.46804 53.3388 5.57603 53.7609 5.87264 54.1356C6.20031 54.5472 6.73767 54.891 7.44405 55.1826C7.49508 55.5674 7.52097 55.9586 7.53613 56.3435C7.53613 57.1136 7.36194 57.8844 7.20846 58.5458C6.99877 59.4784 6.74766 60.1548 7.53613 60.9564C8.67263 62.1121 11.534 62.8675 14.8248 62.8675C18.4591 62.8675 22.8919 62.149 27.007 61.3259C28.8343 61.7115 30.7334 61.9093 32.6377 61.9093C34.5567 61.9093 36.4358 61.7118 38.2683 61.3259C43.5199 62.3781 47.3895 62.857 50.4502 62.857C54.7243 62.857 58.261 61.6073 58.2917 59.7951C58.2917 59.4103 58.1845 58.9208 58.082 58.3373C57.9234 57.5613 57.7544 56.687 57.7544 55.8221C57.7544 55.6509 57.7799 55.4372 57.8209 55.1976C58.5377 54.9061 59.0854 54.5468 59.4131 54.1352C59.7148 53.7605 59.8173 53.3388 59.7407 52.922C59.6642 52.5951 59.48 52.1681 59.2699 51.6888ZM54.4736 49.7051C53.2861 49.4391 51.9144 49.2936 50.4506 49.2936C49.688 49.2936 48.8947 49.3191 48.0703 49.3876C50.8907 46.425 52.7997 42.7695 53.6396 38.807C53.7676 38.5418 53.8752 38.2503 53.9928 37.9531C54.8937 35.574 55.6508 33.1163 56.6696 31.7676C57.335 30.8877 58.2255 30.2369 58.8757 29.4664C59.142 31.0077 59.2851 32.5697 59.2851 34.1681C59.2855 39.8021 57.5961 45.1855 54.4736 49.7051ZM42.4655 47.9404C42.6856 48.5754 42.8546 49.2571 42.9467 49.9865C42.6449 50.038 42.3328 50.0798 42.0203 50.1321C42.3479 49.4553 42.517 48.6946 42.4655 47.9404ZM41.5595 44.8262C42.2814 45.1076 43.0491 45.2272 43.7196 45.2272C46.7911 45.2272 49.9132 44.6806 52.2783 41.2911C51.1828 44.4146 49.3755 47.2215 47.0773 49.4704C45.9412 49.5746 44.774 49.7047 43.5869 49.8921C43.3102 47.8463 42.4759 46.185 41.5595 44.8262ZM36.8149 50.6787C36.8301 50.4812 37.0142 50.3194 37.316 50.304C38.1252 50.2672 38.9488 49.5749 38.893 48.5494C38.8826 48.2473 38.5701 47.7109 38.545 47.2892C38.5143 46.7008 39.1182 46.1335 39.9422 46.0135C40.8842 45.8777 41.6416 46.5808 41.8106 47.7782C42.1638 50.184 39.5376 52.6827 37.6544 52.7666C37.0657 52.7922 36.6359 52.5947 36.5538 52.261C36.5179 52.0582 36.5845 51.8494 37.1322 51.5165C37.444 51.3446 37.6385 51.1572 37.6541 51.0478C37.2498 51.1576 36.8045 51.038 36.8149 50.6787ZM59.1113 27.2694C59.1113 28.9875 57.3505 29.7997 56.1733 31.367C55.2059 32.6634 54.566 34.6316 53.404 37.7138C51.2594 43.4309 47.9531 44.5869 43.7196 44.5869C42.568 44.5869 41.0632 44.2021 40.3213 43.1138C39.7835 42.3275 39.7325 41.3069 40.1778 40.0673C40.2288 39.8954 40.1523 39.708 39.9781 39.6557C39.8246 39.588 39.6404 39.6719 39.5735 39.8438C38.8161 41.9679 39.589 43.3113 39.9011 43.6961C40.3978 44.295 40.9356 44.988 41.406 45.7738C40.9711 45.4402 40.4389 45.2795 39.8497 45.3728C38.6726 45.5346 37.8386 46.3833 37.9155 47.3411C37.9407 47.674 38.0435 47.9656 38.1356 48.2052C38.2687 48.5491 38.3712 48.882 38.0742 49.2413C37.8386 49.5227 37.4961 49.6528 37.2857 49.6682C36.6614 49.6946 36.2006 50.0952 36.1751 50.6366C36.1651 50.8503 36.2313 51.0481 36.3593 51.2249C35.0645 51.4902 33.8052 51.7817 32.5766 52.0481C29.9867 52.6308 27.2278 53.2297 24.5251 53.724C24.5095 53.724 24.5095 53.724 24.4995 53.7086C24.5099 53.683 24.5251 53.6563 24.5354 53.6307C24.9552 52.2192 25.9071 51.2772 26.8387 50.3714C27.0329 50.184 27.2174 50.0019 27.3864 49.8247L27.2174 51.1832L27.1664 51.5793L27.5555 51.5169C28.3794 51.3705 29.8281 50.9541 30.77 49.8665C31.9061 50.7829 33.2423 51.2772 34.6603 51.3028H34.9365L34.9465 51.0222C35.0135 49.9752 34.701 49.1367 34.3222 48.7883L34.0456 47.127L33.9946 46.8618L33.7386 46.8874C32.4846 46.9653 31.0873 47.3561 30.5755 47.9396L28.8251 47.299C28.8761 46.8874 28.8354 46.518 28.7996 46.2629C29.3883 46.398 30.0126 46.4604 30.6524 46.4604C31.8962 46.4604 33.0837 46.1843 34.1277 45.6896C34.1636 46.372 34.701 46.9547 35.4843 46.9547C37.1067 46.9547 38.1356 43.9922 37.3678 41.4258C37.3423 41.3317 37.2091 41.1967 37.066 41.1967C36.9074 41.1967 36.7383 41.3317 36.7383 41.5191C36.7383 43.2736 34.3737 45.8092 30.6524 45.8092C28.7585 45.8092 27.0488 45.2001 25.9741 44.1118C25.7588 43.8827 25.4981 43.5705 25.2625 43.1382C25.2932 43.128 25.3291 43.1066 25.3598 43.081C25.3801 42.8783 25.406 42.7534 25.5953 42.6849C25.7592 42.6285 25.8768 42.6488 26.0562 42.8515C26.2148 43.0389 26.3328 43.1382 26.5628 43.0806L28.3032 42.8256L27.4896 42.4456L29.3887 42.0762L28.0987 41.6906L29.8954 41.3366L28.3032 40.9721L29.3987 40.5402L27.4741 40.0191C27.4279 38.4312 27.3151 37.8436 26.6346 37.9787C26.3735 38.0411 26.0562 38.119 25.7181 38.2337C26.4193 37.6818 27.4279 37.2549 28.6154 36.7188C29.0965 36.4897 29.6084 36.2654 30.1561 36.0002C30.2637 35.9479 30.3403 35.896 30.3403 35.7188C30.4989 31.6055 29.8695 29.4138 28.4978 29.1847C27.2437 28.9714 26.6298 30.6736 26.3531 32.3556C26.3276 30.3821 26.9929 28.9194 28.1191 28.2682C28.4723 28.4921 28.9024 28.6117 29.3628 28.6535C30.5503 28.7212 31.8044 28.1328 32.823 27.0603C34.8959 26.4614 36.022 26.5915 36.4932 27.4974C36.2679 27.8826 36.0886 28.3096 35.971 28.7731C35.9303 28.945 36.0224 29.1166 36.191 29.1737C36.36 29.2102 36.529 29.1166 36.5852 28.9446C37.1174 26.8725 38.8682 25.7165 41.6678 26.154C43.956 26.5133 45.7729 26.3677 47.0629 25.7011C49.3762 24.5191 52.4221 23.9724 54.6433 24.3317C56.8128 24.6816 59.1113 25.6345 59.1113 27.2694ZM25.2159 51.1422C24.6785 51.7821 24.2129 52.5112 23.9211 53.4434V53.4588C17.9376 50.6528 13.4949 45.0655 12.1893 38.3278C13.9656 42.2075 16.5145 45.6019 21.8837 45.6019C22.0527 45.6019 22.2217 45.6019 22.3804 45.5865C22.3704 45.6121 22.3704 45.6388 22.3704 45.6644C22.0679 47.3934 23.2554 50.0542 25.2159 51.1422ZM28.0928 48.6322L27.8317 47.5807L30.601 48.5645L30.8621 48.6687L30.9697 48.4027C31.0873 48.1006 32.1062 47.6326 33.5134 47.5017L33.7645 49.0012L33.7897 49.1363L33.8973 49.1995C34.0715 49.3184 34.3581 49.8548 34.3737 50.6881C33.0988 50.6102 31.9472 50.1208 30.9131 49.2304L30.6776 49.0167L30.4986 49.2672C29.8177 50.2254 28.6561 50.6524 27.8424 50.8499L28.0932 48.736L28.1032 48.6837L28.0928 48.6322ZM28.1949 47.0755L27.5296 46.8359L27.0229 46.6485L27.1509 47.1797L27.1764 47.2628C26.8132 47.3151 26.4852 47.2737 26.2348 46.9043C26.0658 46.6639 25.9892 46.3314 26.0403 46.1173C26.2248 45.3882 25.8306 44.8006 25.2828 44.7638C25.0983 44.7638 24.9141 44.7893 24.7606 44.868C25.0066 44.7216 25.2159 44.561 25.3749 44.4045C25.7792 44.8578 26.6139 45.6125 28.1032 46.0759C28.1949 46.451 28.2208 46.7681 28.1949 47.0755ZM25.2414 45.415C25.426 45.4672 25.4922 45.7065 25.426 45.9563C25.3235 46.3566 25.4411 46.8776 25.7126 47.2738C26.1834 47.966 26.7873 47.9814 27.3199 47.8982L27.5196 48.7101C27.2023 49.1111 26.8236 49.4963 26.3934 49.9079C26.1579 50.1475 25.9071 50.3868 25.6615 50.6528C23.8442 49.7356 22.7336 47.2369 22.9947 45.7844C23.0872 45.2532 23.3068 44.8006 23.7011 44.8006C23.947 44.816 24.2129 44.9462 24.3002 45.5869C24.3002 45.5869 24.3564 46.0496 24.5099 46.3731C24.5916 45.9198 24.8527 45.2949 25.2414 45.415ZM34.793 45.3209C35.6681 44.7897 36.4924 44.0035 36.9891 43.0092C37.0656 44.7893 36.2827 46.3047 35.4843 46.3047C35.0386 46.3047 34.6599 45.9977 34.793 45.3209ZM28.405 29.8257C29.3469 29.9717 29.8177 32.0438 29.7101 35.4954C29.2289 35.7196 27.2174 36.6416 26.7207 36.8914C26.6031 33.5798 27.1764 29.6383 28.405 29.8257ZM33.1499 20.5321C33.1347 20.3444 32.9809 20.2248 32.8119 20.2248C32.6532 20.2406 32.5201 20.3861 32.5201 20.5735C32.5607 21.292 31.962 22.073 31.0714 22.4323C29.9863 22.8852 28.8499 22.5782 28.0514 21.6355C27.9745 21.5414 27.8313 21.5001 27.6982 21.5414C27.5806 21.5937 27.504 21.7134 27.504 21.8488C27.5961 24.1865 26.0399 25.4516 24.1208 25.4516C22.1707 25.4516 20.5631 23.8013 20.5631 21.5937C20.5631 17.8604 23.0609 15.3869 27.0484 15.1216C27.1353 15.1216 27.2274 15.0693 27.2836 14.9862C28.3125 13.5649 29.8687 12.7523 31.5426 12.7264C32.9553 12.7162 34.2298 13.2576 34.9617 14.2154C35.0538 14.335 35.2228 14.3873 35.3556 14.3248C37.5361 13.3144 40.3716 14.7989 40.3716 17.7768C40.3716 19.0002 39.5886 20.3854 38.5294 21.0103C38.427 21.078 38.3704 21.2081 38.3856 21.3436C38.5801 22.5775 38.1093 24.5458 36.5279 25.0247C36.0212 22.9887 35.4839 20.4535 36.0978 20.0107C36.1747 19.9588 36.2309 19.8647 36.2309 19.7711C36.2309 19.6928 36.2002 19.589 36.1389 19.5213C35.458 18.8287 34.4395 18.6827 33.9324 18.7504C33.7638 18.7764 33.6462 18.9483 33.6617 19.1202C33.6717 19.2974 33.8559 19.4118 34.0201 19.3858C34.2964 19.3493 34.9362 19.4118 35.4584 19.7865C35.0538 20.4531 35.1566 21.7288 35.499 23.3897C35.4325 23.3479 35.3663 23.322 35.2894 23.2957C34.2043 22.9262 32.7301 23.6135 31.4505 24.3317C31.4095 24.3577 31.358 24.4152 31.3325 24.4513C30.7182 25.5449 29.7663 26.3259 28.7478 26.581C28.0928 26.7529 27.4785 26.7006 27.0329 26.4196C26.6797 26.18 26.2244 25.9667 25.6867 25.8211C26.8639 25.3941 27.9338 24.4513 28.118 22.5771C29.1624 23.4311 30.4161 23.3999 31.307 23.0301C32.4587 22.5677 33.2161 21.5264 33.1499 20.5321ZM22.457 25.744C20.7217 25.7962 19.7136 25.3587 18.5771 24.864C17.533 24.4006 16.381 23.8957 14.5282 23.6719C14.6051 23.5105 14.6972 23.3645 14.7893 23.2031L15.8847 23.8957L16.0537 23.6143C17.2054 21.7401 18.7206 20.0111 20.512 18.5638C20.1333 19.4539 19.9388 20.464 19.9388 21.5941C19.9388 23.7339 21.167 25.145 22.457 25.744ZM40.6844 16.0125C44.3184 17.6993 47.2722 20.4381 49.2475 23.6143L49.4165 23.8957L50.502 23.2031L50.5378 23.2708C50.6451 23.4428 50.7376 23.6147 50.8396 23.7915C49.4272 24.0413 48.0038 24.4942 46.7756 25.1191C45.6135 25.718 43.8887 25.8482 41.7695 25.5148C39.717 25.1973 38.0586 25.6762 36.9994 26.8218C36.9994 26.8218 36.7639 25.9159 36.7025 25.6503C38.5553 25.0935 39.1848 22.9379 39.0417 21.4485C40.1881 20.6781 41.0121 19.1627 41.0121 17.778C41.0121 17.1268 40.8941 16.5437 40.6844 16.0125ZM28.9013 27.2171C30.0633 26.9256 31.1228 26.0615 31.8292 24.864C32.9143 24.255 34.2401 23.6301 35.0797 23.9111C35.3252 23.9894 35.5608 24.1767 35.7346 24.4265C35.8781 25.0254 36.0471 25.6657 36.2161 26.3271C35.2379 25.8113 33.8152 26.0874 32.5766 26.4467C32.5101 26.4621 32.459 26.4986 32.418 26.5404C31.5171 27.5403 30.4165 28.0711 29.3979 28.0034C28.8095 27.9774 28.328 27.7224 28.0007 27.3266C28.3129 27.3526 28.6557 27.2849 28.9013 27.2171ZM51.2849 23.2705C51.4436 23.4164 51.6226 23.5518 51.8223 23.6557C51.715 23.6557 51.6126 23.6715 51.5053 23.682C51.4284 23.5518 51.3515 23.401 51.2849 23.2705ZM57.545 24.5048C56.7876 24.1455 55.8457 23.8697 54.7502 23.6974C54.6171 23.6715 54.4736 23.6403 54.3305 23.6297C54.3819 23.6038 54.4325 23.5774 54.4891 23.5357C55.6767 22.7754 55.9122 21.4218 55.6511 20.4794C56.393 21.766 57.0228 23.1091 57.545 24.5048ZM9.5225 18.2305C14.0677 11.1859 22.7181 5.7498 32.6532 5.7498C42.1893 5.7498 51.0342 10.8943 55.7691 18.2305C55.9633 18.5221 55.9226 19.001 55.518 19.2564C55.508 19.2564 54.6322 19.829 54.6322 19.829L54.8013 20.1051L54.8112 20.1205C55.3386 20.9693 55.2206 22.3127 54.1459 22.9894C53.1784 23.6038 51.914 23.2964 51.3101 22.3285L51.141 22.0316L49.6107 23.0052C47.4557 19.642 44.2001 16.7415 40.1615 15.0964C39.0916 13.5916 37.1318 12.9149 35.3145 13.6334C34.4395 12.6335 33.0471 12.0662 31.5267 12.0763C29.6994 12.1023 28 12.9822 26.8635 14.4817C24.5092 14.6536 22.5897 15.5859 21.3715 17.1162C19.0475 18.7094 17.1125 20.7559 15.6898 23.0049L14.1491 22.0313L13.9749 22.3281C13.3761 23.2964 12.1065 23.6038 11.1394 22.9891C10.0695 22.3123 9.95187 20.9689 10.4892 20.1047L10.6682 19.8286L9.78249 19.256C9.38936 19.0168 9.33832 18.5221 9.5225 18.2305ZM14.0167 23.2705C13.9501 23.3743 13.8835 23.4943 13.8222 23.6038C13.74 23.6038 13.6635 23.588 13.571 23.588C13.7301 23.4947 13.8732 23.3905 14.0167 23.2705ZM9.6401 20.4903C9.40452 21.3285 9.54764 22.7396 10.8021 23.536C10.8535 23.5778 10.9046 23.6038 10.9556 23.6403C9.7836 23.7599 8.65746 24.0567 7.74139 24.4784C8.2684 23.0989 8.89304 21.766 9.6401 20.4903ZM12.4504 24.2132C15.4908 24.2132 16.9957 24.8794 18.3319 25.452C19.6781 26.0509 20.9421 26.6081 23.3993 26.3165C24.6941 26.1706 26.5218 26.4207 27.4378 27.6441C27.4889 27.7118 27.5455 27.7796 27.5965 27.842C25.5595 29.2373 25.5695 32.5851 25.6205 37.5314C25.0731 37.9008 24.6427 38.3123 24.3664 38.8281C23.6038 39.2653 22.9895 39.8694 22.9947 40.629C22.9947 41.0507 23.0661 41.6658 23.2096 42.1499C23.4093 42.8267 24.0339 43.0712 24.5354 43.1337C24.6634 43.3989 24.8065 43.6495 24.9703 43.8993C24.8117 44.0712 24.5916 44.2423 24.3154 44.3887C24.1567 44.2585 23.9773 44.1645 23.7166 44.1645C23.2558 44.1645 22.8667 44.4406 22.616 44.9093C22.3804 44.9455 22.1348 44.9609 21.8841 44.9609C15.3477 44.9609 13.2337 39.5354 11.2836 34.4589C10.173 31.5381 9.16968 30.1011 7.58791 29.1327C6.78945 28.6538 6.19069 28.2005 6.19069 27.2585C6.19032 25.598 8.81612 24.2132 12.4504 24.2132ZM5.99061 34.1681C5.99061 32.4659 6.14927 30.7839 6.45179 29.1335C6.72288 29.3573 7.0095 29.5341 7.26061 29.6906C8.70924 30.5706 9.64084 31.9241 10.6952 34.6835C10.8691 35.1369 11.0484 35.5894 11.2222 36.0533C11.6524 41.1711 13.8225 45.9461 17.4413 49.6272C19.2073 51.4074 21.2188 52.8603 23.3993 53.9065C20.5379 54.4016 17.779 54.7345 15.3377 54.7868C14.8155 54.3181 14.3037 53.844 13.8074 53.3392C8.77544 48.2056 5.99061 41.4002 5.99061 34.1681ZM6.98361 52.3554C6.98361 52.7249 7.09123 53.2564 7.19367 53.8286C7.23472 54.0261 7.2706 54.2296 7.31128 54.4275C6.89152 54.2146 6.56903 53.9904 6.36969 53.7353C6.20068 53.5111 6.13411 53.282 6.17516 53.0578C6.22619 52.8027 6.42072 52.4073 6.6049 51.954C6.89152 51.2878 7.27023 50.4391 7.44442 49.5851C7.63895 48.6687 7.66447 47.7263 7.66447 46.9656C7.66447 46.9656 7.66447 46.9401 7.66447 46.9295C7.96625 47.2211 8.29392 47.4084 8.7906 47.6481C9.20518 48.4189 9.66562 49.163 10.1468 49.8819C8.13526 50.4496 6.98361 51.345 6.98361 52.3554ZM10.5514 50.4496C11.3909 51.6215 12.3325 52.7508 13.351 53.7869C13.689 54.136 14.0318 54.4531 14.3799 54.7868C10.1213 54.6935 7.62341 53.3761 7.62341 52.3656C7.62378 51.6625 8.80059 50.9184 10.5514 50.4496ZM14.8251 62.2167C11.7437 62.2167 8.99512 61.5245 7.9766 60.4884C7.75655 60.2642 7.63858 60.025 7.63858 59.7955C7.63858 59.5457 7.73104 59.1447 7.82275 58.697C7.9766 58.0307 8.17594 57.1922 8.16078 56.3273C8.16078 55.4376 7.99177 54.5317 7.83311 53.7865C9.14342 54.797 11.8051 55.4222 14.8251 55.4222C20.0153 55.4222 26.7721 54.016 32.7042 52.6831C33.7483 52.4435 34.8282 52.2091 35.9292 51.9698C35.9036 52.1162 35.9036 52.246 35.9391 52.4077C36.0874 53.0691 36.7528 53.4592 37.6796 53.4174C39.0258 53.3497 40.6327 52.3137 41.6161 50.8664C44.7637 50.3198 47.8192 49.9451 50.4506 49.9451C53.532 49.9451 56.2754 50.6373 57.2995 51.6628C57.5199 51.9025 57.6371 52.1263 57.6371 52.366C57.6371 53.0582 57.4785 53.7613 57.3353 54.3858C57.2177 54.9433 57.1153 55.4226 57.1153 55.8228C57.1153 56.7133 57.2995 57.6297 57.4426 58.3637C56.1323 57.3645 53.4658 56.7287 50.4509 56.7287C45.0407 56.7287 37.8231 58.3223 32.5766 59.4784C27.3454 60.634 20.1744 62.2167 14.8251 62.2167ZM32.638 61.2747C31.3225 61.2747 30.0019 61.1652 28.7071 60.9832C30.1199 60.6916 31.4916 60.3948 32.7046 60.1183C36.5538 59.2643 41.4674 58.1763 45.9257 57.6715C41.9282 60.0088 37.3778 61.2747 32.638 61.2747ZM50.4506 62.2167C47.743 62.2167 44.2263 61.7796 39.8094 60.9564C42.4914 60.2119 45.0407 59.0514 47.3899 57.5251C48.4494 57.4318 49.4831 57.3795 50.4506 57.3795C54.525 57.3795 57.6471 58.5875 57.6471 59.7955C57.6471 61.0087 54.4329 62.2167 50.4506 62.2167ZM58.9167 53.7353C58.7226 53.9904 58.4101 54.2142 57.9903 54.4275C58.1338 53.7869 58.2766 53.0845 58.2766 52.366C58.2766 51.9544 58.0928 51.5696 57.7396 51.2103C57.207 50.6637 56.2909 50.2152 55.1289 49.8827C55.6101 49.1641 56.0705 48.4196 56.4851 47.6593C57.0328 47.4197 57.4119 47.1282 57.6216 46.9303C57.6216 46.9404 57.6216 46.9664 57.6216 46.9664C57.6367 47.7267 57.6467 48.6849 57.8464 49.5859C58.0306 50.4398 58.3942 51.2882 58.6812 51.9548C58.8753 52.4081 59.0595 52.8035 59.1109 53.0585C59.1675 53.282 59.1009 53.5111 58.9167 53.7353Z" fill="black"/>
<path fill-rule="evenodd" clip-rule="evenodd" d="M25.4619 39.6557C25.8406 39.6873 26.1579 39.7814 26.3524 40.1038C26.588 40.4992 26.2552 40.7651 26.1475 40.8276C26.0451 40.8953 25.7126 41.0356 25.4822 40.6188C25.2622 40.1918 25.0369 40.1294 24.8221 40.0722C24.6068 40.0097 24.474 39.9574 24.4892 39.807C24.5044 39.541 25.0525 39.6196 25.4619 39.6557Z" fill="white"/>
<path fill-rule="evenodd" clip-rule="evenodd" d="M11.2065 59.8734C11.2065 60.2797 11.2117 60.6081 11.4314 60.9463V60.9719L10.0138 60.6443V60.6187C10.2749 60.4569 10.2391 60.0405 10.2391 59.6605V56.7235C10.1466 56.6712 10.0649 56.6558 9.97797 56.6295C9.73203 56.5772 9.5841 56.6242 9.37884 56.7653L9.34814 56.7909L9.55303 55.7341L9.6503 55.7702L10.0852 55.9113L10.505 56.0253L10.9965 56.14L11.4521 56.2288L12.0816 56.333L11.9026 57.3744C11.8208 57.1136 11.6622 57.0049 11.4725 56.9628C11.3752 56.9421 11.2935 56.9312 11.2065 56.9421V59.8734Z" fill="#ED1C2E"/>
<path fill-rule="evenodd" clip-rule="evenodd" d="M13.8168 56.3071C14.9119 56.3541 15.7263 57.2705 15.7263 58.8532C15.7263 60.4204 14.8154 61.3007 13.7555 61.2537C12.6855 61.2014 11.8516 60.2124 11.8516 58.6865C11.8512 57.1505 12.7573 56.26 13.8168 56.3071ZM13.1105 59.884C13.2588 60.238 13.5199 60.5246 13.8168 60.5348C14.0983 60.551 14.3439 60.3629 14.5129 60.0608C14.6715 59.7801 14.7022 59.4103 14.7022 59.0616C14.7022 58.2437 14.4666 57.0572 13.7551 57.0256C13.1356 57 12.8693 57.7964 12.8693 58.5406C12.8697 58.9623 12.9673 59.5194 13.1105 59.884Z" fill="#ED1C2E"/>
<path fill-rule="evenodd" clip-rule="evenodd" d="M15.6545 62.0086C15.8594 61.7479 16.054 61.4613 16.1253 61.1283C15.8746 61.1283 15.6801 60.8579 15.6801 60.5193C15.6801 60.1446 15.9105 59.853 16.1764 59.853C16.4733 59.853 16.6679 60.1807 16.6679 60.5768C16.6679 60.9515 16.4785 61.4255 16.3095 61.7017C16.1712 61.9462 16.125 62.0293 15.8949 62.0293L15.6545 62.0086Z" fill="#ED1C2E"/>
<path fill-rule="evenodd" clip-rule="evenodd" d="M21.7759 59.5928C21.7759 60.0085 21.7811 60.3268 22.0064 60.5871V60.6085L21.3207 60.7172L20.594 60.8113V60.785C20.8499 60.525 20.8088 60.1187 20.8088 59.7489V56.8488C20.7271 56.8386 20.645 56.8488 20.5477 56.8642C20.307 56.8958 20.1587 56.9951 19.959 57.2133L19.9231 57.2551L20.1383 56.078L20.2304 56.125L20.6247 56.0832L21.2541 56.0001L22.104 55.8752L22.6513 55.771L22.4775 56.8909C22.3954 56.6566 22.2371 56.6043 22.0474 56.6302C21.9549 56.6464 21.8684 56.6618 21.7759 56.719V59.5928Z" fill="#ED1C2E"/>
<path fill-rule="evenodd" clip-rule="evenodd" d="M24.5505 55.3489C25.6511 55.1461 26.4544 55.8748 26.4544 57.4627C26.4544 59.03 25.5535 60.1078 24.4836 60.3105C23.4136 60.5039 22.5845 59.6962 22.5845 58.176C22.5848 56.6456 23.4858 55.5422 24.5505 55.3489ZM23.8441 59.0871C23.9872 59.4047 24.2535 59.6285 24.5505 59.5766C24.8271 59.5243 25.0827 59.2858 25.2465 58.9468C25.4004 58.6293 25.441 58.2539 25.441 57.9006C25.441 57.0775 25.2055 55.9478 24.4839 56.0828C23.8696 56.1923 23.5985 57.0572 23.5985 57.7964C23.5985 58.2129 23.6958 58.7546 23.8441 59.0871Z" fill="#ED1C2E"/>
<path fill-rule="evenodd" clip-rule="evenodd" d="M29.3057 58.2129C29.3057 58.6192 29.3108 58.9419 29.5361 59.1812V59.2068L28.1185 59.5089V59.4833C28.3692 59.2072 28.3385 58.8065 28.3385 58.4311V55.5309C28.2465 55.5257 28.1695 55.5419 28.0774 55.5626C27.8371 55.6148 27.6836 55.7183 27.4839 55.9534L27.448 55.9997L27.6529 54.844H27.7502L30.1766 54.3282L29.9976 55.4531C29.9207 55.2289 29.7569 55.1879 29.5727 55.2289C29.4754 55.2503 29.3885 55.2759 29.3064 55.3282V58.2129H29.3057Z" fill="#ED1C2E"/>
<path fill-rule="evenodd" clip-rule="evenodd" d="M31.3839 58.0778C31.7881 57.9684 31.9213 57.5365 31.9213 57.0203C31.9213 56.5414 31.7367 56.2025 31.4094 56.0829C31.476 56.0573 31.5374 56.0467 31.5988 56.0313C32.2541 55.885 32.8732 56.14 32.8732 57.1607C32.8732 57.6557 32.6942 58.1087 32.3817 58.4002C32.1206 58.6399 31.7419 58.7125 31.4501 58.7749L30.2112 59.0563V59.0349C30.4671 58.7595 30.4364 58.3528 30.4364 57.9781V55.3022C30.4364 54.9268 30.4671 54.5103 30.2112 54.3441V54.3177L31.6136 54.0055V54.0262C31.3832 54.3648 31.3832 54.6875 31.3832 55.0991V58.0778H31.3839Z" fill="#ED1C2E"/>
<path fill-rule="evenodd" clip-rule="evenodd" d="M34.1377 57.1606C34.1377 57.536 34.097 57.9469 34.353 58.1135V58.135L32.9502 58.4525V58.431C33.2061 58.1451 33.1754 57.7542 33.1754 57.3796V54.6984C33.1754 54.3177 33.2061 53.896 32.9502 53.7293V53.7139L34.353 53.3915V53.4171C34.097 53.6985 34.1377 54.1047 34.1377 54.4746V57.1606Z" fill="#ED1C2E"/>
<path fill-rule="evenodd" clip-rule="evenodd" d="M38.8211 52.8604L37.9201 54.8185L38.5855 56.1923C38.7493 56.526 38.9235 56.9007 39.1742 57.1136V57.1298V57.1351L37.9201 57.3796V57.3642L37.1727 55.6927L36.743 56.7032C36.6916 56.8435 36.6254 56.9899 36.6254 57.1505C36.6254 57.3326 36.6768 57.515 36.784 57.5929V57.6193L35.6272 57.8691V57.8484L36.8661 55.1194L36.2163 53.7034C36.0984 53.4382 35.9911 53.2347 35.7962 53.1045V53.0891L36.5026 52.9333L37.1731 53.214L37.6239 54.2293L37.885 53.6203C37.9516 53.4739 38.0385 53.261 38.0588 53.0891L38.8211 52.8604Z" fill="#ED1C2E"/>
<path fill-rule="evenodd" clip-rule="evenodd" d="M40.7458 51.9962C41.8412 51.798 42.6449 52.5274 42.6449 54.1101C42.6449 55.6875 41.744 56.7657 40.6796 56.9579C39.6097 57.1505 38.7805 56.3436 38.7805 54.8286C38.7801 53.2922 39.6862 52.1888 40.7458 51.9962ZM40.0394 55.7345C40.1829 56.052 40.444 56.2759 40.7458 56.2239C41.0272 56.1716 41.2732 55.9324 41.4418 55.5934C41.6008 55.2812 41.6315 54.9012 41.6315 54.5472C41.6315 53.7294 41.396 52.6 40.6796 52.7302C40.0653 52.8397 39.789 53.7038 39.789 54.4479C39.7887 54.8595 39.8959 55.4012 40.0394 55.7345Z" fill="#ED1C2E"/>
<path fill-rule="evenodd" clip-rule="evenodd" d="M47.2514 55.1359C47.4256 55.2138 47.6146 55.2085 47.7992 55.1931C48.0961 55.1668 48.3672 55.0836 48.5621 54.7345L48.5928 54.7293L48.3828 55.8387L47.2566 55.9165L46.0691 56.0313V56.0098C46.325 55.7653 46.2843 55.3699 46.2843 54.9892V52.308C46.2843 51.9386 46.325 51.5165 46.0691 51.3243V51.3028L47.139 51.1994L47.8968 51.1422C47.9789 51.1321 48.0603 51.1004 48.1117 51.0275H48.1324V52.1312H48.1117C47.9789 51.8036 47.6767 51.866 47.4208 51.8867L47.2518 51.8969V53.0687L47.7433 53.027C47.8147 53.0217 47.8864 53.0063 47.9327 52.9747L47.9582 52.9694V53.9799H47.9327C47.8613 53.6985 47.6154 53.7455 47.426 53.7662L47.2518 53.7763L47.2514 55.1359Z" fill="#ED1C2E"/>
<path fill-rule="evenodd" clip-rule="evenodd" d="M54.397 55.4899C54.8116 55.5422 54.9395 55.1615 54.9395 54.6513C54.9395 54.1619 54.7605 53.7503 54.4329 53.5058C54.4994 53.5005 54.5556 53.5111 54.6226 53.5265C55.2776 53.6461 55.9022 54.157 55.9022 55.1825C55.9022 55.672 55.728 56.0519 55.4055 56.2133C55.1444 56.3435 54.7657 56.2656 54.4735 56.2133L53.8903 56.0824L53.2354 55.9737V55.953C53.4913 55.7701 53.4606 55.3533 53.4606 54.9786V52.3182C53.4606 51.9435 53.4913 51.5372 53.2354 51.2667V51.2452L53.8955 51.36L54.6326 51.5063V51.527C54.4073 51.7715 54.397 52.0943 54.397 52.5006V55.4899Z" fill="#ED1C2E"/>
<path fill-rule="evenodd" clip-rule="evenodd" d="M53.0967 51.2408V51.2201L52.3544 51.1475L51.6943 51.0798V51.1004C51.9502 51.3247 51.9143 51.7302 51.9143 52.1109C51.9143 52.1109 51.9143 55.0009 51.9143 55.099L51.3104 55.0629C51.3104 54.9689 51.3156 52.0944 51.3156 52.0944C51.3156 51.7249 51.2749 51.3134 51.5305 51.0846V51.0685L50.4354 51.0323H50.128V51.053C50.3792 51.2773 50.3485 51.6937 50.3485 52.0635C50.3485 52.0635 50.3485 54.9429 50.3485 55.0415L49.7394 55.0577C49.7394 54.9535 49.7493 52.0789 49.7493 52.0789C49.7493 51.699 49.7087 51.2874 49.9646 51.0685V51.0478L48.5566 51.0948V51.1102C48.8126 51.3344 48.7819 51.7456 48.7819 52.1256V54.8067C48.7819 55.1822 48.8126 55.5885 48.5566 55.8067V55.8274L49.5141 55.7856L50.4354 55.7702L51.5974 55.8071L52.4524 55.8748L53.0971 55.9587V55.9323C52.8463 55.7134 52.8822 55.3078 52.8822 54.9373V52.2509C52.8818 51.8713 52.8463 51.465 53.0967 51.2408Z" fill="#ED1C2E"/>
<path fill-rule="evenodd" clip-rule="evenodd" d="M45.8538 51.3503V51.3348L44.4514 51.5068L44.4462 51.512V51.5327C44.6559 51.673 44.6711 52.1316 44.6711 52.5116V52.7674C44.6711 53.2252 44.5431 53.7463 44.1592 53.7982C44.0265 53.8189 43.8981 53.7613 43.8216 53.6263C43.6933 53.4073 43.7088 53.1267 43.7088 52.8502V52.6421C43.7088 52.2719 43.6677 51.866 43.9237 51.6053V51.5846L42.5312 51.8036V51.8243C42.7924 52.0116 42.7565 52.4281 42.7565 52.8031V53.2873C42.7565 53.7244 42.7665 54.0788 43.002 54.3756C43.2069 54.6363 43.478 54.7142 43.7598 54.6777C44.1433 54.6254 44.5324 54.303 44.6707 53.8862V55.1935C44.6707 55.5682 44.7018 55.9643 44.4459 56.2243V56.245L45.8534 56.0731V56.0524C45.5975 55.865 45.6282 55.4486 45.6282 55.0735V52.3976C45.6286 52.0169 45.5979 51.6102 45.8538 51.3503Z" fill="#ED1C2E"/>
<path fill-rule="evenodd" clip-rule="evenodd" d="M19.9079 56.1976V56.1769L18.5155 56.3172H18.5103V56.3386C18.7662 56.5361 18.7252 56.9579 18.7252 57.3277V57.5466C18.7252 57.9992 18.6076 58.5101 18.2237 58.5458C18.0906 58.5567 17.9626 58.4935 17.8809 58.3584C17.7529 58.135 17.7633 57.8536 17.7633 57.5722V57.4266C17.7633 57.0572 17.7274 56.6456 17.9881 56.3958V56.3797L16.5957 56.4684V56.4891C16.8516 56.6926 16.8109 57.1035 16.8109 57.4842V57.9683C16.8109 58.4055 16.8313 58.7599 17.0565 59.0616C17.2614 59.3369 17.5428 59.431 17.8243 59.3994C18.203 59.3685 18.5562 59.0871 18.7252 58.6549V60.0141C18.7252 60.3835 18.7662 60.7894 18.5103 61.04V61.0554L19.9075 60.9042V60.8835C19.6516 60.686 19.6927 60.2744 19.6927 59.8945V57.228C19.693 56.8537 19.652 56.4421 19.9079 56.1976Z" fill="#ED1C2E"/>
<path fill-rule="evenodd" clip-rule="evenodd" d="M15.7467 55.2138C15.6749 55.1566 15.6084 55.0942 15.5366 55.0366L15.7467 55.2138Z" fill="#ED1C2E"/>
</g>
<defs>
<clipPath id="clip0_202_183">
<rect width="65" height="68" fill="white"/>
</clipPath>
</defs>
</svg>
