<svg width="169" height="28" viewBox="0 0 169 28" fill="none" xmlns="http://www.w3.org/2000/svg">
<path d="M75.5661 8.12192L79.0876 5.50562H67.2944V21.1796H79.0876V18.5611H70.663V14.5606H77.8635V11.9443H70.663V8.12192H75.5661Z" fill="#21A038"/>
<path d="M58.3845 11.6096H54.299V8.12192H60.8349L64.3587 5.50562H50.9304V21.1796H57.9495C61.882 21.1796 64.1532 19.3825 64.1532 16.2533C64.1532 13.2524 62.1115 11.6096 58.3845 11.6096ZM57.8227 18.5611H54.299V14.2259H57.8227C59.9671 14.2259 60.9617 14.9452 60.9617 16.4076C60.9617 17.8701 59.8906 18.5611 57.8227 18.5611Z" fill="#21A038"/>
<path d="M88.6358 5.50562H82.2288V21.1796H85.5973V16.7401H88.662C92.7454 16.7401 95.2985 14.5866 95.2985 11.1229C95.2985 7.65907 92.7454 5.50562 88.6358 5.50562ZM88.5593 14.1238H85.5733V8.12192H88.5593C90.7299 8.12192 91.9038 9.19974 91.9038 11.1229C91.9038 13.046 90.7299 14.1238 88.5593 14.1238Z" fill="#21A038"/>
<path d="M45.1595 17.7918C44.2676 18.2808 43.2708 18.5372 42.25 18.5372C39.2115 18.5372 37.0168 16.3555 37.0168 13.3546C37.0168 10.3536 39.2115 8.17192 42.25 8.17192C43.3473 8.14801 44.4206 8.50656 45.3125 9.1476L47.7389 7.35269L47.5859 7.19841C46.1825 5.94023 44.2916 5.29919 42.1472 5.29919C39.8257 5.29919 37.7054 6.09452 36.1752 7.53088C34.6429 9.01939 33.775 11.0968 33.8253 13.2524C33.7991 15.432 34.6429 17.5354 36.1752 19.0739C37.7819 20.5885 39.9263 21.436 42.1232 21.3838C44.5474 21.3838 46.6656 20.5364 48.0952 18.9979L45.9267 17.3811L45.1595 17.7918Z" fill="#21A038"/>
<path d="M135.813 5.53169V21.2035H139.181V14.7909H146.356V21.2035H149.726V5.53169H146.356V11.9703H139.181V5.53169H135.813ZM130.018 21.2035H133.566L126.979 5.53169H123.558L116.845 21.2035H120.24L121.593 18.0482H128.741L130.018 21.2035ZM122.614 15.4319L125.218 9.14759L127.668 15.4319H122.614ZM157.283 14.8691H159.375L164.532 21.1796H168.871L161.979 13.072L168.003 5.50562H164.149L159.146 12.2267H157.283V5.50562H153.912V21.1796H157.283V14.8691ZM105.714 11.6357V8.148H114.522V5.53169H102.344V21.2035H109.365C113.295 21.2035 115.569 19.4086 115.569 16.2794C115.569 13.2785 113.527 11.6357 109.798 11.6357H105.714ZM105.714 18.5872V14.252H109.238C111.38 14.252 112.377 14.9713 112.377 16.4337C112.377 17.8961 111.33 18.6132 109.238 18.6132H105.714V18.5872Z" fill="#21A038"/>
<path d="M23.2824 5.40356C23.8945 6.19889 24.406 7.07027 24.8388 7.9938L13.0456 16.7402L8.09229 13.611V9.86693L13.0194 12.97L23.2824 5.40356Z" fill="#21A038"/>
<path d="M3.06242 13.3546C3.06242 13.1743 3.06242 13.0221 3.08865 12.8418L0.102647 12.6875C0.102647 12.8939 0.076416 13.1243 0.076416 13.3285C0.076416 16.9205 1.53226 20.1779 3.87997 22.5378L5.99815 20.4082C4.186 18.6133 3.06242 16.1252 3.06242 13.3546Z" fill="url(#paint0_linear_202_123)"/>
<path d="M13.0193 3.35005C13.1986 3.35005 13.3516 3.35005 13.5308 3.37613L13.6839 0.375197C13.4784 0.375197 13.2489 0.349121 13.0456 0.349121C9.47154 0.349121 6.22978 1.81156 3.87988 4.17145L5.99807 6.301C7.78617 4.48002 10.2869 3.35005 13.0193 3.35005Z" fill="url(#paint1_linear_202_123)"/>
<path d="M13.0195 23.3592C12.8403 23.3592 12.6872 23.3592 12.508 23.3331L12.355 26.334C12.5605 26.334 12.79 26.3601 12.9933 26.3601C16.5673 26.3601 19.8112 24.8976 22.159 22.5378L20.0408 20.4082C18.2527 22.2553 15.776 23.3592 13.0195 23.3592Z" fill="url(#paint2_linear_202_123)"/>
<path d="M18.6352 5.09494L21.1622 3.2218C18.9413 1.42689 16.1083 0.322998 13.0195 0.322998V3.32393C15.1137 3.35001 17.0526 3.99104 18.6352 5.09494Z" fill="url(#paint3_linear_202_123)"/>
<path d="M25.9887 13.3546C25.9887 12.5592 25.9122 11.79 25.7832 11.0208L23.0005 13.0982C23.0005 13.1742 23.0005 13.2785 23.0005 13.3546C23.0005 16.3055 21.7239 18.9479 19.7085 20.7689L21.7239 23.0006C24.3296 20.6407 25.9887 17.1769 25.9887 13.3546Z" fill="#21A038"/>
<path d="M13.0194 23.3591C10.0837 23.3591 7.45397 22.077 5.64182 20.0496L3.4209 22.077C5.79484 24.7194 9.21585 26.36 13.0194 26.36V23.3591Z" fill="url(#paint4_linear_202_123)"/>
<path d="M6.35664 5.94018L4.33901 3.7085C1.70932 6.09446 0.076416 9.53217 0.076416 13.3545H3.06242C3.06242 10.4296 4.33901 7.76334 6.35664 5.94018Z" fill="url(#paint5_linear_202_123)"/>
<defs>
<linearGradient id="paint0_linear_202_123" x1="3.56154" y1="22.1729" x2="0.527182" y2="13.3097" gradientUnits="userSpaceOnUse">
<stop offset="0.1444" stop-color="#F2E913"/>
<stop offset="0.3037" stop-color="#E7E518"/>
<stop offset="0.5823" stop-color="#CADB26"/>
<stop offset="0.891" stop-color="#A3CD39"/>
</linearGradient>
<linearGradient id="paint1_linear_202_123" x1="4.7316" y1="3.83268" x2="12.4684" y2="0.853331" gradientUnits="userSpaceOnUse">
<stop offset="0.0592" stop-color="#0FA8E0"/>
<stop offset="0.5385" stop-color="#0099F9"/>
<stop offset="0.9234" stop-color="#0291EB"/>
</linearGradient>
<linearGradient id="paint2_linear_202_123" x1="12.1805" y1="23.8077" x2="21.4081" y2="21.7004" gradientUnits="userSpaceOnUse">
<stop offset="0.1226" stop-color="#A3CD39"/>
<stop offset="0.2846" stop-color="#86C339"/>
<stop offset="0.8693" stop-color="#21A038"/>
</linearGradient>
<linearGradient id="paint3_linear_202_123" x1="12.406" y1="2.23512" x2="20.0764" y2="4.62667" gradientUnits="userSpaceOnUse">
<stop offset="0.0566" stop-color="#0291EB"/>
<stop offset="0.79" stop-color="#0C8ACB"/>
</linearGradient>
<linearGradient id="paint4_linear_202_123" x1="4.1802" y1="22.5517" x2="12.4174" y2="25.6618" gradientUnits="userSpaceOnUse">
<stop offset="0.1324" stop-color="#F2E913"/>
<stop offset="0.2977" stop-color="#EBE716"/>
<stop offset="0.5306" stop-color="#D9E01F"/>
<stop offset="0.8023" stop-color="#BBD62D"/>
<stop offset="0.9829" stop-color="#A3CD39"/>
</linearGradient>
<linearGradient id="paint5_linear_202_123" x1="2.36509" y1="13.7171" x2="5.64591" y2="5.09278" gradientUnits="userSpaceOnUse">
<stop offset="0.0698" stop-color="#A3CD39"/>
<stop offset="0.2599" stop-color="#81C55F"/>
<stop offset="0.9216" stop-color="#0FA8E0"/>
</linearGradient>
</defs>
</svg>
