<svg width="94" height="39" viewBox="0 0 94 39" fill="none" xmlns="http://www.w3.org/2000/svg">
<g clip-path="url(#clip0_202_140)">
<path d="M41.0699 20.271C41.0699 20.1284 40.901 19.9553 40.7216 20.0877C40.2678 20.3626 39.2651 20.8717 37.8403 21.0143L32.6159 21.5845L31.7927 15.7602C33.3336 15.5667 34.8851 15.3834 35.8666 15.2919C36.9432 15.19 37.6503 15.3326 38.0513 15.4446C38.3363 15.5464 38.4735 15.3733 38.4524 15.19L38.0409 10.4247C38.0092 10.1599 37.8191 10.1599 37.6292 10.2719C37.2809 10.4756 36.7215 10.6386 35.3706 10.7709C34.0829 10.8931 32.5948 11.056 31.1489 11.2393L30.4522 6.31106C31.075 6.21943 33.1647 5.86305 35.7083 5.60849C37.5658 5.41503 38.653 5.62885 39.0329 5.74086C39.2651 5.82232 39.3601 5.66959 39.3601 5.53722L39.0962 1.0061C33.7663 1.36249 29.1224 2.02434 24.278 2.85928C24.0036 2.91019 23.9508 3.09347 24.0669 3.28694C24.5418 4.04043 24.7213 5.07902 24.9218 6.43326L27.4548 23.0406C27.6976 24.3744 27.8243 25.413 27.6976 26.3192C27.6448 26.5941 27.8664 26.6756 28.0776 26.6349C32.3309 25.9222 37.0699 25.3519 41.3865 25.1279L41.0699 20.271Z" fill="black"/>
<path d="M43.7401 24.7512C44.1517 23.7432 44.1517 22.501 44.1517 21.2893L44.1306 4.31544C44.1095 3.25648 44.0145 2.17717 43.6768 1.14876C43.6451 1.05712 43.6135 0.853475 43.8984 0.843288C45.4393 0.792383 48.0041 0.751649 49.8511 0.792383C50.1466 0.792383 50.1149 1.03675 50.0833 1.12839C49.6928 2.37063 49.7244 3.05284 49.6716 4.15252L49.6505 21.2689C49.6505 22.3279 49.7033 23.8959 50.02 24.7004C50.0727 24.8429 50.0621 24.9855 49.8616 24.9855C47.7191 24.9448 45.9671 24.9651 43.8984 25.0465C43.719 25.0465 43.6662 24.9142 43.7506 24.7512H43.7401Z" fill="black"/>
<path d="M70.1471 24.1301C69.9571 25.077 69.9043 26.0036 70.0521 27.0015C70.0838 27.1441 70.0099 27.3681 69.7249 27.307C67.8357 26.92 66.3792 26.6451 65.0493 26.4109C64.2683 24.0589 60.226 11.4023 60.1732 11.2699L58.875 22.0733C58.7695 22.949 58.6112 24.293 58.9279 25.3112C58.9806 25.5352 58.8646 25.5862 58.6957 25.5658C56.9859 25.3724 54.8433 25.1891 53.3868 25.1076C53.1124 25.0873 53.2074 24.8327 53.2391 24.7716C53.714 23.845 53.9251 22.5213 54.0306 21.6558L56.0676 4.55979C56.1626 3.70448 56.3421 2.49278 56.0676 1.42365C56.0043 1.20982 56.1309 1.04691 56.3948 1.06727C58.3051 1.22 60.5848 1.45419 62.0097 1.63748L66.8541 16.5952L68.7856 6.30095C69.1655 4.7227 69.2288 3.86739 69.0705 2.99172C69.0389 2.8288 69.1128 2.69643 69.3661 2.73716C70.8437 2.99172 73.0918 3.43974 74.6749 3.77575C74.8437 3.8063 74.8754 3.96921 74.7382 4.10159C74.1049 4.95689 73.9677 5.75112 73.63 7.1359L70.1259 24.0996L70.1471 24.1301Z" fill="black"/>
<path d="M87.8892 27.0218C86.8443 27.0931 85.4089 26.8589 84.4168 26.5229C82.1794 25.8203 81.4089 25.5861 80.0263 25.1687L93.2295 13.7951L93.1453 9.39632C87.3296 7.21731 83.541 6.10745 79.6253 5.01794L78.2109 9.50833C78.1582 9.6712 78.2532 9.83415 78.5065 9.82401C79.5303 9.78321 81.1768 10.1803 82.0211 10.4247C83.0238 10.7098 86.7807 11.8808 87.5624 12.1659L73.5354 24.3541L73.6093 28.2131C77.6516 29.2008 82.0316 30.5042 85.8208 31.9093L88.1641 27.4393C88.259 27.256 88.2161 27.0014 87.8785 27.0218H87.8892Z" fill="black"/>
<path d="M25.1115 26.7877C24.4993 25.9323 24.0666 24.8123 23.7922 23.6312L18.9689 7.4923C18.7156 6.52498 18.5256 5.39475 18.6311 4.34597C18.6628 4.20342 18.4939 4.1016 18.3778 4.13215C17.0058 4.44779 14.3988 5.11982 12.689 5.58821C12.5096 5.63912 12.4041 5.78167 12.5201 5.97514C12.974 6.68789 13.4173 7.75703 13.7023 8.93814L15.3277 14.2024C13.7867 14.5792 10.9159 15.3937 9.33279 15.8621L7.60186 10.7913C7.14803 9.58986 6.98971 8.76505 6.9686 7.72649C6.9686 7.72649 7.00026 7.33956 6.65197 7.44138C5.0055 7.97082 2.66244 8.84657 0.942085 9.47785C0.730999 9.55928 0.720445 9.73237 0.87876 9.90546C1.60701 10.771 2.05029 11.7179 2.40913 12.7667L7.79183 28.1929C8.1929 29.2416 8.5412 30.2497 8.50953 31.3901C8.50953 31.4919 8.55174 31.7261 8.81561 31.6345C10.3988 31.0846 12.6785 30.3107 14.3883 29.8016C14.5466 29.7508 14.5994 29.5776 14.4621 29.4453C13.8606 28.7427 13.3223 27.5615 13.0479 26.7775L10.7999 20.1794C13.2168 19.4768 14.3883 19.151 16.668 18.5604L18.5994 24.8429C19.0111 26.4517 19.0955 27.307 19.0005 28.2234C18.9899 28.3456 19.0955 28.4983 19.2855 28.4474C20.9214 28.0197 22.9478 27.5412 24.9637 27.1339C25.1959 27.083 25.1642 26.8692 25.0904 26.7775L25.1115 26.7877Z" fill="black"/>
<path d="M27.6858 35.974H29.67V34.7521H27.6858V33.9681H29.8072V32.7462H26.2715V38.1428H29.8705V36.8904H27.6858V35.974Z" fill="black"/>
<path d="M36.561 33.9579H37.9858V38.1428H39.3473V33.9579H40.7616V32.7462H36.561V33.9579Z" fill="black"/>
<path d="M35.8221 36.4831C35.8221 37.5726 34.9671 38.2243 33.6795 38.2243C32.7402 38.2243 31.8431 37.9289 31.1887 37.3384L32.012 36.3609C32.5396 36.7784 33.1201 37.0024 33.7323 37.0024C34.1228 37.0024 34.3339 36.87 34.3339 36.6358C34.3339 36.4016 34.1545 36.2795 33.4368 36.1063C32.3075 35.8518 31.4315 35.5361 31.4315 34.4161C31.4315 33.4284 32.2125 32.7054 33.4895 32.7054C34.3866 32.7054 35.0938 32.9498 35.6743 33.4182L34.9355 34.4569C34.45 34.1106 33.9223 33.9274 33.4473 33.9274C33.0885 33.9274 32.9197 34.0902 32.9197 34.2837C32.9197 34.5281 33.099 34.6299 33.8378 34.803C35.0621 35.0678 35.8221 35.4853 35.8221 36.4831Z" fill="black"/>
<path d="M43.4223 32.7462H42.0186V36.3405H43.4223C43.95 36.3405 44.4038 36.1674 44.731 35.8416C45.0687 35.5056 45.2587 35.027 45.2482 34.5281C45.2482 33.6422 44.6149 32.7462 43.4223 32.7462ZM43.0846 33.7644H43.4539C43.95 33.7644 44.1822 34.1615 44.1822 34.5383C44.1822 34.9252 43.9606 35.3224 43.4539 35.3224H43.0846V33.7746V33.7644Z" fill="black"/>
<path d="M42.6836 37.6031C42.6836 37.2672 42.9686 36.9922 43.3169 36.9922C43.6652 36.9922 43.9502 37.2672 43.9502 37.6031C43.9502 37.9391 43.6652 38.2141 43.3169 38.2141C42.9686 38.2141 42.6836 37.9391 42.6836 37.6031Z" fill="black"/>
<path d="M48.6887 32.7462V33.8663H49.4804V38.1428H50.8313V32.7462H48.6887Z" fill="black"/>
<path d="M56.5514 35.8009C56.4143 35.5769 56.2031 35.3835 55.9288 35.2511C56.1398 35.1086 56.2876 34.9559 56.3931 34.7929C56.5197 34.5791 56.5937 34.3551 56.5937 34.1209C56.5937 33.7034 56.4353 33.3674 56.1082 33.0925C55.781 32.8176 55.2744 32.6852 54.5883 32.6852C54.0712 32.6852 53.6596 32.7972 53.343 33.011C52.9419 33.2961 52.7413 33.6627 52.7413 34.1107C52.7413 34.3857 52.8152 34.6198 52.9525 34.8336C53.0579 34.9864 53.2163 35.129 53.438 35.2511C53.1424 35.3733 52.9313 35.5362 52.7941 35.7602C52.6569 35.974 52.583 36.249 52.583 36.5545C52.583 36.8599 52.6569 37.1654 52.8046 37.4301C52.9525 37.6949 53.1741 37.8883 53.459 38.0207C53.744 38.1531 54.1556 38.2244 54.7044 38.2244C54.9894 38.2244 55.2638 38.1938 55.5171 38.1327C55.7704 38.0716 55.9815 37.98 56.1609 37.8578C56.3298 37.7356 56.4776 37.5523 56.5937 37.3181C56.7097 37.0839 56.7731 36.8396 56.7731 36.5646C56.7731 36.2897 56.7097 36.0352 56.5726 35.8009H56.5514ZM54.6517 33.6424C54.9683 33.6424 55.2321 33.8969 55.2321 34.2023C55.2321 34.5078 54.9683 34.7623 54.6517 34.7623C54.335 34.7623 54.0712 34.5078 54.0712 34.2023C54.0712 33.8969 54.3245 33.6424 54.6517 33.6424ZM54.6517 37.1756C54.2717 37.1756 53.9762 36.8701 53.9762 36.5035C53.9762 36.137 54.2823 35.8315 54.6517 35.8315C55.0211 35.8315 55.3271 36.137 55.3271 36.5035C55.3271 36.8701 55.0211 37.1756 54.6517 37.1756Z" fill="black"/>
<path d="M61.8296 35.0575C61.4708 34.7215 60.9853 34.5586 60.4048 34.5789L61.5763 32.7156H60.0143L58.4311 35.2001C58.199 35.5462 58.0723 35.9841 58.0723 36.371C58.0723 37.5115 58.885 38.2242 60.2043 38.2242C61.5236 38.2242 62.3573 37.5115 62.3573 36.371C62.3573 35.8313 62.178 35.3833 61.8296 35.0575ZM60.2148 37.0532C59.7926 37.0532 59.4549 36.7376 59.4549 36.3506C59.4549 35.9637 59.7926 35.648 60.2148 35.648C60.637 35.648 60.9748 35.9637 60.9748 36.3506C60.9748 36.7376 60.637 37.0532 60.2148 37.0532Z" fill="black"/>
<path d="M65.5966 32.6749C64.2669 32.6749 63.4436 33.3877 63.4436 34.5384C63.4436 35.078 63.623 35.526 63.9608 35.8416C64.3196 36.1777 64.8262 36.3405 65.4279 36.3202L64.2035 38.1428H65.7655L67.3382 35.7296C67.602 35.3325 67.7181 34.9762 67.7287 34.5281C67.7287 33.3775 66.9054 32.6648 65.5862 32.6648L65.5966 32.6749ZM65.5966 35.2409C65.1745 35.2409 64.8368 34.9253 64.8368 34.5384C64.8368 34.1514 65.1745 33.8358 65.5966 33.8358C66.0188 33.8358 66.3566 34.1514 66.3566 34.5384C66.3566 34.9253 66.0188 35.2409 65.5966 35.2409Z" fill="black"/>
</g>
<defs>
<clipPath id="clip0_202_140">
<rect width="94" height="39" fill="white"/>
</clipPath>
</defs>
</svg>
