<svg width="166" height="33" viewBox="0 0 166 33" fill="none" xmlns="http://www.w3.org/2000/svg">
<g clip-path="url(#clip0_202_415)">
<mask id="mask0_202_415" style="mask-type:luminance" maskUnits="userSpaceOnUse" x="0" y="0" width="166" height="33">
<path d="M166 0H0V33H166V0Z" fill="white"/>
</mask>
<g mask="url(#mask0_202_415)">
<mask id="mask1_202_415" style="mask-type:luminance" maskUnits="userSpaceOnUse" x="0" y="0" width="166" height="33">
<path d="M166 0H0V33H166V0Z" fill="white"/>
</mask>
<g mask="url(#mask1_202_415)">
<g opacity="0.3">
<mask id="mask2_202_415" style="mask-type:luminance" maskUnits="userSpaceOnUse" x="121" y="-5" width="61" height="32">
<path d="M181.498 -4.44446H121.323V26.1624H181.498V-4.44446Z" fill="white"/>
</mask>
<g mask="url(#mask2_202_415)">
<path d="M152.691 21.6853C152.432 21.6853 152.253 21.7993 152.107 21.9295L151.686 22.3528C151.654 22.3854 151.621 22.4179 151.621 22.4668C151.621 22.5156 151.654 22.5482 151.686 22.5807L152.107 23.004C152.253 23.1505 152.432 23.2482 152.691 23.2482C153.129 23.2482 153.453 22.9063 153.453 22.4668C153.453 22.0272 153.129 21.6853 152.691 21.6853ZM152.691 22.0109C152.934 22.0109 153.129 22.2063 153.129 22.4668C153.129 22.7272 152.934 22.9226 152.691 22.9226C152.545 22.9226 152.448 22.8738 152.334 22.7598L152.026 22.4505L152.334 22.1411C152.448 22.0435 152.545 22.0109 152.691 22.0109Z" fill="#94BB1E"/>
</g>
<mask id="mask3_202_415" style="mask-type:luminance" maskUnits="userSpaceOnUse" x="121" y="-5" width="61" height="32">
<path d="M181.498 -4.44446H121.323V26.1624H181.498V-4.44446Z" fill="white"/>
</mask>
<g mask="url(#mask3_202_415)">
<path d="M150.13 21.6853C149.708 21.6853 149.368 22.0272 149.368 22.4668C149.368 22.9063 149.692 23.2482 150.13 23.2482C150.389 23.2482 150.567 23.1342 150.713 23.004L151.135 22.5807C151.167 22.5482 151.2 22.5156 151.2 22.4668C151.2 22.4179 151.183 22.3854 151.135 22.3528L150.713 21.9295C150.567 21.783 150.389 21.6853 150.13 21.6853ZM150.13 22.0109C150.275 22.0109 150.373 22.0597 150.486 22.1737L150.794 22.483L150.486 22.7924C150.373 22.9063 150.275 22.9552 150.13 22.9552C149.886 22.9552 149.692 22.7435 149.692 22.4993C149.692 22.2063 149.886 22.0109 150.13 22.0109Z" fill="#94BB1E"/>
</g>
<mask id="mask4_202_415" style="mask-type:luminance" maskUnits="userSpaceOnUse" x="121" y="-5" width="61" height="32">
<path d="M181.498 -4.44446H121.323V26.1624H181.498V-4.44446Z" fill="white"/>
</mask>
<g mask="url(#mask4_202_415)">
<path d="M151.41 22.6783C151.362 22.6783 151.329 22.7109 151.297 22.7435L150.875 23.1668C150.729 23.3133 150.632 23.4924 150.632 23.7528C150.632 24.1761 150.973 24.518 151.41 24.518C151.848 24.518 152.188 24.1924 152.188 23.7528C152.188 23.4924 152.075 23.3133 151.945 23.1668L151.524 22.7435C151.491 22.7109 151.459 22.6783 151.41 22.6783ZM151.41 23.0854L151.718 23.3947C151.832 23.5086 151.88 23.6063 151.88 23.7528C151.88 23.997 151.686 24.1924 151.426 24.1924C151.167 24.1924 150.973 23.997 150.973 23.7528C150.973 23.6063 151.021 23.5086 151.118 23.3947L151.41 23.0854Z" fill="#94BB1E"/>
</g>
<mask id="mask5_202_415" style="mask-type:luminance" maskUnits="userSpaceOnUse" x="121" y="-5" width="61" height="32">
<path d="M181.498 -4.44446H121.323V26.1624H181.498V-4.44446Z" fill="white"/>
</mask>
<g mask="url(#mask5_202_415)">
<path d="M151.41 20.4154C150.973 20.4154 150.632 20.741 150.632 21.1806C150.632 21.4411 150.746 21.6201 150.875 21.7667L151.297 22.1899C151.329 22.2225 151.362 22.2551 151.41 22.2551C151.459 22.2551 151.491 22.2225 151.524 22.1899L151.945 21.7667C152.091 21.6201 152.188 21.4411 152.188 21.1806C152.188 20.741 151.848 20.4154 151.41 20.4154ZM151.41 20.741C151.67 20.741 151.864 20.9364 151.864 21.1806C151.864 21.3271 151.815 21.4248 151.718 21.5387L151.41 21.8481L151.102 21.5387C150.989 21.4248 150.94 21.3271 150.94 21.1806C150.956 20.9364 151.151 20.741 151.41 20.741Z" fill="#94BB1E"/>
</g>
</g>
</g>
<mask id="mask6_202_415" style="mask-type:luminance" maskUnits="userSpaceOnUse" x="0" y="0" width="166" height="33">
<path d="M166 0H0V33H166V0Z" fill="white"/>
</mask>
<g mask="url(#mask6_202_415)">
<path d="M161.672 26.6995V27.5135H163.374V32.9023H164.282V27.5135H165.984V26.6995H161.672ZM158.3 30.0533H160.731V29.2718H158.3V27.5135H161.347V26.6995H157.376V32.9023H161.428V32.0883H158.283V30.0533H158.3ZM156.257 32.1697C156.063 32.1697 156.014 32.0557 155.933 31.8604C155.657 31.0952 155.674 30.737 155.479 30.2975C155.398 30.1021 155.187 29.7439 154.749 29.5974C155.057 29.4509 155.22 29.1741 155.301 28.9136C155.463 28.4578 155.511 27.774 155.69 27.5624C155.755 27.481 155.884 27.3996 155.965 27.3996C155.998 27.3996 156.03 27.3996 156.144 27.4159L156.241 27.4321V26.6833L156.176 26.667C156.111 26.6507 155.998 26.6344 155.868 26.6344C155.576 26.6344 155.122 26.7321 154.879 27.2856C154.668 27.7577 154.636 28.5066 154.393 28.8974C154.182 29.2392 153.858 29.3044 153.517 29.3044H152.756V26.6995H151.848V32.9023H152.756V30.0533H153.501C153.907 30.0533 154.312 30.0695 154.555 30.4928C154.652 30.6556 154.701 30.8998 154.814 31.3231C154.912 31.7627 155.009 32.1534 155.171 32.4627C155.398 32.8697 155.722 33 156.03 33H156.046C156.225 33 156.338 32.9674 156.468 32.9023L156.5 32.886V32.1371L156.387 32.1697C156.371 32.1697 156.322 32.1697 156.257 32.1697ZM150.081 29.3532C149.789 29.63 149.367 29.63 149.092 29.63H148.006V27.5135H149.173C149.449 27.5135 149.838 27.5461 150.097 27.774C150.227 27.8717 150.421 28.0996 150.421 28.5229C150.405 28.8974 150.259 29.1904 150.081 29.3532ZM150.713 27.1065C150.227 26.7484 149.643 26.6995 149.157 26.6995H147.082V32.9023H148.006V30.444H149.189C149.205 30.444 149.222 30.444 149.238 30.444C149.643 30.444 150.275 30.444 150.81 29.9556C151.005 29.7928 151.394 29.3369 151.394 28.5392C151.378 27.774 151.021 27.3345 150.713 27.1065ZM143.094 30.3789L143.888 27.8717L144.666 30.3789H143.094ZM144.456 26.6995H143.467L141.473 32.9023H142.332L142.867 31.144H144.909L145.477 32.9023H146.482L146.449 32.7883L144.456 26.6995ZM137.793 31.4045L136.042 26.6995H134.794V32.9023H135.588V27.9694L137.436 32.9023H138.052L139.868 27.9531V32.9023H140.776V26.6995H139.527L137.793 31.4045ZM132.67 29.3532C132.362 29.63 131.941 29.63 131.665 29.63H130.579V27.5135H131.73C132.006 27.5135 132.411 27.5461 132.67 27.774C132.8 27.8717 132.994 28.0996 132.994 28.5229C132.994 28.8974 132.849 29.1904 132.67 29.3532ZM133.286 27.1065C132.816 26.7484 132.216 26.6995 131.73 26.6995H129.655V32.9023H130.579V30.444H131.762C131.779 30.444 131.795 30.444 131.795 30.444C132.216 30.444 132.832 30.444 133.367 29.9556C133.562 29.7928 133.951 29.3369 133.951 28.5392C133.967 27.774 133.61 27.3345 133.286 27.1065ZM125.602 30.0533H128.018V29.2718H125.602V27.5135H128.65V26.6995H124.678V32.9023H128.731V32.0883H125.586V30.0533H125.602ZM118.923 32.9023H119.847V27.5135H122.392V32.9023H123.316V26.6995H118.923V32.9023ZM116.119 30.2161L114.465 26.6995H113.493L115.649 31.258C115.584 31.4696 115.454 31.779 115.276 31.9418C115.146 32.0557 114.935 32.1697 114.644 32.1697C114.53 32.1697 114.449 32.1534 114.336 32.1046L114.222 32.0557V32.8697L114.271 32.886C114.368 32.9186 114.514 32.9511 114.692 32.9511C115.033 32.9511 115.422 32.8209 115.714 32.5604C116.119 32.2022 116.297 31.6976 116.459 31.258L118.34 26.6995H117.497L116.119 30.2161ZM112.52 30.7696C112.423 31.2906 112.147 31.6162 112.05 31.7464C111.774 32.0232 111.531 32.1697 111.11 32.1697C110.413 32.1697 110.007 31.7301 109.78 31.258C109.586 30.8347 109.505 30.2486 109.505 29.7277C109.505 29.3044 109.553 28.6532 109.829 28.181C110.169 27.5787 110.623 27.4159 111.093 27.4159C111.58 27.4159 111.904 27.5787 112.18 28.0019C112.342 28.2624 112.439 28.5392 112.488 28.7508L112.504 28.8322L112.585 28.816L113.379 28.6694L113.363 28.588C113.282 28.002 113.006 27.481 112.65 27.1554C112.147 26.6833 111.612 26.5856 111.11 26.5856C110.704 26.5856 109.878 26.6507 109.229 27.4159C109.035 27.6438 108.516 28.3438 108.532 29.6788C108.532 30.4765 108.727 31.2906 109.116 31.8929C109.732 32.8372 110.558 32.9674 111.11 32.9674H111.126C111.58 32.9674 112.131 32.886 112.65 32.3162C113.006 31.9418 113.249 31.4371 113.347 30.9324L113.363 30.851L112.52 30.6719V30.7696Z" fill="#94BB1E"/>
</g>
<mask id="mask7_202_415" style="mask-type:luminance" maskUnits="userSpaceOnUse" x="0" y="0" width="166" height="33">
<path d="M166 0H0V33H166V0Z" fill="white"/>
</mask>
<g mask="url(#mask7_202_415)">
<path d="M25.1433 9.58899C23.1655 9.58899 21.8362 10.403 20.7501 11.4775L16.8433 15.515L20.7501 19.5525C21.8362 20.627 23.1655 21.441 25.1433 21.441C28.4017 21.441 30.8981 18.7873 30.8981 15.515C30.8981 12.2427 28.4179 9.58899 25.1433 9.58899ZM25.1433 12.1287C26.9427 12.1287 28.3692 13.6265 28.3692 15.515C28.3692 17.4198 26.9589 18.9013 25.1433 18.9013C24.1058 18.9013 23.3601 18.5757 22.5333 17.7454L20.28 15.4987L22.5171 13.2683C23.3601 12.4543 24.1058 12.1287 25.1433 12.1287Z" fill="#004819"/>
</g>
<mask id="mask8_202_415" style="mask-type:luminance" maskUnits="userSpaceOnUse" x="0" y="0" width="166" height="33">
<path d="M166 0H0V33H166V0Z" fill="white"/>
</mask>
<g mask="url(#mask8_202_415)">
<path d="M5.75488 9.58899C2.48027 9.58899 0 12.2427 0 15.515C0 18.7873 2.48027 21.441 5.73867 21.441C7.71641 21.441 9.0457 20.627 10.1318 19.5525L14.0387 15.515L10.148 11.4775C9.06191 10.403 7.71641 9.58899 5.75488 9.58899ZM5.75488 12.1287C6.79238 12.1287 7.53809 12.4543 8.38105 13.2846L10.6344 15.5313L8.38105 17.7454C7.53809 18.5919 6.79238 18.9013 5.75488 18.9013C3.95547 18.9013 2.52891 17.4198 2.52891 15.515C2.52891 13.6102 3.93926 12.1287 5.75488 12.1287Z" fill="#94BB1E"/>
</g>
<mask id="mask9_202_415" style="mask-type:luminance" maskUnits="userSpaceOnUse" x="0" y="0" width="166" height="33">
<path d="M166 0H0V33H166V0Z" fill="white"/>
</mask>
<g mask="url(#mask9_202_415)">
<path d="M15.4491 16.9152C15.1087 16.9152 11.4288 20.8387 11.4288 20.8387C10.3589 21.9295 9.54834 23.2644 9.54834 25.2506C9.54834 28.523 12.1907 31.0138 15.4491 31.0138C18.7075 31.0138 21.3499 28.523 21.3499 25.2506C21.3499 23.2644 20.5394 21.9295 19.4694 20.8387L15.4491 16.9152ZM15.4491 20.3666L17.67 22.6132C18.4968 23.4761 18.821 24.2087 18.821 25.2506C18.821 27.0903 17.362 28.4904 15.4491 28.4904C13.52 28.4904 12.0772 27.1066 12.0772 25.2506C12.0772 24.2087 12.4015 23.4598 13.212 22.6132L15.4491 20.3666Z" fill="#41884C"/>
</g>
<mask id="mask10_202_415" style="mask-type:luminance" maskUnits="userSpaceOnUse" x="0" y="0" width="166" height="33">
<path d="M166 0H0V33H166V0Z" fill="white"/>
</mask>
<g mask="url(#mask10_202_415)">
<path d="M15.4491 0C12.1907 0 9.54834 2.49087 9.54834 5.7632C9.54834 7.74938 10.3589 9.08436 11.4288 10.1751L15.4491 14.0987L19.4694 10.1751C20.5394 9.08436 21.3499 7.74938 21.3499 5.7632C21.3499 2.49087 18.7075 0 15.4491 0ZM15.4491 2.53971C17.3458 2.53971 18.821 3.95609 18.821 5.77948C18.821 6.82141 18.4968 7.5703 17.67 8.41687L15.4491 10.6635L13.2282 8.41687C12.4015 7.5703 12.0772 6.82141 12.0772 5.77948C12.0772 3.92353 13.52 2.53971 15.4491 2.53971Z" fill="#B5D054"/>
</g>
<mask id="mask11_202_415" style="mask-type:luminance" maskUnits="userSpaceOnUse" x="0" y="0" width="166" height="33">
<path d="M166 0H0V33H166V0Z" fill="white"/>
</mask>
<g mask="url(#mask11_202_415)">
<path d="M64.9897 20.4154C63.7415 20.4154 62.9634 19.4223 62.9634 17.7617V15.1895C62.9634 13.7731 63.7577 12.7149 64.9897 12.7149C66.319 12.7149 67.1458 13.8057 67.1458 16.5245C67.1458 18.5269 66.7081 20.4154 64.9897 20.4154ZM66.6757 10.4031C66.4649 10.3705 66.2704 10.3542 66.0759 10.3542C64.8601 10.4194 63.7577 10.8264 62.9472 11.3148V10.9403C62.9472 10.7938 63.012 10.5171 62.6554 10.5171H60.6614C60.094 10.5659 59.6563 10.9729 59.6401 11.4776V13.594V23.9808C59.6401 25.7879 60.9208 26.9112 62.4933 26.9112H62.6229C62.7851 26.9112 62.9472 26.8461 62.9472 26.5531V22.0434C63.628 22.4504 64.4872 22.7761 65.6382 22.7923C66.0597 22.7923 66.4325 22.7598 66.7892 22.6947C68.8642 22.3853 70.7446 20.5131 70.7446 16.443C70.7608 13.073 69.3343 10.5985 66.6757 10.4031Z" fill="#004819"/>
</g>
<mask id="mask12_202_415" style="mask-type:luminance" maskUnits="userSpaceOnUse" x="0" y="0" width="166" height="33">
<path d="M166 0H0V33H166V0Z" fill="white"/>
</mask>
<g mask="url(#mask12_202_415)">
<path d="M149.059 19.406C148.622 20.1712 147.973 20.4154 147.341 20.4154C146.709 20.4154 146.06 20.1712 145.623 19.406C145.347 18.9176 145.088 18.1361 145.088 16.5244C145.088 15.6453 145.136 14.4894 145.688 13.6265C146.077 12.9916 146.595 12.6986 147.341 12.6986C148.087 12.6986 148.589 12.9916 148.995 13.6265C149.546 14.4894 149.611 15.629 149.611 16.5244C149.594 18.1361 149.335 18.9013 149.059 19.406ZM147.341 10.3705C146.174 10.3705 144.601 10.6472 143.224 11.9985C142.656 12.552 141.457 14.0335 141.457 16.5244C141.457 18.4455 142.202 20.1549 143.305 21.2131C144.115 21.9783 145.444 22.7272 147.325 22.7272C149.205 22.7272 150.535 21.9783 151.345 21.2131C152.464 20.1386 153.209 18.4292 153.209 16.5244C153.209 14.0335 151.994 12.552 151.442 11.9985C150.081 10.6472 148.492 10.3705 147.341 10.3705Z" fill="#004819"/>
</g>
<mask id="mask13_202_415" style="mask-type:luminance" maskUnits="userSpaceOnUse" x="0" y="0" width="166" height="33">
<path d="M166 0H0V33H166V0Z" fill="white"/>
</mask>
<g mask="url(#mask13_202_415)">
<path d="M126.883 12.6986C127.531 12.6986 128.066 13.0405 128.374 13.4638C128.504 13.6429 128.601 13.9033 128.682 14.1964C128.78 14.4731 128.958 14.6685 129.25 14.6685H131.681C131.811 14.6685 131.908 14.5545 131.892 14.4243C131.681 13.3498 131.163 12.2916 130.401 11.5915C129.525 10.7775 128.196 10.3542 126.851 10.3542C125.343 10.3542 123.998 10.9403 123.09 11.7543C122.182 12.5684 121.209 14.115 121.209 16.557C121.209 18.592 121.906 20.2689 122.944 21.2783C123.56 21.8644 124.776 22.7272 126.786 22.7272C128.585 22.7272 129.72 22.0434 130.368 21.4899C131.082 20.855 131.633 19.9107 131.892 18.8362C131.908 18.7548 131.892 18.6083 131.698 18.6083H129.185C128.893 18.6246 128.764 18.7874 128.666 19.0479C128.666 19.0479 128.65 19.0804 128.634 19.1293C128.634 19.1456 128.634 19.1456 128.618 19.1618C128.618 19.1781 128.601 19.1944 128.601 19.2107C128.537 19.3572 128.472 19.4875 128.374 19.6177C127.969 20.2526 127.548 20.3991 126.948 20.3991C126.381 20.3991 125.829 20.2526 125.359 19.4549C125.035 18.9014 124.857 18.0874 124.857 16.5407C124.857 14.7011 125.132 13.9847 125.343 13.6266C125.651 13.073 126.235 12.6986 126.883 12.6986Z" fill="#004819"/>
</g>
<mask id="mask14_202_415" style="mask-type:luminance" maskUnits="userSpaceOnUse" x="0" y="0" width="166" height="33">
<path d="M166 0H0V33H166V0Z" fill="white"/>
</mask>
<g mask="url(#mask14_202_415)">
<path d="M50.3673 15.2708C50.3673 14.5545 50.6267 13.8707 51.0158 13.4474C51.4373 13.0079 52.0695 12.6986 52.7828 12.6986C53.6906 12.6986 54.2255 13.1381 54.5498 13.594C54.874 14.0661 55.0361 14.7173 55.0199 15.2708H50.3673ZM52.7341 10.3705C51.6804 10.3705 50.2052 10.5333 48.8273 11.7055C47.9033 12.5032 46.7361 13.9684 46.7361 16.5895C46.7361 18.8362 47.6115 20.2689 48.4382 21.0991C49.3136 21.9783 50.7564 22.7597 52.7179 22.7597C54.3066 22.7597 55.5873 22.3364 56.5113 21.6852C57.1597 21.2294 57.9541 20.4479 58.3755 19.1781C58.408 19.0804 58.4566 18.8688 58.1972 18.8688H55.4089C55.2468 18.8688 55.0685 19.0641 55.0199 19.1455C54.9226 19.3734 54.7767 19.5851 54.6308 19.7479C54.3066 20.0735 53.7554 20.4317 52.8962 20.4317C51.7777 20.4317 51.1293 19.8456 50.7726 19.1781C50.497 18.6571 50.3511 17.9408 50.3835 17.2896H58.1486C58.4566 17.2407 58.5701 17.0617 58.5863 16.6384C58.5863 16.6384 58.5863 16.5895 58.5863 16.5407C58.5539 14.6033 57.9216 13.2195 57.2246 12.3892C56.414 11.3961 54.9875 10.3705 52.7341 10.3705Z" fill="#004819"/>
</g>
<mask id="mask15_202_415" style="mask-type:luminance" maskUnits="userSpaceOnUse" x="0" y="0" width="166" height="33">
<path d="M166 0H0V33H166V0Z" fill="white"/>
</mask>
<g mask="url(#mask15_202_415)">
<path d="M94.0233 18.6246C93.2776 17.078 92.613 16.15 91.9808 16.0686C91.9808 16.0686 92.8237 16.0198 93.3911 14.4569C93.5856 13.9033 94.1368 12.6335 94.5097 11.852C94.6394 11.559 94.8663 11.2497 95.1095 10.9566C95.1419 10.9241 95.1581 10.8589 95.1581 10.8101C95.1581 10.6798 95.0446 10.5659 94.9149 10.5496H92.4833C91.8187 10.5659 91.4944 11.0869 91.2837 11.6078C90.9271 12.4381 90.7812 12.9591 90.2624 14.115C90.0192 14.6685 89.5653 15.2546 88.5765 15.2546H87.8632V10.9566C87.8632 10.8101 87.928 10.5333 87.5714 10.5333H85.4153C84.848 10.5822 84.394 11.0055 84.394 11.5101V20.6596C84.394 20.9201 84.4103 21.2783 84.5237 21.6202C84.7669 22.1411 85.237 22.5807 85.8368 22.5807H87.3607C87.7497 22.5807 87.8632 22.369 87.8632 22.076V17.2571H88.4792C89.8085 17.2571 90.3921 18.7874 90.9595 19.8619C91.4782 20.855 92.386 22.6132 93.9909 22.5318H95.9038C96.0335 22.5156 96.1308 22.4179 96.1308 22.2876C96.1308 22.2388 96.1146 22.2062 96.0983 22.1574C95.6444 21.4248 94.6394 19.7805 94.0233 18.6246Z" fill="#004819"/>
</g>
<mask id="mask16_202_415" style="mask-type:luminance" maskUnits="userSpaceOnUse" x="0" y="0" width="166" height="33">
<path d="M166 0H0V33H166V0Z" fill="white"/>
</mask>
<g mask="url(#mask16_202_415)">
<path d="M44.6288 7.1958H35.0968C34.497 7.1958 33.9458 7.70049 33.9458 8.38426C33.9458 8.38426 33.9458 19.3897 33.9458 19.4385C33.9458 19.8618 33.9944 20.3665 34.2052 20.8712C34.6429 21.8154 35.5507 22.4992 36.6368 22.6294H37.0745C37.3825 22.6294 37.4312 22.4829 37.4312 22.141V10.8751C37.4798 10.6635 37.6743 10.4844 37.9013 10.4844H41.8081C42.0351 10.4844 42.2296 10.6635 42.2782 10.8751C42.2782 10.8751 42.262 19.2594 42.2782 19.4222C42.2782 19.8455 42.3106 20.3502 42.5214 20.8549C42.9591 21.7992 43.8669 22.4829 44.953 22.6132H45.3907C45.6987 22.6132 45.7474 22.4666 45.7474 22.1248V8.36798C45.7636 7.81445 45.2772 7.1958 44.6288 7.1958Z" fill="#004819"/>
</g>
<mask id="mask17_202_415" style="mask-type:luminance" maskUnits="userSpaceOnUse" x="0" y="0" width="166" height="33">
<path d="M166 0H0V33H166V0Z" fill="white"/>
</mask>
<g mask="url(#mask17_202_415)">
<path d="M142.64 10.7775C142.672 10.6635 142.656 10.517 142.429 10.517H131.276C131.033 10.517 131.017 10.6635 131.049 10.7775C131.39 11.9171 132.232 12.9916 133.432 13.0567H134.648C134.907 13.0892 135.118 13.3009 135.118 13.5776V19.7316C135.118 20.1711 135.183 20.4642 135.361 20.8712C135.799 21.8154 136.707 22.4992 137.777 22.6132H138.214C138.522 22.6132 138.571 22.4666 138.571 22.1248V13.5776C138.571 13.3172 138.782 13.0892 139.041 13.0567H140.257C141.457 13.0078 142.299 11.9333 142.64 10.7775Z" fill="#004819"/>
</g>
<mask id="mask18_202_415" style="mask-type:luminance" maskUnits="userSpaceOnUse" x="0" y="0" width="166" height="33">
<path d="M166 0H0V33H166V0Z" fill="white"/>
</mask>
<g mask="url(#mask18_202_415)">
<path d="M165.854 22.1737C165.4 21.4411 164.395 19.7805 163.779 18.6246C163.033 17.078 162.369 16.15 161.737 16.0523C161.737 16.0523 162.579 16.0035 163.147 14.4406C163.341 13.9033 163.893 12.6172 164.265 11.8357C164.395 11.5427 164.622 11.2334 164.865 10.9403C164.898 10.9078 164.914 10.8427 164.914 10.7938C164.914 10.6636 164.817 10.5496 164.671 10.5333H162.239C161.574 10.5496 161.25 11.0706 161.039 11.5915C160.683 12.4218 160.537 12.9428 160.018 14.0987C159.775 14.6522 159.321 15.2383 158.332 15.2383H157.635V10.9566C157.635 10.8101 157.7 10.5333 157.343 10.5333H155.187C154.62 10.5822 154.182 11.0055 154.166 11.5101V20.6596C154.166 20.9201 154.182 21.2783 154.296 21.6202C154.539 22.1411 155.009 22.5807 155.625 22.5807H157.149C157.538 22.5807 157.651 22.369 157.651 22.076V17.2571H158.267C159.597 17.2571 160.18 18.7874 160.748 19.8619C161.266 20.855 162.174 22.6132 163.779 22.5318H165.692C165.822 22.5156 165.919 22.4179 165.919 22.2876C165.887 22.2388 165.87 22.2062 165.854 22.1737Z" fill="#004819"/>
</g>
<mask id="mask19_202_415" style="mask-type:luminance" maskUnits="userSpaceOnUse" x="0" y="0" width="166" height="33">
<path d="M166 0H0V33H166V0Z" fill="white"/>
</mask>
<g mask="url(#mask19_202_415)">
<path d="M101.886 20.4154C100.637 20.4154 99.8594 19.4223 99.8594 17.7617V15.1895C99.8594 13.7731 100.654 12.7149 101.886 12.7149C103.215 12.7149 104.042 13.8057 104.042 16.5245C104.058 18.5269 103.62 20.4154 101.886 20.4154ZM103.588 10.4031C103.377 10.3705 103.183 10.3542 102.988 10.3542C101.756 10.4194 100.67 10.8264 99.8432 11.3148V10.9403C99.8432 10.7938 99.908 10.5171 99.5514 10.5171H97.5574C96.99 10.5659 96.5523 10.9729 96.5361 11.4776V13.594V23.9808C96.5361 25.7879 97.8168 26.9112 99.3893 26.9112H99.5189C99.6811 26.9112 99.8594 26.8461 99.8594 26.5531V22.0434C100.54 22.4504 101.399 22.7761 102.55 22.7923C102.956 22.7923 103.345 22.7598 103.701 22.6947C105.776 22.3853 107.673 20.5131 107.673 16.443C107.673 13.073 106.263 10.5985 103.588 10.4031Z" fill="#004819"/>
</g>
<mask id="mask20_202_415" style="mask-type:luminance" maskUnits="userSpaceOnUse" x="0" y="0" width="166" height="33">
<path d="M166 0H0V33H166V0Z" fill="white"/>
</mask>
<g mask="url(#mask20_202_415)">
<path d="M112.18 15.2708C112.18 14.5545 112.439 13.8707 112.828 13.4474C113.25 13.0079 113.866 12.6986 114.595 12.6986C115.503 12.6986 116.038 13.1381 116.362 13.594C116.686 14.0661 116.848 14.7173 116.832 15.2708H112.18ZM114.546 10.3705C113.493 10.3705 112.017 10.5333 110.64 11.7055C109.716 12.5032 108.548 13.9684 108.548 16.5895C108.548 18.8362 109.424 20.2689 110.234 21.0991C111.126 21.9783 112.552 22.7597 114.514 22.7597C116.086 22.7597 117.367 22.3364 118.307 21.6852C118.956 21.2294 119.734 20.4479 120.172 19.1781C120.204 19.0804 120.253 18.8688 119.993 18.8688H117.205C117.043 18.8688 116.865 19.0641 116.832 19.1455C116.735 19.3734 116.589 19.5851 116.427 19.7479C116.103 20.0735 115.551 20.4317 114.692 20.4317C113.574 20.4317 112.925 19.8456 112.585 19.1781C112.309 18.6571 112.163 17.9408 112.196 17.2896H119.961C120.269 17.2407 120.382 17.0617 120.399 16.6384V16.5407C120.366 14.6033 119.734 13.2195 119.021 12.3892C118.226 11.3961 116.8 10.3705 114.546 10.3705Z" fill="#004819"/>
</g>
<mask id="mask21_202_415" style="mask-type:luminance" maskUnits="userSpaceOnUse" x="0" y="0" width="166" height="33">
<path d="M166 0H0V33H166V0Z" fill="white"/>
</mask>
<g mask="url(#mask21_202_415)">
<path d="M79.4174 10.5659H73.857H72.0576C72.0576 12.7312 74.165 13.4638 75.7213 13.4638H80.7305H83.0811C83.0811 11.2985 80.9736 10.5659 79.4174 10.5659Z" fill="#004819"/>
</g>
<mask id="mask22_202_415" style="mask-type:luminance" maskUnits="userSpaceOnUse" x="0" y="0" width="166" height="33">
<path d="M166 0H0V33H166V0Z" fill="white"/>
</mask>
<g mask="url(#mask22_202_415)">
<path d="M79.4174 15.1569H73.857H72.0576C72.0576 17.3221 74.165 18.0547 75.7213 18.0547H80.7305H83.0811C83.0811 15.9058 80.9736 15.1569 79.4174 15.1569Z" fill="#004819"/>
</g>
<mask id="mask23_202_415" style="mask-type:luminance" maskUnits="userSpaceOnUse" x="0" y="0" width="166" height="33">
<path d="M166 0H0V33H166V0Z" fill="white"/>
</mask>
<g mask="url(#mask23_202_415)">
<path d="M79.4174 19.7479H73.857H72.0576C72.0576 21.8969 74.165 22.6458 75.7213 22.6458H80.7305H83.0811C83.0811 20.4968 80.9736 19.7479 79.4174 19.7479Z" fill="#004819"/>
</g>
</g>
</g>
<defs>
<clipPath id="clip0_202_415">
<rect width="166" height="33" fill="white"/>
</clipPath>
</defs>
</svg>
