<svg width="79" height="29" viewBox="0 0 79 29" fill="none" xmlns="http://www.w3.org/2000/svg">
<g clip-path="url(#clip0_202_98)">
<path fill-rule="evenodd" clip-rule="evenodd" d="M5.36741 0L4.02472 3.76395H22.6314L23.9741 0H5.36741ZM3.35296 5.64506L2.01027 9.40815H20.6169L21.9596 5.64506H3.35296ZM1.34269 11.2901L0 15.0532H18.6067L19.9485 11.2901H1.34269Z" fill="#009FDF"/>
<mask id="mask0_202_98" style="mask-type:luminance" maskUnits="userSpaceOnUse" x="27" y="5" width="52" height="24">
<path d="M27.916 28.7739H78.8497V5.71741H27.916V28.7739Z" fill="white"/>
</mask>
<g mask="url(#mask0_202_98)">
<path fill-rule="evenodd" clip-rule="evenodd" d="M39.5567 16.4875V16.567C40.407 16.8864 41.2193 17.4449 41.6449 17.8036C42.9597 18.9207 43.5401 20.3964 43.5401 22.3112C43.5401 25.4634 41.9156 27.7368 39.247 28.455C38.4348 28.6942 37.5844 28.7745 35.998 28.7745H27.916V5.71741H35.0707C36.5403 5.71741 37.5455 5.79682 38.4348 6.03595C41.0264 6.75419 42.7279 8.5895 42.7279 11.5009C42.7279 13.0569 42.1864 14.3738 41.2971 15.2509C40.9105 15.6497 40.3689 16.1289 39.5567 16.4875ZM32.402 18.9207V24.9843H35.4962C36.4236 24.9843 37.2748 24.9049 37.8941 24.3062C38.5126 23.7075 38.7834 22.95 38.7834 21.9525C38.7834 21.195 38.5896 20.4767 38.2029 19.9583C37.5455 19.1205 36.7332 18.9207 35.3414 18.9207H32.402ZM32.3631 14.9315H34.8769C35.6502 14.9315 36.0369 14.9315 36.4236 14.8119C37.4685 14.4925 38.1259 13.536 38.1259 12.2191C38.1259 10.6639 37.4296 9.98497 36.4236 9.66643C35.998 9.54687 35.5732 9.50672 34.7221 9.50672H32.3631V14.9315ZM50.2692 28.7745V9.58614H43.8109V5.71741H61.7559L60.4799 9.58614H54.7552V28.7745H50.2692ZM63.1477 28.7745V5.71741H77.6897L76.4137 9.58614H67.5957V14.6924H71.1924C74.0929 14.6924 75.6015 15.4106 76.6456 16.3278C77.4578 17.0461 78.8497 18.6414 78.8497 21.7936C78.8497 24.9049 77.4189 26.6197 76.22 27.4977C74.8281 28.4943 73.3585 28.7745 70.3802 28.7745H63.1477ZM67.5957 24.9049H70.9606C72.2365 24.9049 73.0099 24.5854 73.5514 23.8672C73.8221 23.5085 74.2088 22.8697 74.2088 21.6732C74.2088 20.4767 73.8221 19.6389 73.0488 19.0402C72.5851 18.6815 71.9658 18.4826 70.9217 18.4826H67.5957V24.9049Z" fill="#0A2973"/>
</g>
</g>
<defs>
<clipPath id="clip0_202_98">
<rect width="79" height="29" fill="white"/>
</clipPath>
</defs>
</svg>
