<svg width="136" height="48" viewBox="0 0 136 48" fill="none" xmlns="http://www.w3.org/2000/svg">
<path fill-rule="evenodd" clip-rule="evenodd" d="M8.52543 39.4724C9.2199 39.4485 9.84252 39.4245 10.4173 39.4006C9.89042 37.844 9.31569 36.1677 8.69306 34.4674C8.04649 32.7672 7.42386 31.067 6.82518 29.3667L6.70545 29.6301C6.03493 31.2825 5.4123 32.863 4.86152 34.3717C4.1431 36.1916 3.54442 37.8679 3.01759 39.4006C3.3289 39.4245 3.87968 39.4485 4.69389 39.4724C5.50809 39.4964 6.13071 39.4963 6.53782 39.4963H6.6815C7.28018 39.4963 7.9028 39.4724 8.52543 39.4724ZM15.3743 40.6698C15.3743 40.8134 15.3743 41.0529 15.4222 41.3403C15.4462 41.6276 15.4941 41.8192 15.518 41.9629H15.1588C14.8954 41.6037 14.3925 41.3882 13.698 41.2684C13.0035 41.1727 12.2133 41.1248 11.3033 41.1248H4.35862C3.281 41.1248 2.41891 41.1727 1.77233 41.2445C1.12576 41.3403 0.646817 41.5798 0.335504 41.939H0.000244141C0.0481384 41.7474 0.0720855 41.5558 0.0960326 41.3642C0.11998 41.1727 0.11998 40.9332 0.11998 40.6458C0.11998 40.3824 0.0960326 40.1429 0.0720854 39.9035C0.0241911 39.664 0.0241913 39.4963 0.000244141 39.3766H1.00602C1.70049 37.7722 2.37101 36.1677 3.01759 34.5632C3.80784 32.6954 4.45441 31.0909 4.9573 29.7499C5.50809 28.3849 6.08282 26.8283 6.6815 25.1281C6.72939 25.0323 6.75334 24.9365 6.80123 24.8407C6.89702 24.8407 7.0886 24.8646 7.30412 24.8886C7.51965 24.9125 7.68728 24.9365 7.80701 24.9365C7.92675 24.9365 8.09438 24.9125 8.33385 24.8886C8.54938 24.8646 8.71701 24.8407 8.8128 24.8407C9.627 27.0678 10.513 29.5104 11.5428 32.1446C12.4288 34.4675 13.3867 36.8861 14.3925 39.3766H15.5419C15.518 39.5921 15.4941 39.8316 15.4462 40.0711C15.4222 40.3345 15.3743 40.5261 15.3743 40.6698ZM20.1637 31.953C19.9243 32.6235 19.7806 33.4138 19.7806 34.3238H23.5163C23.5163 33.4138 23.4206 32.6235 23.205 31.953C22.9177 31.0191 22.4627 30.5401 21.84 30.5401C21.7682 30.5401 21.7203 30.5401 21.6485 30.5401C21.0019 30.612 20.499 31.067 20.1637 31.953ZM24.7376 39.6161C25.2166 39.4245 25.6476 39.1611 26.0547 38.8258L26.2942 39.0414L25.7913 40.3824C24.7855 41.1008 23.66 41.46 22.4387 41.46C22.1753 41.46 21.9119 41.4361 21.6485 41.4361C20.0919 41.2924 18.8467 40.7656 17.9127 39.8077C16.8351 38.7061 16.2843 37.1735 16.2843 35.2098C16.2843 33.4856 16.7872 32.1206 17.769 31.067C18.7269 30.0612 20.0201 29.5343 21.6245 29.5104H21.7922C23.5163 29.5104 24.8095 30.0851 25.6476 31.2346C26.3661 32.2164 26.7253 33.6532 26.7253 35.4972H19.7566C19.7566 36.8382 20.0201 37.8919 20.5469 38.6582C20.8343 39.0653 21.1935 39.3766 21.6245 39.5921C22.0795 39.8316 22.6303 39.9274 23.2529 39.9274C23.7798 39.9035 24.2827 39.8077 24.7376 39.6161ZM33.9334 31.0909V41.2205C33.7657 41.2205 33.4544 41.1966 33.0234 41.1726C32.5923 41.1487 32.3528 41.1248 32.3049 41.1248C32.1373 41.1248 31.826 41.1487 31.395 41.1726C30.94 41.2205 30.7244 41.2205 30.6765 41.2205V31.0909C29.6229 31.0909 28.9284 31.1148 28.5692 31.1388C28.0424 31.2106 27.5634 31.2585 27.1084 31.3064C27.1084 31.2106 27.1324 31.067 27.1563 30.8514C27.2042 30.6599 27.2042 30.5401 27.2042 30.4922C27.2042 30.3725 27.1803 30.2288 27.1563 30.0372C27.1324 29.8456 27.1084 29.7499 27.1084 29.7259H37.5494C37.5494 29.8217 37.5254 29.9893 37.4775 30.157C37.4536 30.3725 37.4296 30.4683 37.4296 30.5162C37.4296 30.6359 37.4536 30.7796 37.4775 30.9951C37.5254 31.1867 37.5494 31.3064 37.5494 31.3304C36.9507 31.2825 36.4239 31.2106 35.9928 31.1867C35.5857 31.1149 34.8912 31.0909 33.9334 31.0909ZM46.9127 32.9827H46.3619C46.2661 32.2643 46.0267 31.6896 45.6196 31.2585C45.1885 30.7796 44.6377 30.5162 43.9193 30.5162C42.9375 30.5162 42.1712 31.067 41.6683 32.1685C41.2612 33.0306 41.0457 34.0603 41.0457 35.2098C41.0457 36.6945 41.333 37.844 41.9078 38.6582C42.4825 39.4724 43.3685 39.8795 44.6138 39.8795C45.0927 39.8795 45.5477 39.7837 46.0027 39.5921C46.4577 39.3766 46.8169 39.1132 47.1043 38.754L47.5114 39.0893L46.9127 40.5021C46.6253 40.7895 46.1703 41.029 45.4998 41.1726C44.8293 41.3403 44.2546 41.4361 43.7756 41.4361C41.9078 41.4361 40.423 40.9571 39.3454 39.9753C38.1959 38.9456 37.6212 37.5087 37.6212 35.6888C37.6212 33.7969 38.172 32.2883 39.2975 31.1627C40.423 30.0372 41.9078 29.4864 43.7996 29.4864C44.518 29.4864 45.2364 29.5583 45.9309 29.7259C46.6253 29.8935 47.248 30.157 47.8227 30.5401L46.9127 32.9827ZM49.4751 29.7259C50.0019 29.7978 50.3372 29.8217 50.5048 29.8457C50.6964 29.8457 50.8879 29.8457 51.0795 29.8457C51.5585 29.8457 52.1092 29.8217 52.7079 29.7259V34.8027C52.7558 34.8506 52.8277 34.8506 52.9234 34.8267C53.6419 34.0843 54.4082 33.2701 55.1745 32.384C56.1563 31.2346 56.9226 30.3485 57.4495 29.7499C57.5692 29.7499 57.7129 29.7738 57.9284 29.7978C58.1439 29.8217 58.3355 29.8457 58.4552 29.8457C58.575 29.8457 58.7187 29.8217 58.9581 29.7978C59.1736 29.7738 59.3413 29.7499 59.4371 29.7499V29.8935C59.03 30.4443 58.551 30.9712 58.0002 31.522C56.4437 33.1025 55.6055 33.9646 55.4858 34.1322L57.3776 37.1495C58.1679 38.4427 58.9581 39.7598 59.6765 41.1008V41.2684C59.485 41.2684 59.1497 41.2445 58.6708 41.1966C58.1918 41.1487 57.9284 41.1487 57.9044 41.1487C57.6889 41.1487 57.4016 41.1726 57.0184 41.1966C56.6113 41.2445 56.3239 41.2684 56.1324 41.2684C55.6774 40.4063 55.2463 39.6161 54.8392 38.8977C54.3124 37.9637 53.8334 37.1735 53.3784 36.503C53.2587 36.3353 53.1629 36.1916 53.0671 36.0719C52.9713 35.9522 52.8516 35.8324 52.7079 35.7367V41.2684C52.5403 41.2684 52.229 41.2445 51.7979 41.1966C51.3669 41.1487 51.1274 41.1487 51.1035 41.1487C50.9358 41.1487 50.6245 41.1726 50.1935 41.1966C49.7624 41.2445 49.5229 41.2684 49.499 41.2684V29.7259H49.4751ZM65.0646 36.958C65.8549 35.9522 66.6691 34.8027 67.5312 33.5335C68.1538 32.5517 68.9441 31.2825 69.878 29.7259L71.0993 29.7738L72.2727 29.7259V41.2205C72.1051 41.2205 71.7938 41.1966 71.3627 41.1726C70.9317 41.1248 70.6922 41.1248 70.6443 41.1248C70.3809 41.1248 70.1654 41.1248 70.0217 41.1487C69.878 41.1487 69.5428 41.1966 69.0159 41.2445V33.9167C68.1059 35.0901 67.2438 36.3114 66.3817 37.6285C65.6154 38.8019 64.897 39.9992 64.2026 41.2445C64.1307 41.2445 63.9391 41.2205 63.6997 41.1966C63.4362 41.1487 63.2207 41.1487 63.0291 41.1487C62.7418 41.1487 62.5023 41.1726 62.2628 41.1966C62.0473 41.2205 61.8797 41.2445 61.8078 41.2445V29.7259C62.2628 29.7738 62.5981 29.7738 62.8136 29.7978C63.0291 29.7978 63.2207 29.8217 63.4123 29.8217C63.8673 29.8217 64.2026 29.8217 64.4181 29.7978C64.6815 29.7499 64.897 29.7259 65.0168 29.7259V36.958H65.0646ZM76.1282 25.5352C76.7509 26.1338 77.3974 26.5888 78.044 26.9002C78.6906 27.2115 79.3611 27.3551 80.0556 27.3551C81.4684 27.3551 82.8095 26.7565 84.1026 25.5352L84.845 26.5649C84.1745 27.2354 83.4321 27.7383 82.594 28.0975C81.7558 28.4567 80.8937 28.6243 80.0316 28.6243C79.1695 28.6243 78.3314 28.4567 77.5651 28.1215C76.7748 27.7862 76.0324 27.2833 75.3619 26.5888L76.1282 25.5352ZM78.1158 36.958C78.9061 35.9761 79.7203 34.8267 80.5824 33.5335C81.229 32.5517 82.0192 31.2825 82.9532 29.7259L84.1745 29.7978L85.3479 29.7259V41.2445C85.1803 41.2445 84.8689 41.2205 84.4379 41.1726C84.0068 41.1248 83.7674 41.1248 83.7195 41.1248C83.4561 41.1248 83.2405 41.1248 83.1208 41.1487C82.9771 41.1487 82.6419 41.1966 82.115 41.2445V33.9167C81.205 35.0901 80.319 36.3353 79.4569 37.6285C78.7145 38.7779 77.9722 39.9992 77.2777 41.2445C77.2058 41.2445 77.0143 41.2205 76.7509 41.1726C76.4874 41.1248 76.2719 41.1248 76.0803 41.1248C75.793 41.1248 75.5535 41.1487 75.314 41.1726C75.0985 41.2205 74.9309 41.2445 74.859 41.2445V29.7259C75.314 29.7499 75.6493 29.7738 75.8648 29.7978C76.0803 29.8217 76.2959 29.8457 76.4874 29.8457C76.9424 29.8457 77.2777 29.8456 77.4932 29.8217C77.7806 29.7738 77.9722 29.7499 78.0919 29.7499V36.958H78.1158ZM104.601 33.0546C103.763 35.138 103.141 36.7903 102.71 38.0116C102.302 39.2329 101.967 40.3106 101.728 41.2205C101.584 41.2205 101.369 41.1966 101.081 41.1726C100.794 41.1487 100.578 41.1248 100.435 41.1248C100.267 41.1248 100.051 41.1487 99.7401 41.1726C99.4288 41.2205 99.2133 41.2205 99.0935 41.2205L96.2199 33.0546C95.9565 34.228 95.6931 35.593 95.4296 37.1256C95.1423 38.6582 94.9267 40.0232 94.7591 41.2205H92.9152C93.442 39.3527 93.9449 37.4369 94.4478 35.5211C94.9507 33.5814 95.4536 31.6417 95.9086 29.702C96.0523 29.702 96.2678 29.7259 96.5312 29.7499C96.8186 29.7978 97.0341 29.8217 97.1778 29.8217C97.3215 29.8217 97.5609 29.7978 97.8722 29.7499C98.1836 29.702 98.3751 29.702 98.423 29.702L101.273 37.5566C102.231 34.9464 103.189 32.3122 104.17 29.702C104.314 29.702 104.53 29.7259 104.793 29.7499C105.08 29.7978 105.296 29.8217 105.44 29.8217C105.583 29.8217 105.799 29.7978 106.062 29.7499C106.35 29.702 106.565 29.702 106.709 29.702C107.14 32.0009 107.547 33.9167 107.882 35.4732C108.337 37.4608 108.864 39.3527 109.439 41.2205C109.247 41.2205 108.96 41.1966 108.601 41.1726C108.241 41.1487 107.93 41.1248 107.738 41.1248C107.547 41.1248 107.26 41.1487 106.852 41.1726C106.469 41.2205 106.182 41.2205 105.99 41.2205L104.601 33.0546ZM114.516 36.958C115.306 35.9522 116.12 34.8267 116.982 33.5335C117.629 32.5517 118.395 31.2825 119.329 29.7259L120.55 29.7978L121.724 29.7259V41.2445C121.556 41.2445 121.245 41.2205 120.814 41.1726C120.383 41.1248 120.143 41.1248 120.095 41.1248C119.832 41.1248 119.616 41.1248 119.473 41.1487C119.329 41.1487 118.994 41.1966 118.467 41.2445V33.9167C117.557 35.0901 116.671 36.3353 115.833 37.6285C115.066 38.7779 114.348 39.9992 113.653 41.2445C113.582 41.2445 113.39 41.2205 113.151 41.1726C112.887 41.1248 112.672 41.1248 112.48 41.1248C112.193 41.1248 111.953 41.1487 111.714 41.1726C111.498 41.2205 111.331 41.2445 111.259 41.2445V29.7259C111.714 29.7499 112.049 29.7738 112.264 29.7978C112.48 29.8217 112.696 29.8457 112.863 29.8457C113.318 29.8457 113.653 29.8456 113.869 29.8217C114.156 29.7738 114.348 29.7499 114.492 29.7499V36.958H114.516ZM134.128 31.2346C134.823 32.2404 135.182 33.5814 135.182 35.2577C135.182 37.2693 134.703 38.8258 133.745 39.9274C132.883 40.9332 131.781 41.4121 130.464 41.4121C130.105 41.4121 129.794 41.3882 129.506 41.3163C129.171 41.2445 128.908 41.1248 128.644 40.9571C128.165 40.6458 127.758 40.2148 127.423 39.6879V47.2313C126.848 47.1594 126.298 47.1115 125.819 47.1115C125.34 47.1115 124.789 47.1355 124.19 47.2313V29.678C124.358 29.678 124.645 29.678 125.076 29.7259C125.483 29.7738 125.723 29.7738 125.771 29.7738C125.938 29.7738 126.202 29.7738 126.537 29.7259C126.872 29.678 127.136 29.678 127.303 29.678V31.7614C127.591 31.043 127.998 30.4922 128.549 30.0612C128.836 29.8456 129.147 29.678 129.506 29.5822C129.818 29.4864 130.153 29.4385 130.512 29.4385C132.117 29.4864 133.314 30.0612 134.128 31.2346ZM131.159 38.6103C131.542 37.844 131.71 36.8143 131.71 35.5211C131.71 34.0843 131.542 32.9588 131.231 32.1925C130.919 31.4022 130.392 31.0191 129.626 31.0191H129.506C128.668 31.067 128.07 31.6417 127.686 32.7672C127.423 33.5335 127.303 34.5153 127.303 35.6648C127.303 36.7664 127.423 37.6524 127.639 38.3229C127.974 39.4006 128.596 39.9274 129.482 39.9274H129.506C130.249 39.8077 130.776 39.3766 131.159 38.6103Z" fill="#0068B4"/>
<path fill-rule="evenodd" clip-rule="evenodd" d="M105.44 11.526C104.673 13.6573 103.883 15.2139 103.261 16.2436C102.638 17.3213 101.417 17.872 100.219 17.6326C99.0698 17.417 97.4174 16.986 95.3101 16.2436C93.2027 15.4773 91.6701 14.7589 90.6404 14.2081C89.5627 13.6334 88.988 12.4121 89.2035 11.1908C89.3951 9.99342 89.8022 8.31712 90.5685 6.18583C91.3348 4.05453 92.1251 2.49796 92.7477 1.46824C93.3703 0.390614 94.5916 -0.160167 95.789 0.0793041C96.9385 0.294828 98.5908 0.725874 100.698 1.46824C102.806 2.23454 104.338 2.95296 105.368 3.50374C106.445 4.07847 107.02 5.29978 106.805 6.52109C106.613 7.71844 106.206 9.39474 105.44 11.526Z" fill="#009EE3"/>
<path fill-rule="evenodd" clip-rule="evenodd" d="M85.3481 6.1619C86.1384 8.2932 86.5215 9.9695 86.7371 11.1669C86.9526 12.3882 86.3779 13.5855 85.3002 14.1842C84.2705 14.735 82.7379 15.4773 80.6305 16.2437C78.5232 17.01 76.8708 17.441 75.7453 17.6565C74.548 17.896 73.3267 17.3452 72.704 16.2676C72.0814 15.2379 71.2912 13.6813 70.5248 11.55C69.7346 9.41871 69.3275 7.74241 69.1359 6.54506C68.9204 5.32375 69.4951 4.12639 70.5727 3.52771C71.6025 2.97693 73.1111 2.23457 75.2424 1.46826C77.3498 0.70195 79.0021 0.270903 80.1516 0.0553783C81.349 -0.184093 82.5703 0.366688 83.1929 1.44431C83.7676 2.49798 84.5579 4.03061 85.3481 6.1619Z" fill="#00963F"/>
<path fill-rule="evenodd" clip-rule="evenodd" d="M65.3042 11.526C64.5379 13.6573 63.7476 15.2139 63.125 16.2436C62.5024 17.3213 61.2811 17.872 60.0837 17.6326C58.9343 17.417 57.2819 16.986 55.1746 16.2436C53.0672 15.4773 51.5346 14.7589 50.5049 14.2081C49.4272 13.6334 48.8525 12.4121 49.068 11.1908C49.2596 9.99342 49.6667 8.31712 50.433 6.18583C51.1993 4.05453 51.9896 2.49796 52.6122 1.46824C53.2348 0.390614 54.4561 -0.160167 55.6535 0.0793041C56.803 0.294828 58.4553 0.725874 60.5627 1.46824C62.67 2.23454 64.2026 2.95296 65.2324 3.50374C66.31 4.07847 66.8847 5.29978 66.6692 6.52109C66.4537 7.71844 66.0705 9.39474 65.3042 11.526Z" fill="#FBBB1F"/>
<path fill-rule="evenodd" clip-rule="evenodd" d="M45.2124 6.1619C46.0026 8.2932 46.3858 9.9695 46.6013 11.1669C46.8168 12.3882 46.2421 13.5855 45.1645 14.1842C44.1348 14.735 42.6021 15.4773 40.4948 16.2437C38.3874 17.01 36.7351 17.441 35.6096 17.6565C34.4122 17.896 33.1909 17.3452 32.5683 16.2676C31.9457 15.2379 31.1554 13.6813 30.3891 11.55C29.5988 9.41871 29.1917 7.74241 29.0002 6.54506C28.7846 5.32375 29.3594 4.12639 30.437 3.52771C31.4667 2.97693 32.9754 2.23457 35.1067 1.46826C37.214 0.70195 38.8664 0.270903 40.0159 0.0553783C41.2132 -0.184093 42.4345 0.366688 43.0571 1.44431C43.6319 2.49798 44.4221 4.03061 45.2124 6.1619Z" fill="#E3000F"/>
</svg>
