<svg width="169" height="37" viewBox="0 0 169 37" fill="none" xmlns="http://www.w3.org/2000/svg">
<g clip-path="url(#clip0_202_326)">
<path d="M30.9721 5.04931C31.1404 4.66744 31.1404 4.66744 32.0662 2.41858C29.8359 2.16399 28.6155 1.95184 26.6798 1.99426C24.1549 0.72133 21.3354 0 18.3476 0C8.20592 0 0 8.27408 0 18.5C0 28.7259 8.20592 37 18.3476 37C28.4893 37 36.6952 28.7259 36.6952 18.5C36.6952 13.1961 34.4649 8.4438 30.9721 5.04931Z" fill="white"/>
<path d="M29.6241 7.63678C29.582 7.59436 29.5399 7.59436 29.4978 7.59436C29.4557 7.59436 29.4137 7.63678 29.3716 7.63678C28.6142 8.52784 27.7304 9.33403 26.7625 9.9705C24.8268 11.201 22.6385 11.8799 20.324 11.8799C16.0317 11.8799 13.5909 9.75835 11.6131 8.23082C11.571 8.18839 11.529 8.14596 11.529 8.10353C11.529 8.06109 11.571 8.01867 11.6131 7.97623C14.6851 5.60009 17.21 4.07256 19.777 3.18151C19.8611 3.13908 19.9032 3.09665 19.9032 3.01179C19.9032 2.92692 19.8191 2.88449 19.7348 2.84206C19.272 2.79963 18.8091 2.79963 18.3462 2.79963C9.71944 2.7572 2.73389 9.80077 2.73389 18.4992C2.73389 23.2939 4.83797 27.5795 8.20451 30.4648C8.24659 30.5072 8.28867 30.5072 8.37283 30.5072C8.41492 30.5072 8.457 30.4648 8.49908 30.3799L9.1303 28.3432C9.17238 28.2583 9.25654 28.2159 9.34071 28.2159C17.6729 30.0404 21.2498 25.5003 20.6607 22.6574C20.1557 20.2389 16.2421 18.1173 10.519 21.3844C10.4769 21.4269 10.4348 21.4269 10.3928 21.3844C10.3928 21.3844 10.3507 21.3844 10.3507 21.3421C10.3086 21.2996 10.2665 21.2572 10.2665 21.1723L12.2022 11.201C12.2022 11.1586 12.2443 11.1161 12.2865 11.0737C12.3285 11.0313 12.4126 11.0737 12.4548 11.0737C13.0018 11.4132 14.643 12.474 16.4104 13.5347C16.4525 13.5772 16.4946 13.6196 16.4946 13.7045C16.4525 14.1287 16.2 15.6987 16.1159 16.3776C16.1159 16.42 16.1159 16.5049 16.158 16.5473C16.2 16.5898 16.2421 16.5898 16.3263 16.5898C25.9209 14.0015 27.9408 20.0691 27.6883 22.9545C27.0992 29.5313 19.9032 33.0106 13.5068 33.0955C13.4227 33.0955 13.3385 33.1379 13.3385 33.2228C13.3385 33.3077 13.3805 33.3925 13.4647 33.3925C15.0218 33.9017 16.6629 34.1987 18.3462 34.1987C26.9729 34.1987 33.9585 27.1551 33.9585 18.4568C33.9585 14.2985 32.2753 10.4372 29.6241 7.63678Z" fill="#E61801"/>
<path d="M14.3091 8.06177C19.4851 12.0079 27.0598 10.0136 29.5847 3.86108C24.9137 6.10994 19.7376 7.5526 14.3091 8.06177Z" fill="#78B617"/>
<path d="M14.3091 8.06174C19.7376 7.595 24.8716 6.15234 29.5847 3.86105C24.3245 3.26702 18.8539 4.58238 14.3091 8.06174Z" fill="#28A62A"/>
<path d="M93.4628 14.4272C91.485 14.4272 90.3067 15.7001 89.3388 17.2701H89.2966C89.2966 15.6577 88.6654 14.4272 86.856 14.4272C84.7098 14.4272 83.5736 16.0395 82.8161 17.3974H82.774C82.9003 16.8882 83.0265 16.1668 83.1527 15.5728C83.1949 15.3607 83.1107 15.1485 82.9845 15.0212C82.8582 14.8515 82.6478 14.7666 82.4374 14.7666H80.2912L78.3554 25.6714C78.3133 25.8412 78.3554 26.0533 78.4817 26.2231C78.608 26.3504 78.7763 26.4352 78.9867 26.4352H81.2591L81.4274 25.4593C82.5636 18.9673 84.1206 17.1852 85.3831 17.1852C86.2668 17.1852 86.393 18.0338 86.1826 19.1794L85.0043 25.5441C84.9623 25.7563 85.0043 25.9685 85.1727 26.1382C85.299 26.3079 85.5094 26.3928 85.7198 26.3928H87.95L88.1184 25.4168C89.2546 18.9673 90.8116 17.1428 92.0741 17.1428C92.9157 17.1428 93.042 17.949 92.8316 19.1371L91.6533 25.6714C91.6111 25.8412 91.6533 26.0109 91.7795 26.1806C91.9058 26.3079 92.0741 26.3928 92.2424 26.3928H94.5569L95.8615 19.0098C95.9876 18.4157 96.0297 17.8641 96.0297 17.3974C95.9876 15.4455 95.0618 14.4272 93.4628 14.4272ZM106.34 11.9662L107.35 12.1359C107.644 12.1783 107.897 12.2208 107.981 11.754L108.318 10.4811C108.402 10.0992 108.276 10.0143 107.897 9.92948L106.971 9.75976C106.761 9.75976 106.424 9.6749 106.34 10.1416L105.961 11.457C105.919 11.754 106.003 11.9237 106.34 11.9662ZM76.8826 14.7666H72.464C69.1817 14.7666 66.9934 16.1668 66.9934 18.7976C66.9934 20.1978 67.9612 21.0889 68.9291 21.1737V21.2162C68.5504 21.3435 68.1296 21.8527 67.6667 22.4043C66.8672 23.4226 66.278 24.1015 65.773 24.1015C65.6888 24.1015 65.6047 24.1863 65.5626 24.2713L65.3101 26.0958C65.3101 26.1806 65.3101 26.2655 65.3943 26.3079C65.4364 26.3504 65.5206 26.3928 65.6047 26.3928H66.5305C68.0455 26.3928 68.5504 25.7987 70.0233 23.9317C71.1595 22.4043 71.5803 21.9375 72.2957 21.9375H72.8006L72.0853 26.0533C72.0853 26.1382 72.0853 26.2231 72.1274 26.2655C72.1694 26.3504 72.2536 26.3504 72.3378 26.3504H74.9047C75.031 26.3504 75.1573 26.2655 75.1573 26.1382L77.1351 15.0212C77.1351 14.9364 77.1351 14.8515 77.093 14.8091C77.0509 14.8091 76.9667 14.7666 76.8826 14.7666ZM73.2215 19.8584H71.6223C70.6124 19.8584 70.1495 19.519 70.1495 18.84C70.1495 17.6944 70.8649 17.1004 72.2536 17.1004H73.7686L73.2215 19.8584ZM69.1817 9.37788C81.4695 8.8687 100.869 11.16 100.869 11.16C101.122 11.2024 101.332 11.0751 101.416 10.863L101.627 10.2265L101.963 9.16573C102.005 9.08086 101.963 9.03843 101.921 8.95357C101.879 8.91114 101.837 8.8687 101.753 8.82628C99.3542 8.48682 81.6378 6.19554 68.7608 6.49256C56.6413 6.78958 46.4575 9.20815 43.7222 9.92948C43.5118 9.97191 43.3435 10.1416 43.3014 10.3962L43.0068 11.9662C43.0068 12.051 43.0068 12.1359 43.091 12.1783C43.1331 12.2208 43.2172 12.2632 43.3014 12.2208C45.4897 11.7116 48.5616 11.2024 52.6014 10.6932L49.9082 25.8836C49.8241 26.1382 49.8241 26.4352 50.3291 26.4352H52.9381C53.1064 26.4352 53.3168 26.3928 53.401 25.9685L55.9259 11.2873C55.9259 11.2449 56.0943 10.4811 56.9359 10.2689C58.03 10.1416 59.9236 10.0568 61.0598 9.92948L58.2404 25.8836C58.1562 26.4352 58.4088 26.3928 58.6192 26.3928H61.3545C61.5649 26.3928 61.9015 26.3504 61.9857 25.8412L64.6368 10.5235C64.6368 10.5235 64.8052 9.71732 65.6468 9.5476C66.9934 9.50517 67.8351 9.42031 69.1817 9.37788ZM103.142 11.5419L104.278 11.7116C104.572 11.754 104.825 11.7965 104.951 11.3297L105.33 10.0143C105.414 9.59004 105.288 9.50517 104.909 9.42031L103.857 9.29301C103.647 9.25059 103.31 9.20815 103.184 9.6749L102.805 11.0327C102.679 11.2873 102.763 11.457 103.142 11.5419ZM107.56 17.4822C107.56 15.5728 106.256 14.4696 104.025 14.4696C100.322 14.4696 97.3764 17.6944 97.3764 22.0648C97.3764 24.8228 98.8913 26.7322 101.795 26.7322C104.067 26.7322 105.54 25.8412 106.424 25.035L105.204 22.9558C104.488 23.5923 103.478 24.1863 102.258 24.1863C100.995 24.1863 100.49 23.3802 100.448 22.0648C104.32 21.6405 107.56 20.3251 107.56 17.4822ZM100.659 20.0705C101.08 18.3733 102.047 16.8458 103.52 16.8458C104.236 16.8458 104.614 17.1428 104.614 17.8217C104.572 19.0522 102.973 19.8584 100.659 20.0705ZM116.692 14.4272C114.672 14.4272 113.62 15.8274 112.652 17.4822H112.61C112.736 17.0579 112.82 16.676 112.905 16.2518C112.989 15.8699 112.905 15.488 112.652 15.191C112.4 14.8939 112.063 14.7242 111.684 14.7242H110.211L107.139 31.6118H108.865C109.622 31.6118 110.295 31.0602 110.422 30.2964L111.095 26.5201C111.348 26.6049 111.852 26.6898 112.694 26.6898C116.692 26.6898 119.596 23.4226 119.596 18.3733C119.68 15.9972 118.501 14.4272 116.692 14.4272ZM112.778 24.3986C112.105 24.3986 111.768 24.3136 111.6 24.2713L111.726 23.6348C112.61 19.3492 114.083 17.1852 115.471 17.1852C116.187 17.1852 116.524 17.8641 116.524 18.9249C116.439 22.3194 114.798 24.3986 112.778 24.3986ZM165.002 14.4272C160.71 14.4272 157.722 17.8641 157.722 22.871C157.722 25.2472 158.942 26.6898 160.71 26.6898C162.603 26.6898 163.739 25.2895 164.623 23.5923H164.665C164.539 24.1015 164.454 24.738 164.37 25.332C164.328 25.5866 164.413 25.8836 164.623 26.0958C164.791 26.3079 165.043 26.4352 165.338 26.4352H167.317C167.358 25.5866 167.485 23.6772 168.031 20.4524L168.999 15.1485C168.494 14.8939 167.106 14.4272 165.002 14.4272ZM165.549 17.5671C164.749 21.9375 163.234 24.0167 161.971 24.0167C161.256 24.0167 160.919 23.465 160.919 22.3194C160.919 19.0522 162.645 16.7609 164.539 16.7609C165.002 16.7609 165.422 16.8458 165.633 16.8882L165.549 17.5671ZM153.681 21.8102C153.345 21.1313 153.008 20.6645 152.672 20.3676L157.763 14.7666H154.987C154.523 14.7666 154.06 14.9788 153.724 15.3607L150.147 19.519H149.516L150.189 15.7001C150.231 15.488 150.189 15.2334 150.02 15.0637C149.894 14.8939 149.641 14.7666 149.432 14.7666H147.201L145.181 26.4352H147.412C147.916 26.4352 148.337 26.0533 148.421 25.5866L149.137 21.6405H149.473C150.147 21.6405 150.568 22.3618 151.283 23.9317C152.124 25.7563 152.545 26.4352 154.019 26.4352H155.239L155.659 24.1015H155.407C154.86 24.1015 154.397 23.3802 153.681 21.8102ZM141.141 15.488C140.678 18.4581 139.163 20.41 137.69 20.41C136.933 20.41 136.681 19.8584 136.891 18.5854L137.27 16.2941C137.311 15.9123 137.227 15.5304 136.975 15.2334C136.723 14.9364 136.386 14.7666 136.007 14.7666H134.45L133.735 18.7127C133.651 19.2219 133.609 19.7311 133.609 20.1554C133.609 22.1072 134.534 23.168 136.175 23.168C138.238 23.168 139.585 21.8102 140.426 20.3251H140.468C140.131 22.1072 139.669 24.738 139.501 26.3928H142.488C142.53 25.5441 142.741 23.6348 143.288 20.41L144.297 14.7242H141.226L141.141 15.488ZM127.339 14.4272C123.593 14.4272 120.774 17.7793 120.774 21.8102C120.774 24.4834 122.415 26.6898 125.403 26.6898C129.232 26.6898 131.883 23.5075 131.883 19.3067C131.926 16.5487 130.242 14.4272 127.339 14.4272ZM125.697 24.3136C124.519 24.3136 123.93 23.2953 123.93 21.7678C123.93 19.6038 125.15 16.8458 127.086 16.8458C128.264 16.8458 128.853 17.7368 128.853 19.3492C128.853 21.4708 127.759 24.3136 125.697 24.3136Z" fill="#E61801"/>
</g>
<defs>
<clipPath id="clip0_202_326">
<rect width="169" height="37" fill="white"/>
</clipPath>
</defs>
</svg>
