<svg width="176" height="50" viewBox="0 0 176 50" fill="none" xmlns="http://www.w3.org/2000/svg">
<g clip-path="url(#clip0_202_333)">
<path d="M176 0H0V50H176V0Z" fill="white"/>
<mask id="mask0_202_333" style="mask-type:luminance" maskUnits="userSpaceOnUse" x="1" y="11" width="174" height="28">
<path d="M174.46 11.9565H1.54028V38.6352H174.46V11.9565Z" fill="white"/>
</mask>
<g mask="url(#mask0_202_333)">
<path d="M84.7715 25.1121C85.6233 25.0446 87.4345 24.6799 87.4345 23.0784C87.4345 21.5608 85.7588 20.8494 84.0568 20.8494H78.3506V29.7434H84.2395C85.8843 29.7434 87.8015 29.1159 87.8015 27.3434C87.8031 25.4721 85.9702 25.1787 84.7715 25.1121ZM81.0863 22.8526H83.3451C83.7571 22.8526 84.6732 22.8941 84.6732 23.6078C84.6732 24.3419 83.7571 24.3631 83.3451 24.3631H81.0863V22.8526ZM83.3095 27.7387H81.0863V26.0603H83.3119C83.7695 26.0603 85.0433 26.0156 85.0433 26.8995C85.041 27.8117 83.7873 27.7387 83.3119 27.7387H83.3095ZM72.3625 20.6462C70.6752 20.6462 69.5585 21.3341 68.9167 22.4094V20.8494H66.3535V33.1378H69.1017V28.432C69.7685 29.3615 70.8378 29.9457 72.3734 29.9457C75.0681 29.9457 76.7097 27.974 76.7097 25.2815C76.7082 22.5748 75.0573 20.6462 72.3625 20.6462ZM71.4797 27.8085C69.9156 27.8085 68.9863 26.7701 68.9863 25.2807C68.9863 23.7914 69.9009 22.7858 71.4643 22.7858C73.0277 22.7858 73.9964 23.7914 73.9964 25.2807C73.9964 26.7701 73.0416 27.8085 71.4797 27.8085ZM136.885 20.6462C135.198 20.6462 134.082 21.3341 133.439 22.4094V20.8494H130.875V33.1378H133.624V28.432C134.291 29.3615 135.36 29.9457 136.896 29.9457C139.591 29.9457 141.232 27.974 141.232 25.2815C141.234 22.5748 139.58 20.6462 136.885 20.6462ZM136.003 27.8085C134.442 27.8085 133.509 26.7701 133.509 25.2807C133.509 23.7914 134.423 22.7858 135.987 22.7858C137.552 22.7858 138.52 23.7914 138.52 25.2807C138.52 26.7701 137.565 27.8085 136.003 27.8085ZM43.2454 20.8494H52.7636V29.7434H50.0147V23.1411H45.9935V29.7434H43.2454V20.8494ZM99.6917 20.8494H102.438V29.7434H99.6902L99.6917 20.8494ZM94.2798 23.7348H92.1518V20.8494H89.4036V29.7434H94.282C97.0408 29.7434 98.4205 28.7418 98.4209 26.7387C98.4215 24.7356 97.0411 23.7343 94.2798 23.7348ZM94.0954 27.6728H92.1518V25.7371H94.0954C95.1564 25.7371 95.687 26.0597 95.6876 26.7049C95.688 27.3502 95.1573 27.6728 94.0954 27.6728ZM119.951 20.8494H129.502V23.1411H126.1V29.7434H123.353V23.1411H119.951V20.8494ZM174.46 20.8494V23.1411H171.058V29.7434H168.31V23.1411H164.908V20.8494H174.46ZM59.5656 20.6502C56.6323 20.6502 54.3891 22.0274 54.3891 25.3043C54.3891 28.1756 56.2823 29.9591 59.5656 29.9591C62.9967 29.9591 64.1946 28.683 64.5826 27.2642H61.7245C61.3234 27.8657 60.6272 28.0273 59.6206 28.0273C58.2918 28.0273 57.4214 27.363 57.1612 26.1285H64.7499C64.7622 25.8446 64.7561 25.567 64.7444 25.3043C64.6221 22.5968 63.3397 20.6502 59.5656 20.6502ZM57.1651 24.3976C57.4322 23.1599 58.2995 22.5639 59.6182 22.5639C60.9587 22.5639 61.8189 23.0478 62.0644 24.3976H57.1651ZM147.662 20.6502C144.729 20.6502 142.485 22.0274 142.485 25.3043C142.485 28.1756 144.379 29.9591 147.662 29.9591C151.094 29.9591 152.292 28.683 152.68 27.2642H149.821C149.421 27.8657 148.724 28.0273 147.717 28.0273C146.389 28.0273 145.519 27.363 145.258 26.1285H152.848C152.858 25.8446 152.853 25.567 152.841 25.3043C152.721 22.5968 151.44 20.6502 147.664 20.6502H147.662ZM145.261 24.3976C145.529 23.1599 146.396 22.5639 147.713 22.5639C149.055 22.5639 149.915 23.0478 150.16 24.3976H145.261ZM110.545 20.8494H114.584V29.7434H111.95V22.8862L108.483 29.7434H104.452V20.8494H107.084V27.7066L110.545 20.8494ZM106.363 17.1334H108.168C108.245 17.7734 108.556 18.3264 109.519 18.3303C110.484 18.3342 110.794 17.7734 110.87 17.1334H112.676C112.598 18.5389 111.963 19.8486 109.519 19.8486C107.077 19.8486 106.444 18.5381 106.363 17.1334ZM161.419 26.4532H164.124C163.724 28.6603 162.096 29.9504 159.218 29.9504C155.981 29.9504 154.132 28.1669 154.132 25.2964C154.132 22.4258 155.981 20.6416 159.218 20.6416C162.201 20.6416 163.737 22.0235 164.123 24.1395H161.419C161.079 23.2839 160.318 22.7858 159.218 22.7858C157.69 22.7858 156.818 23.7474 156.818 25.2956C156.818 26.8439 157.692 27.8054 159.218 27.8054C160.316 27.8054 161.077 27.3081 161.417 26.4524L161.419 26.4532Z" fill="#0D0802"/>
<path d="M25.6854 11.9565L21.2956 20.8497H32.2704V11.9565H25.6854ZM1.54028 20.8497H12.5152V38.6352H16.3567V16.9588H3.46068L1.54028 20.8497ZM5.93008 11.9565L4.00969 15.8474H17.4539V38.6352H21.2956V11.9565H5.93008Z" fill="#FBBA00"/>
</g>
</g>
<defs>
<clipPath id="clip0_202_333">
<rect width="176" height="50" fill="white"/>
</clipPath>
</defs>
</svg>
