<svg width="20" height="16" viewBox="0 0 20 16" fill="none" xmlns="http://www.w3.org/2000/svg">
<path d="M19.0006 0.714592C18.9154 0.705813 18.8295 0.705813 18.7443 0.714592H1.24434C1.13218 0.71632 1.02076 0.733137 0.913086 0.764592L9.94434 9.75834L19.0006 0.714592Z" fill="#E02618"/>
<path d="M19.925 1.58351L10.825 10.646C10.5908 10.8788 10.274 11.0095 9.94375 11.0095C9.61352 11.0095 9.2967 10.8788 9.0625 10.646L0.04375 1.65226C0.0160246 1.75416 0.00132418 1.85916 0 1.96476V14.4648C0 14.7963 0.131696 15.1142 0.366117 15.3486C0.600537 15.5831 0.918479 15.7148 1.25 15.7148H18.75C19.0815 15.7148 19.3995 15.5831 19.6339 15.3486C19.8683 15.1142 20 14.7963 20 14.4648V1.96476C19.995 1.83455 19.9697 1.70591 19.925 1.58351ZM2.10625 14.4648H1.2375V13.571L5.78125 9.06476L6.6625 9.94601L2.10625 14.4648ZM18.7375 14.4648H17.8625L13.3062 9.94601L14.1875 9.06476L18.7312 13.571L18.7375 14.4648Z" fill="#E02618"/>
</svg>
