<svg width="52" height="40" viewBox="0 0 52 40" fill="none" xmlns="http://www.w3.org/2000/svg">
<path d="M48.8774 34.4905H3.12264C1.95034 34.4905 1 35.4409 1 36.6132C1 37.7855 1.95034 38.7358 3.12264 38.7358H48.8774C50.0497 38.7358 51 37.7855 51 36.6132C51 35.4409 50.0497 34.4905 48.8774 34.4905Z" stroke="white" stroke-width="1.5"/>
<path d="M2.88683 34.4905C-1.83014 2.41509 51 -3.00002 49.1133 34.4905" stroke="white" stroke-width="1.5"/>
<path d="M25.9999 1C27.8235 1 29.3018 2.4783 29.3018 4.30189C29.3018 6.12547 27.8235 7.60377 25.9999 7.60377C24.1763 7.60377 22.698 6.12547 22.698 4.30189C22.698 2.4783 24.1763 1 25.9999 1Z" stroke="white" stroke-width="1.5"/>
</svg>
