<svg width="49" height="49" viewBox="0 0 49 49" fill="none" xmlns="http://www.w3.org/2000/svg">
<path d="M17.9978 48H4.54105C3.03603 48 1.75891 46.882 1.59453 45.386C-1.10699 20.8 6.32114 15.0497 5.51488 4.39635C5.50156 4.22044 5.63939 4.06525 5.8158 4.06525H15.9156C16.0812 4.06525 16.2155 4.20766 16.2167 4.37334C16.3119 17.4219 22.4517 16.1505 20.9747 45.1856C20.8943 46.7666 19.5809 48 17.9978 48Z" stroke="white" stroke-width="1.5"/>
<path d="M44.409 48H30.9522C29.4472 48 28.17 46.8819 28.0057 45.3859C25.3041 20.8 32.7323 15.0496 31.926 4.39632C31.9127 4.22041 32.0505 4.06522 32.2269 4.06522H42.3267C42.4924 4.06522 42.6266 4.20762 42.6278 4.37331C42.723 17.4219 48.8628 16.1504 47.3859 45.1856C47.3054 46.7666 45.992 48 44.409 48Z" stroke="white" stroke-width="1.5"/>
<path d="M6.50894 4.06522H5.76377C5.01457 4.06522 4.37519 3.52357 4.25202 2.78457V2.78457C4.09632 1.85039 4.81671 1 5.76377 1H16.4498C17.199 1 17.8383 1.54164 17.9615 2.28065V2.28065C18.1172 3.21482 17.3968 4.06522 16.4498 4.06522H15.1937" stroke="white" stroke-width="1.5"/>
<path d="M32.9203 4.06522H32.1751C31.426 4.06522 30.7866 3.52357 30.6634 2.78457V2.78457C30.5077 1.85039 31.2281 1 32.1752 1H42.8611C43.6103 1 44.2497 1.54164 44.3729 2.28065V2.28065C44.5286 3.21482 43.8082 4.06522 42.8611 4.06522H41.6051" stroke="white" stroke-width="1.5"/>
<path d="M4.97656 11.2174C7.02004 8.76526 9.57439 9.85512 10.5961 10.7066C13.8657 13.1587 16.0454 12.0689 16.7266 11.2174" stroke="white" stroke-width="1.5"/>
</svg>
