<svg width="50" height="49" viewBox="0 0 50 49" fill="none" xmlns="http://www.w3.org/2000/svg">
<path d="M29.7667 14.0555H21.3223C20.77 14.0555 20.3223 13.6078 20.3223 13.0555V11.4C20.3223 10.8477 20.77 10.4 21.3223 10.4H29.7667C30.319 10.4 30.7667 10.8477 30.7667 11.4V13.0555C30.7667 13.6078 30.319 14.0555 29.7667 14.0555Z" stroke="white" stroke-width="1.5"/>
<path d="M44.3888 14.0555H35.9443C35.3921 14.0555 34.9443 13.6078 34.9443 13.0555V11.4C34.9443 10.8477 35.392 10.4 35.9443 10.4H44.3888C44.9411 10.4 45.3888 10.8477 45.3888 11.4V13.0555C45.3888 13.6078 44.9411 14.0555 44.3888 14.0555Z" stroke="white" stroke-width="1.5"/>
<path d="M21.8889 14.0555V22.9333" stroke="white" stroke-width="1.5"/>
<path d="M29.2 14.0555V22.9333" stroke="white" stroke-width="1.5"/>
<path d="M36.5112 14.0555V22.9333" stroke="white" stroke-width="1.5"/>
<path d="M43.3 14.0555V22.9333" stroke="white" stroke-width="1.5"/>
<path d="M46.9556 43.3V23.9333C46.9556 23.381 46.5078 22.9333 45.9556 22.9333H4.08889C3.5366 22.9333 3.08889 23.381 3.08889 23.9333V29.7222V43.3M2 43.3H48.0444C48.5967 43.3 49.0444 43.7477 49.0444 44.3V47C49.0444 47.5523 48.5967 48 48.0444 48H2C1.44772 48 1 47.5523 1 47V44.3C1 43.7477 1.44772 43.3 2 43.3Z" stroke="white" stroke-width="1.5"/>
<path d="M3.08887 30.2444H46.9555" stroke="white" stroke-width="1.5"/>
<path d="M7.2666 43.3V35.9445C7.2666 35.3922 7.71432 34.9445 8.2666 34.9445H13.5777C14.13 34.9445 14.5777 35.3922 14.5777 35.9445V43.3" stroke="white" stroke-width="1.5"/>
<path d="M26.5889 1C25.1829 1 24.1975 2.6824 24.3876 3.78241C24.4283 4.01765 24.4723 4.2625 24.3961 4.48874C23.916 5.9143 22.8948 6.58322 22.4111 6.74444" stroke="white" stroke-width="1.5"/>
<path d="M30.7667 1C29.3607 1 28.3752 2.6824 28.5654 3.78241C28.606 4.01765 28.65 4.2625 28.5738 4.48874C28.0938 5.9143 27.0725 6.58322 26.5889 6.74444" stroke="white" stroke-width="1.5"/>
<path d="M40.1666 1C38.7606 1 37.7751 2.6824 37.9653 3.78241C38.006 4.01765 38.0499 4.2625 37.9737 4.48874C37.4937 5.9143 36.4724 6.58322 35.9888 6.74444" stroke="white" stroke-width="1.5"/>
<path d="M44.3446 1C42.9385 1 41.9531 2.6824 42.1433 3.78241C42.1839 4.01765 42.2279 4.2625 42.1517 4.48874C41.6716 5.9143 40.6504 6.58322 40.1667 6.74444" stroke="white" stroke-width="1.5"/>
</svg>
