<svg width="53" height="49" viewBox="0 0 53 49" fill="none" xmlns="http://www.w3.org/2000/svg">
<path d="M10.8472 16.8647H41.4825" stroke="white" stroke-width="1.5"/>
<path d="M10.8472 21.2412H41.4825" stroke="white" stroke-width="1.5"/>
<path d="M21.7883 33.8235V32.0882C21.7883 31.5359 21.3406 31.0882 20.7883 31.0882H9.11182C8.55953 31.0882 8.11182 31.5359 8.11182 32.0882V43.7647C8.11182 44.317 8.55953 44.7647 9.11182 44.7647H19.6001M19.6001 44.7647V46.5C19.6001 47.0523 20.0478 47.5 20.6001 47.5H32.2765C32.8288 47.5 33.2765 47.0523 33.2765 46.5V34.8235C33.2765 34.2712 32.8288 33.8235 32.2765 33.8235H20.6001C20.0478 33.8235 19.6001 34.2712 19.6001 34.8235V44.7647Z" stroke="white" stroke-width="1.5"/>
<path d="M5.92358 37.1059V2C5.92358 1.44772 6.3713 1 6.92358 1H45.4059C45.9582 1 46.4059 1.44772 46.4059 2V37.1059" stroke="white" stroke-width="1.5"/>
<path d="M10.3 31.0882V13.4882C10.3 12.9359 10.7478 12.4882 11.3 12.4882H41.0295C41.5817 12.4882 42.0295 12.9359 42.0295 13.4882V37.1059" stroke="white" stroke-width="1.5"/>
<path d="M8.11176 37.1059H2C1.44771 37.1059 1 37.5536 1 38.1059V39.9353C1 40.4876 1.44772 40.9353 2 40.9353H8.11176" stroke="white" stroke-width="1.5"/>
<path d="M32.7293 37.3794H50.3293C50.8816 37.3794 51.3293 37.8271 51.3293 38.3794V39.9353C51.3293 40.4876 50.8816 40.9353 50.3293 40.9353H32.7293" stroke="white" stroke-width="1.5"/>
</svg>
