<svg width="51" height="47" viewBox="0 0 51 47" fill="none" xmlns="http://www.w3.org/2000/svg">
<path d="M0 45.9647H50.7836" stroke="white" stroke-width="1.5"/>
<path d="M46.0227 45.9646V12.1089" stroke="white" stroke-width="1.5"/>
<path d="M46.5516 4.70297V3C46.5516 1.89543 45.6562 1 44.5516 1H6.23193C5.12736 1 4.23193 1.89543 4.23193 3V4.70297" stroke="white" stroke-width="1.5"/>
<path d="M42.8486 4.70294H49.0617C49.1362 4.70294 49.1966 4.76331 49.1966 4.83778V8.40591C49.1966 10.1589 47.7755 11.5799 46.0226 11.5799C44.2697 11.5799 42.8486 10.1589 42.8486 8.40592V4.70294Z" stroke="white" stroke-width="1.5"/>
<path d="M35.9717 4.70294H42.3196V8.40591C42.3196 10.1589 40.8986 11.5799 39.1457 11.5799C37.3927 11.5799 35.9717 10.1589 35.9717 8.40592V4.70294Z" stroke="white" stroke-width="1.5"/>
<path d="M2.25081 4.70294H8.46392V8.40591C8.46392 10.1589 7.04288 11.5799 5.28994 11.5799C3.537 11.5799 2.11597 10.1589 2.11597 8.40592V4.83778C2.11597 4.76331 2.17634 4.70294 2.25081 4.70294Z" stroke="white" stroke-width="1.5"/>
<path d="M8.46387 4.70294H14.8118V8.40591C14.8118 10.1589 13.3908 11.5799 11.6378 11.5799C9.88491 11.5799 8.46387 10.1589 8.46387 8.40592V4.70294Z" stroke="white" stroke-width="1.5"/>
<path d="M28.5657 4.70294H34.9136V8.40591C34.9136 10.1589 33.4926 11.5799 31.7396 11.5799C29.9867 11.5799 28.5657 10.1589 28.5657 8.40592V4.70294Z" stroke="white" stroke-width="1.5"/>
<path d="M15.8699 4.70294H22.2178V8.40591C22.2178 10.1589 20.7968 11.5799 19.0438 11.5799C17.2909 11.5799 15.8699 10.1589 15.8699 8.40592V4.70294Z" stroke="white" stroke-width="1.5"/>
<path d="M22.2178 4.70294H28.5657V8.40591C28.5657 10.1589 27.1447 11.5799 25.3917 11.5799C23.6388 11.5799 22.2178 10.1589 22.2178 8.40592V4.70294Z" stroke="white" stroke-width="1.5"/>
<path d="M29.0947 45.9646V19.4568C29.0947 18.9046 29.5424 18.4568 30.0947 18.4568H41.3387C41.8835 18.4568 42.328 18.8929 42.3385 19.4376L42.8486 45.9646" stroke="white" stroke-width="1.5"/>
<path d="M23.3338 18.4568H9.99292C9.44064 18.4568 8.99292 18.9046 8.99292 19.4568V34.9137C8.99292 35.466 9.44064 35.9137 9.99292 35.9137H23.3338C23.8861 35.9137 24.3338 35.466 24.3338 34.9137V19.4568C24.3338 18.9046 23.8861 18.4568 23.3338 18.4568Z" stroke="white" stroke-width="1.5"/>
<path d="M4.76099 11.5799V45.4356" stroke="white" stroke-width="1.5"/>
</svg>
