<svg width="22" height="23" viewBox="0 0 22 23" fill="none" xmlns="http://www.w3.org/2000/svg">
<path d="M15.3472 14.6491L14.7911 15.242C14.7911 15.242 13.4674 16.6503 9.85576 12.805C6.24412 8.95962 7.56777 7.55131 7.56777 7.55131L7.91733 7.17698C8.78143 6.25818 8.86332 4.78182 8.10921 3.70334L6.56922 1.50057C5.63545 0.16556 3.83269 -0.0111327 2.76325 1.12755L0.844374 3.16933C0.315156 3.73475 -0.0392869 4.46508 0.00349064 5.27656C0.11349 7.35368 0.99104 11.8207 5.88479 17.0325C11.0755 22.5584 15.9461 22.7783 17.937 22.5793C18.5677 22.5165 19.1153 22.1736 19.5565 21.7024L21.292 19.8544C22.4653 18.607 22.1353 16.4671 20.6345 15.5941L18.3 14.2342C17.3149 13.6623 16.1172 13.8298 15.3472 14.6491Z" fill="#E02618"/>
</svg>
