<svg width="44" height="44" viewBox="0 0 44 44" fill="none" xmlns="http://www.w3.org/2000/svg">
<rect width="44" height="44" rx="22" fill="#0177FF"/>
<path d="M33.2564 17.8939C33.5672 17.4281 33.6802 16.8578 33.5705 16.3087C33.4608 15.7596 33.1375 15.2765 32.6717 14.9658C32.2058 14.655 31.6356 14.5421 31.0865 14.6517C30.5374 14.7614 30.0543 15.0847 29.7436 15.5506C28.9962 16.5428 28.213 17.4928 27.2968 18.3372C26.2349 19.3168 25.1603 20.0514 24.1132 20.4863L24.0963 16.4752C24.0358 15.9617 23.789 15.4882 23.4026 15.1446C23.0162 14.801 22.5171 14.6112 22 14.6111C20.8558 14.6766 19.8889 15.521 19.8889 16.7222V25.9541C15.7764 24.8141 13.5556 20.8241 13.5556 16.7222C13.5556 16.1623 13.3331 15.6254 12.9372 15.2294C12.5413 14.8335 12.0043 14.6111 11.4444 14.6111C10.8845 14.6111 10.3476 14.8335 9.95166 15.2294C9.55575 15.6254 9.33333 16.1623 9.33333 16.7222C9.33333 24.3898 14.6322 30.4444 22 30.4444C22.5599 30.4444 23.0969 30.222 23.4928 29.8261C23.8887 29.4302 24.1111 28.8932 24.1111 28.3333V25.0337C26.9231 25.2574 29.6507 27.244 30.6682 29.277C30.7868 29.5337 30.9557 29.7639 31.1649 29.954C31.3742 30.1442 31.6195 30.2904 31.8863 30.3839C32.1531 30.4774 32.4359 30.5164 32.7181 30.4986C33.0003 30.4807 33.276 30.4064 33.5288 30.2799C33.7817 30.1535 34.0066 29.9775 34.1902 29.7625C34.3738 29.5475 34.5123 29.2978 34.5976 29.0282C34.6828 28.7587 34.7131 28.4747 34.6865 28.1933C34.6599 27.9118 34.5771 27.6385 34.4429 27.3897C33.4338 25.3693 31.5507 23.4799 29.2327 22.247C29.5451 21.9916 29.8554 21.7213 30.1616 21.4406C31.3247 20.3798 32.363 19.1899 33.2564 17.8939Z" fill="white"/>
</svg>
