<svg width="44" height="44" viewBox="0 0 44 44" fill="none" xmlns="http://www.w3.org/2000/svg">
<rect width="44" height="44" rx="22" fill="#3BDE58"/>
<path d="M31.0471 12.901C29.8706 11.7125 28.4692 10.7702 26.9246 10.1291C25.3801 9.48789 23.7233 9.16068 22.051 9.1665C15.044 9.1665 9.33314 14.8773 9.33314 21.8843C9.33314 24.1302 9.92347 26.3118 11.0271 28.2368L9.23047 34.8332L15.968 33.0622C17.8288 34.076 19.9206 34.615 22.051 34.615C29.058 34.615 34.7688 28.9042 34.7688 21.8972C34.7688 18.4963 33.447 15.3008 31.0471 12.901ZM22.051 32.459C20.1516 32.459 18.2908 31.9457 16.661 30.9832L16.276 30.7522L12.272 31.8045L13.3371 27.9032L13.0805 27.5053C12.0252 25.8203 11.4649 23.8725 11.4635 21.8843C11.4635 16.058 16.2118 11.3097 22.0381 11.3097C24.8615 11.3097 27.518 12.4133 29.5071 14.4153C30.4921 15.3958 31.2726 16.5619 31.8035 17.8462C32.3344 19.1305 32.6051 20.5075 32.6 21.8972C32.6256 27.7235 27.8773 32.459 22.051 32.459ZM27.8516 24.5537C27.5308 24.3997 25.9651 23.6297 25.6828 23.5142C25.3876 23.4115 25.1823 23.3602 24.9641 23.6682C24.746 23.989 24.1428 24.7077 23.9631 24.913C23.7835 25.1312 23.591 25.1568 23.2701 24.99C22.9493 24.836 21.9226 24.4895 20.7163 23.4115C19.7666 22.5645 19.1378 21.525 18.9453 21.2042C18.7656 20.8833 18.9196 20.7165 19.0865 20.5497C19.2276 20.4085 19.4073 20.1775 19.5613 19.9978C19.7153 19.8182 19.7795 19.677 19.8821 19.4717C19.9848 19.2535 19.9335 19.0738 19.8565 18.9198C19.7795 18.7658 19.1378 17.2002 18.8811 16.5585C18.6245 15.9425 18.355 16.0195 18.1625 16.0067H17.5465C17.3283 16.0067 16.9946 16.0837 16.6995 16.4045C16.4171 16.7253 15.5958 17.4953 15.5958 19.061C15.5958 20.6267 16.738 22.141 16.892 22.3463C17.046 22.5645 19.1378 25.7728 22.3205 27.146C23.0776 27.4797 23.668 27.6722 24.13 27.8133C24.8871 28.0572 25.5801 28.0187 26.132 27.9417C26.748 27.8518 28.0185 27.1717 28.2751 26.4273C28.5446 25.683 28.5446 25.0542 28.4548 24.913C28.365 24.7718 28.1725 24.7077 27.8516 24.5537Z" fill="white"/>
</svg>
